<?xml version="1.0" encoding="utf-8"?>
<!-- Generator: Adobe Illustrator 24.0.1, SVG Export Plug-In . SVG Version: 6.00 Build 0)  -->
<svg version="1.1" id="Calque_1" xmlns="http://www.w3.org/2000/svg" xmlns:xlink="http://www.w3.org/1999/xlink" x="0px" y="0px"
	 viewBox="0 0 1946.5 1489.9" style="enable-background:new 0 0 1946.5 1489.9;" xml:space="preserve">
<style type="text/css">
	.st0{fill:#41BCA0;}
	.st1{fill:url(#Tracé_134_1_);}
</style>
<g id="Groupe_114" transform="translate(11.841 -1378.434)">
	<path id="Tracé_135-2" class="st0" d="M1934.4,2366.5v-203.9c0,0-44.3-15.4-167.2-31.4c-193.2-30.8-444.5,110.3-568.9,62.1
		c-132-35.1-169.2-116.1-208.6-176.2c-39.4-60.1-94-86.7-113.1-94c-137.4-52.4-319.5,135.5-452.8,41.5s-94.8-384.9-227.2-488.4
		c-132.4-103.5-208.4-85.6-208.4-85.6V2168l3.7,687.2c0,0,71-76.8,163-134.6c76.9-48.2,136-91.1,244.4-112.3
		c165-7.9,179.3,37,356.6,75c73.2,14.2,221-1,277.5-59.6c37.2-38.6,72.9-148.8,87.2-176.1c36-68.6,104.7-88.6,225.4-63
		c120.7,25.5,190.1,110.2,282.1,118.6C1720,2511.6,1881.9,2477.2,1934.4,2366.5z"/>
	
		<linearGradient id="Tracé_134_1_" gradientUnits="userSpaceOnUse" x1="420.8475" y1="2662.5491" x2="421.4315" y2="2663.24" gradientTransform="matrix(1920.0706 0 0 -1420.7787 -808223.125 3785783.5)">
		<stop  offset="0" style="stop-color:#6A7FF4"/>
		<stop  offset="1" style="stop-color:#45539F"/>
	</linearGradient>
	<path id="Tracé_134" class="st1" d="M1571.5,2144.9c-192.8,51-247.9,85.7-423.5,34.8c-175.6-51-174.9-199.3-278.8-238.6
		c-138.5-52.4-307.7,106.6-442.1,12.5S321,1620.2,187.6,1516.6s-199.4-87.5-199.4-87.5v735.3l-0.1,205.4V2849
		c0,0,132-190.1,365.5-238.4s356.9,102.4,568.6,45.2c211.7-57.3,89.2-232.1,278.2-274.2c189-42.2,294.4,108.5,477.9,105.5
		s256.2-117.3,256.2-117.3v-206.6C1934.6,2163.2,1764.2,2093.9,1571.5,2144.9z"/>
</g>
</svg>
