<?xml version="1.0" encoding="utf-8"?>
<!-- Generator: Adobe Illustrator 24.0.0, SVG Export Plug-In . SVG Version: 6.00 Build 0)  -->
<svg version="1.1" id="Calque_1" xmlns="http://www.w3.org/2000/svg" xmlns:xlink="http://www.w3.org/1999/xlink" x="0px" y="0px"
	 viewBox="0 0 442.7 393.8" style="enable-background:new 0 0 442.7 393.8;" xml:space="preserve">
<style type="text/css">
	.st0{fill:#41BCA0;}
	.st1{fill:url(#Tracé_338_1_);}
</style>
<g id="Groupe_241" transform="translate(25 -13.262)">
	<g transform="matrix(1, 0, 0, 1, -25, 13.26)">
		<path id="Tracé_337-2_1_" class="st0" d="M0,93.4c0,0,52.9-67.7,121.5-79.5s118.9,32.9,133.7,40.3s61.2,40.6,102.6,44
			S448,68,448,68v271.6c0,0-50.7-14.9-90.3-5.2s-82.1,52-139.9,39.1S133.7,301,79.4,294S0,311.7,0,311.7V93.4z"/>
	</g>
	
		<linearGradient id="Tracé_338_1_" gradientUnits="userSpaceOnUse" x1="-201.1496" y1="0.5648" x2="-201.1496" y2="1.565" gradientTransform="matrix(412.7202 0 0 354.2195 83217.4844 -165.3595)">
		<stop  offset="0" style="stop-color:#6A7FF4"/>
		<stop  offset="1" style="stop-color:#45539F"/>
	</linearGradient>
	<path id="Tracé_338" class="st1" d="M-25,106.7c0,0,53.6-57.9,122.1-69.6s118.2,23,133,30.5s54.6,41.3,98.1,46.7s94.8-33,94.8-33
		v271.6c0,0-59.8-20.8-99.4-11.1s-73.1,57.9-130.7,45s-81.2-78.4-135.3-85.5S-25,324.9-25,324.9V106.7z"/>
</g>
</svg>
