<?xml version="1.0" encoding="utf-8"?>
<!-- Generator: Adobe Illustrator 24.0.0, SVG Export Plug-In . SVG Version: 6.00 Build 0)  -->
<svg version="1.1" id="Calque_1" xmlns="http://www.w3.org/2000/svg" xmlns:xlink="http://www.w3.org/1999/xlink" x="0px" y="0px"
	 viewBox="0 0 1955.4 990.9" style="enable-background:new 0 0 1955.4 990.9;" xml:space="preserve">
<style type="text/css">
	.st0{fill:#41BCA0;}
	.st1{fill:url(#Tracé_340-2_1_);}
</style>
<g id="Groupe_268" transform="translate(25 6)">
	<path id="Tracé_339-2" class="st0" d="M-25-6v940.8c0,0,66.7,69.9,176.3,44.6c109.6-25.4,174.1-197,466.7-240.5
		s474.1,236.6,679.2,176.9s138.7-365.3,340.5-442.6S1928.1,507.2,1924.1-6L-25-6z"/>
	
		<linearGradient id="Tracé_340-2_1_" gradientUnits="userSpaceOnUse" x1="655.1072" y1="786.416" x2="655.1632" y2="785.7267" gradientTransform="matrix(1921.3701 0 0 -955.8928 -1257817.375 751792.1875)">
		<stop  offset="0" style="stop-color:#6A7FF4"/>
		<stop  offset="1" style="stop-color:#45539F"/>
	</linearGradient>
	<path id="Tracé_340-2" class="st1" d="M-25-6v940.8c0,0,66.7,69.9,176.3,44.6c109.6-25.4,170.4-227.5,463-271
		s460.1,276.6,661.4,210.9s211.4-407.6,344.8-455.9s307.9,30.6,307.9-469L-25-6z"/>
</g>
</svg>
