<?xml version="1.0" encoding="utf-8"?>
<!-- Generator: Adobe Illustrator 24.0.0, SVG Export Plug-In . SVG Version: 6.00 Build 0)  -->
<svg version="1.1" id="Calque_1" xmlns="http://www.w3.org/2000/svg" xmlns:xlink="http://www.w3.org/1999/xlink" x="0px" y="0px"
	 viewBox="0 0 1947.3 909.2" style="enable-background:new 0 0 1947.3 909.2;" xml:space="preserve">
<style type="text/css">
	.st0{fill:#41BCA0;}
	.st1{fill:url(#Tracé_340_1_);}
</style>
<g id="Groupe_268" transform="translate(25 12)">
	<path id="Tracé_339-2" class="st0" d="M-25-12v863.2c0,0,66.5,64.2,175.7,40.9s183.2-207.7,474.9-247.7
		c291.7-40,405.5,116.6,609.9,61.9s170.2-243.1,371.4-314.1s315.2,66.7,311.2-404.2L-25-12z"/>
	
		<linearGradient id="Tracé_340_1_" gradientUnits="userSpaceOnUse" x1="651.1078" y1="739.3949" x2="651.1637" y2="738.7073" gradientTransform="matrix(1921.3721 0 0 -879.1559 -1250137.25 650094.5)">
		<stop  offset="0" style="stop-color:#6A7FF4"/>
		<stop  offset="1" style="stop-color:#45539F"/>
	</linearGradient>
	<path id="Tracé_340" class="st1" d="M-25-12v863.2c0,0,66.5,64.2,175.7,40.9s179.9-225.7,471.5-265.6
		c291.7-40,384.1,140.6,584.8,80.3c200.7-60.3,256.4-281.1,389.4-325.4s325.9,65.3,325.9-393.1L-25-12z"/>
</g>
</svg>
