<?xml version="1.0" encoding="utf-8"?>
<!-- Generator: Adobe Illustrator 24.0.0, SVG Export Plug-In . SVG Version: 6.00 Build 0)  -->
<svg version="1.1" id="Calque_1" xmlns="http://www.w3.org/2000/svg" xmlns:xlink="http://www.w3.org/1999/xlink" x="0px" y="0px"
	 viewBox="0 0 444.1 682.6" style="enable-background:new 0 0 444.1 682.6;" xml:space="preserve">
<style type="text/css">
	.st0{filter:url(#Tracé_324);}
	.st1{fill:#41BCA0;}
	.st2{fill:url(#Tracé_323_1_);}
</style>
<filter  filterUnits="userSpaceOnUse" height="682.597" id="Tracé_324" width="444.087" x="0" y="0">
	<feOffset  dx="-10" dy="3" input="SourceAlpha"></feOffset>
	<feGaussianBlur  result="blur" stdDeviation="5"></feGaussianBlur>
	<feFlood  flood-opacity="0.161"></feFlood>
	<feComposite  in2="blur" operator="in"></feComposite>
	<feComposite  in="SourceGraphic" operator="over"></feComposite>
</filter>
<g id="Groupe_222" transform="translate(26.043 12)">
	<g id="Groupe_221" transform="translate(-1.001 -0.729)">
		<g transform="matrix(1, 0, 0, 1, -25.04, -11.27)" class="st0">
			<path id="Tracé_324-2_1_" class="st1" d="M0.5,1.1l445.6-0.3L446,664.1c0,0-18.4-1.2-27.3-2.8
				c-116.6-20.5-124.6-146-254.8-136.2c-77,5.7-120.2,51.2-163.9,100L0.5,1.1z"/>
		</g>
		
			<linearGradient id="Tracé_323_1_" gradientUnits="userSpaceOnUse" x1="-99.3828" y1="627.0877" x2="-99.3828" y2="626.0712" gradientTransform="matrix(414.8721 0 0 -653.1 41429.6953 409539.6875)">
			<stop  offset="0" style="stop-color:#6A7FF4"/>
			<stop  offset="1" style="stop-color:#45539F"/>
		</linearGradient>
		<path id="Tracé_323" class="st2" d="M-24.8-11.1L422-11.3l-0.9,663.9c0,0-16.6-1.5-26.1-3.2C278,629,269,487.5,138.3,497.3
			c-73.9,5.5-121.8,54.7-163.2,116L-24.8-11.1z"/>
	</g>
</g>
</svg>
