<svg xmlns="http://www.w3.org/2000/svg" width="15.203" height="28.119" viewBox="0 0 15.203 28.119">
  <g id="Groupe_3" data-name="Groupe 3" transform="translate(-22.077)">
    <path id="Tracé_12" data-name="Tracé 12" d="M36.707.006,33.061,0c-4.1,0-6.744,2.716-6.744,6.92v3.191H22.65a.573.573,0,0,0-.573.574v4.623a.573.573,0,0,0,.573.573h3.666V27.545a.573.573,0,0,0,.573.573h4.783a.573.573,0,0,0,.573-.573V15.881h4.287a.573.573,0,0,0,.573-.573l0-4.623a.574.574,0,0,0-.574-.574H32.247v-2.7c0-1.3.31-1.96,2-1.96h2.456a.573.573,0,0,0,.573-.573V.579A.574.574,0,0,0,36.707.006Z" fill="#fff"/>
  </g>
</svg>
