<svg xmlns="http://www.w3.org/2000/svg" xmlns:xlink="http://www.w3.org/1999/xlink" width="1946.486" height="1489.856" viewBox="0 0 1946.486 1489.856">
  <defs>
    <filter id="Tracé_135" x="0" y="0" width="1946.486" height="1489.856" filterUnits="userSpaceOnUse">
      <feOffset dx="4" dy="1" input="SourceAlpha"/>
      <feGaussianBlur stdDeviation="4" result="blur"/>
      <feFlood flood-opacity="0.161"/>
      <feComposite operator="in" in2="blur"/>
      <feComposite in="SourceGraphic"/>
    </filter>
    <linearGradient id="linear-gradient" x1="-0.036" y1="1.066" x2="0.543" y2="0.381" gradientUnits="objectBoundingBox">
      <stop offset="0" stop-color="#6a7ff4"/>
      <stop offset="1" stop-color="#45539f"/>
    </linearGradient>
  </defs>
  <g id="Groupe_114" data-name="Groupe 114" transform="translate(11.841 -1378.434)">
    <g transform="matrix(1, 0, 0, 1, -11.84, 1378.43)" filter="url(#Tracé_135)">
      <path id="Tracé_135-2" data-name="Tracé 135" d="M3876.644,1182.542v-203.9s-43.715-15.4-165.171-31.382c-190.851-30.846-439.061,110.331-561.959,62.1-130.4-35.128-167.179-116.112-206.076-176.244s-92.885-86.74-111.734-94.017c-135.72-52.4-315.585,135.514-447.319,41.479s-93.662-384.856-224.4-488.37-205.823-85.585-205.823-85.585V984.043l3.7,687.248s70.175-76.751,160.983-134.565c75.944-48.193,134.357-91.063,241.459-112.35,162.985-7.934,177.164,36.98,352.248,75.026,72.314,14.173,218.31-.978,274.074-59.575,36.736-38.6,72-148.8,86.143-176.115,35.539-68.636,103.385-88.568,222.62-63.042s187.8,110.228,278.644,118.571S3824.872,1293.25,3876.644,1182.542Z" transform="translate(-1946.16 -194.43)" fill="#41bca0"/>
    </g>
    <path id="Tracé_134" data-name="Tracé 134" d="M3552.688,929.863c-190.158,50.975-244.558,85.748-417.735,34.784S2962.44,765.309,2859.981,726.008c-136.613-52.4-303.531,106.551-436.131,12.515S2319.2,405.15,2187.6,301.636s-196.668-87.468-196.668-87.468V949.432l-.073,205.381v479.235s130.206-190.1,360.585-238.4,352.1,102.449,560.932,45.191,87.944-232.052,274.4-274.224,290.382,108.486,471.42,105.536,252.734-117.338,252.734-117.338V948.207S3742.846,878.888,3552.688,929.863Z" transform="translate(-1992 1215)" fill="url(#linear-gradient)"/>
  </g>
</svg>
