<?xml version="1.0" encoding="utf-8"?>
<!-- Generator: Adobe Illustrator 23.1.1, SVG Export Plug-In . SVG Version: 6.00 Build 0)  -->
<svg version="1.1" id="isoPres" xmlns="http://www.w3.org/2000/svg" xmlns:xlink="http://www.w3.org/1999/xlink" x="0px" y="0px"
	 viewBox="0 0 558 621" style="enable-background:new 0 0 558 621;" xml:space="preserve">
<style type="text/css">
	.st0{enable-background:new    ;}
	.st1{clip-path:url(#SVGID_2_);enable-background:new    ;}
	.st2{fill:#8F8F8F;}
	.st3{fill:#8A8A8A;}
	.st4{fill:#858585;}
	.st5{clip-path:url(#SVGID_4_);enable-background:new    ;}
	.st6{fill:#969696;}
	.st7{fill:#888888;}
	.st8{clip-path:url(#SVGID_6_);enable-background:new    ;}
	.st9{clip-path:url(#SVGID_8_);enable-background:new    ;}
	.st10{fill:#999999;}
	.st11{fill:#898989;}
	.st12{fill:#8C8C8C;}
	.st13{fill:#979797;}
	.st14{clip-path:url(#SVGID_10_);enable-background:new    ;}
	.st15{clip-path:url(#SVGID_12_);enable-background:new    ;}
	.st16{clip-path:url(#SVGID_14_);enable-background:new    ;}
	.st17{fill:#808080;}
	.st18{clip-path:url(#SVGID_16_);enable-background:new    ;}
	.st19{clip-path:url(#SVGID_18_);enable-background:new    ;}
	.st20{clip-path:url(#SVGID_20_);enable-background:new    ;}
	.st21{clip-path:url(#SVGID_22_);enable-background:new    ;}
	.st22{clip-path:url(#SVGID_24_);enable-background:new    ;}
	.st23{fill:#828282;}
	.st24{fill:#FCFCFC;}
	.st25{fill:#BC4B4B;}
	.st26{fill:#843434;}
	.st27{clip-path:url(#SVGID_26_);enable-background:new    ;}
	.st28{fill:#6B2B2B;}
</style>
<g id="Net">
	<g class="st0">
		<g class="st0">
			<defs>
				<path id="SVGID_1_" class="st0" d="M42.08,361.87l-20.44,11.88c-0.88,0.51-2.18,0.21-3.73-0.69c-2.94-1.7-4.91-4.47-4.9-8.38
					l20.44-11.88c-0.01,3.91,1.96,6.68,4.9,8.38C39.91,362.08,41.21,362.38,42.08,361.87z"/>
			</defs>
			<clipPath id="SVGID_2_">
				<use xlink:href="#SVGID_1_"  style="overflow:visible;"/>
			</clipPath>
			<g class="st1">
				<path class="st2" d="M13.02,364.68l20.44-11.88c0,1.63,0.34,3.07,0.95,4.31l-20.44,11.88
					C13.35,367.75,13.01,366.31,13.02,364.68"/>
				<path class="st3" d="M13.97,368.99l20.44-11.88c0.39,0.78,0.88,1.48,1.46,2.11L15.43,371.1
					C14.84,370.47,14.35,369.77,13.97,368.99"/>
				<path class="st4" d="M15.43,371.1l20.44-11.88c0.71,0.76,1.55,1.42,2.49,1.96c1.56,0.9,2.86,1.2,3.73,0.69l-20.44,11.88
					c-0.88,0.51-2.18,0.21-3.73-0.69C16.97,372.52,16.13,371.86,15.43,371.1"/>
			</g>
		</g>
		<g class="st0">
			<defs>
				<path id="SVGID_3_" class="st0" d="M39.36,357.73l-20.44,11.88c0.26-0.15,0.41-0.53,0.41-1.2l20.44-11.88
					C39.77,357.2,39.61,357.58,39.36,357.73z"/>
			</defs>
			<clipPath id="SVGID_4_">
				<use xlink:href="#SVGID_3_"  style="overflow:visible;"/>
			</clipPath>
			<g class="st5">
				<path class="st2" d="M19.33,368.41l20.44-11.88c0,0.07,0,0.14-0.01,0.2l-20.44,11.88C19.33,368.55,19.33,368.48,19.33,368.41"/>
				<path class="st3" d="M19.32,368.61l20.44-11.88c-0.02,0.39-0.1,0.67-0.23,0.84l-20.44,11.88C19.22,369.28,19.3,369,19.32,368.61
					"/>
				<path class="st4" d="M19.09,369.45l20.44-11.88c-0.05,0.07-0.11,0.12-0.17,0.16l-20.44,11.88
					C18.98,369.57,19.04,369.52,19.09,369.45"/>
			</g>
		</g>
		<g>
			<polygon class="st6" points="13.04,356.83 33.48,344.96 33.45,352.8 13.02,364.68 			"/>
		</g>
		<g>
			<polygon class="st7" points="24,376.31 44.43,364.43 47.96,366.46 27.52,378.34 			"/>
		</g>
		<g>
			<polygon class="st6" points="19.35,360.48 39.79,348.6 39.77,356.53 19.33,368.41 			"/>
		</g>
		<g>
			<polygon class="st6" points="24.03,363.18 44.47,351.3 44.43,364.43 24,376.31 			"/>
		</g>
		<path class="st4" d="M59.5,376.15c0.04-0.07,0.08-0.13,0.12-0.2c0.22-0.41,0.42-0.85,0.6-1.3c0.04-0.1,0.08-0.21,0.12-0.32
			c0.16-0.43,0.31-0.88,0.45-1.34c0.02-0.05,0.03-0.1,0.05-0.16c0.14-0.51,0.25-1.04,0.35-1.59c0.02-0.13,0.05-0.26,0.07-0.39
			c0.09-0.57,0.17-1.14,0.22-1.75c0,0,0,0,0,0l0,0v0l-20.44,11.88c-0.05,0.6-0.13,1.18-0.22,1.75c-0.02,0.13-0.04,0.26-0.07,0.39
			c-0.1,0.55-0.21,1.08-0.35,1.59c-0.01,0.05-0.03,0.11-0.05,0.16c-0.13,0.46-0.28,0.91-0.45,1.34c-0.04,0.11-0.08,0.21-0.12,0.32
			c-0.18,0.45-0.38,0.89-0.6,1.3c-0.04,0.07-0.08,0.13-0.12,0.2c-0.2,0.36-0.41,0.71-0.64,1.03c-0.05,0.08-0.11,0.16-0.16,0.23
			c-0.27,0.37-0.55,0.71-0.85,1.03c-0.06,0.06-0.12,0.12-0.18,0.18c-0.25,0.26-0.51,0.5-0.79,0.72c-0.09,0.08-0.18,0.15-0.28,0.22
			c-0.34,0.26-0.69,0.51-1.06,0.72l20.44-11.88c0.37-0.21,0.72-0.46,1.06-0.72c0.09-0.07,0.18-0.15,0.27-0.22
			c0.27-0.23,0.54-0.47,0.79-0.73c0.06-0.06,0.12-0.12,0.18-0.18c0.26-0.28,0.51-0.57,0.75-0.88c0.04-0.05,0.07-0.1,0.1-0.15
			c0.05-0.08,0.11-0.16,0.16-0.23C59.08,376.86,59.3,376.52,59.5,376.15z"/>
		<path class="st2" d="M24.39,346.06c0.08,0.07,0.17,0.13,0.25,0.2c0.55,0.45,1.1,0.92,1.64,1.4c0.09,0.08,0.18,0.16,0.27,0.25
			c0.53,0.49,1.05,1,1.57,1.53c0.08,0.08,0.16,0.17,0.24,0.25c0.53,0.56,1.06,1.13,1.57,1.72c0.01,0.01,0.01,0.02,0.02,0.02
			c0.5,0.58,0.98,1.18,1.45,1.79c0.12,0.15,0.23,0.3,0.35,0.45c0.47,0.62,0.92,1.24,1.36,1.88c0,0.01,0.01,0.01,0.01,0.02
			c0.43,0.64,0.85,1.29,1.26,1.95c0.1,0.16,0.2,0.33,0.3,0.49c0.4,0.67,0.79,1.34,1.16,2.03c0.01,0.02,0.02,0.04,0.03,0.06
			c0.35,0.65,0.67,1.3,0.99,1.96c0.12,0.25,0.23,0.49,0.35,0.74c0.23,0.5,0.45,1.01,0.67,1.52c0.1,0.24,0.2,0.47,0.3,0.71
			c0.26,0.65,0.51,1.31,0.74,1.97c0.03,0.08,0.06,0.16,0.09,0.24c0.25,0.74,0.48,1.48,0.69,2.22c0.06,0.22,0.11,0.44,0.17,0.65
			c0.14,0.53,0.27,1.06,0.39,1.59c0.06,0.25,0.11,0.51,0.16,0.76c0.1,0.52,0.2,1.03,0.28,1.55c0.04,0.23,0.08,0.46,0.11,0.69
			c0.1,0.73,0.18,1.46,0.23,2.18l20.44-11.88c-0.05-0.72-0.13-1.45-0.23-2.18c-0.03-0.23-0.07-0.46-0.11-0.69
			c-0.08-0.51-0.17-1.03-0.28-1.55c-0.05-0.26-0.1-0.51-0.16-0.77c-0.12-0.53-0.25-1.06-0.39-1.59c-0.06-0.22-0.11-0.44-0.17-0.66
			c-0.21-0.74-0.44-1.48-0.69-2.22c-0.03-0.08-0.06-0.17-0.09-0.25c-0.23-0.66-0.48-1.31-0.74-1.96c-0.09-0.24-0.2-0.47-0.3-0.71
			c-0.21-0.51-0.44-1.01-0.67-1.52c-0.11-0.25-0.23-0.5-0.35-0.74c-0.08-0.16-0.15-0.33-0.23-0.49c-0.24-0.49-0.5-0.98-0.76-1.47
			c-0.01-0.02-0.02-0.04-0.03-0.07c-0.37-0.69-0.76-1.36-1.16-2.03c-0.1-0.16-0.2-0.33-0.3-0.49c-0.41-0.66-0.82-1.31-1.26-1.95
			c0-0.01-0.01-0.01-0.01-0.02c-0.44-0.64-0.9-1.27-1.36-1.88c-0.12-0.15-0.23-0.3-0.35-0.46c-0.47-0.61-0.95-1.21-1.45-1.79
			c-0.01-0.01-0.01-0.02-0.02-0.02c-0.36-0.42-0.73-0.84-1.11-1.24c-0.15-0.16-0.31-0.32-0.46-0.48c-0.08-0.09-0.16-0.17-0.25-0.26
			c-0.51-0.53-1.03-1.04-1.57-1.53c-0.09-0.08-0.18-0.17-0.27-0.25c-0.54-0.49-1.08-0.95-1.63-1.4c-0.08-0.07-0.17-0.13-0.26-0.2
			c-0.57-0.45-1.14-0.88-1.73-1.29c-0.06-0.04-0.12-0.08-0.18-0.12c-0.62-0.42-1.24-0.82-1.87-1.18c-3.93-2.27-7.61-3.12-10.74-2.73
			c-1.42,0.18-2.73,0.62-3.9,1.3L5.97,342.03c3.74-2.17,8.92-1.87,14.64,1.43c0.63,0.36,1.25,0.76,1.87,1.18
			c0.06,0.04,0.12,0.08,0.18,0.12C23.25,345.17,23.82,345.61,24.39,346.06z"/>
		<path class="st4" d="M132.94,406.27l-71.46-41.26L41.04,376.9l71.46,41.26c6.28,3.62,11.97,3.95,16.08,1.56l20.44-11.88
			C144.91,410.23,139.22,409.9,132.94,406.27z"/>
		<path class="st4" d="M156.3,407.34c0.15-0.25,0.29-0.5,0.43-0.76c0.07-0.13,0.14-0.26,0.21-0.4c0.14-0.29,0.28-0.59,0.41-0.89
			c0.05-0.11,0.1-0.21,0.14-0.32c0.17-0.42,0.33-0.84,0.47-1.29c0.03-0.09,0.05-0.19,0.08-0.28c0.11-0.36,0.22-0.72,0.31-1.09
			c0.04-0.16,0.08-0.32,0.11-0.48c0.08-0.33,0.15-0.66,0.21-1c0.03-0.17,0.07-0.35,0.09-0.52c0.06-0.37,0.12-0.75,0.16-1.13
			c0.02-0.14,0.04-0.28,0.06-0.43c0.06-0.53,0.1-1.07,0.13-1.62c0-0.02,0-0.03,0-0.05c0.02-0.45,0.04-0.9,0.04-1.37l-20.44,11.88
			c-0.01,0.48-0.02,0.96-0.05,1.42c-0.03,0.55-0.08,1.09-0.13,1.62c-0.02,0.15-0.04,0.29-0.06,0.43c-0.05,0.38-0.1,0.76-0.16,1.13
			c-0.03,0.18-0.06,0.35-0.09,0.52c-0.06,0.34-0.13,0.67-0.21,1c-0.04,0.16-0.07,0.32-0.11,0.48c-0.1,0.37-0.2,0.74-0.31,1.09
			c-0.03,0.09-0.05,0.19-0.08,0.28c-0.14,0.44-0.3,0.87-0.47,1.29c-0.04,0.11-0.09,0.21-0.14,0.32c-0.13,0.31-0.27,0.6-0.41,0.89
			c-0.07,0.13-0.14,0.27-0.21,0.4c-0.14,0.26-0.28,0.51-0.43,0.76c-0.07,0.12-0.15,0.25-0.22,0.37c-0.17,0.27-0.36,0.54-0.54,0.79
			c-0.05,0.07-0.1,0.15-0.16,0.23c-0.25,0.33-0.51,0.64-0.78,0.94c-0.07,0.08-0.14,0.15-0.21,0.22c-0.21,0.22-0.42,0.43-0.64,0.63
			c-0.1,0.09-0.2,0.18-0.3,0.26c-0.21,0.18-0.43,0.36-0.65,0.53c-0.1,0.07-0.19,0.15-0.29,0.22c-0.32,0.23-0.64,0.44-0.98,0.64
			l20.44-11.88c0.34-0.2,0.66-0.41,0.98-0.64c0.1-0.07,0.19-0.15,0.29-0.22c0.22-0.17,0.44-0.34,0.65-0.53
			c0.1-0.09,0.2-0.17,0.3-0.26c0.22-0.2,0.43-0.41,0.64-0.63c0.07-0.08,0.15-0.15,0.22-0.22c0.27-0.3,0.53-0.61,0.78-0.94
			c0.01-0.01,0.02-0.02,0.03-0.04c0.04-0.06,0.08-0.13,0.13-0.19c0.19-0.26,0.37-0.52,0.54-0.79
			C156.16,407.58,156.23,407.46,156.3,407.34z"/>
		<path class="st4" d="M137.6,378.89c0.13,0.11,0.26,0.2,0.4,0.3c0.07,0.05,0.14,0.11,0.21,0.16c0.21,0.14,0.41,0.28,0.63,0.4
			l20.44-11.88c-0.21-0.12-0.42-0.26-0.63-0.4c-0.07-0.05-0.13-0.1-0.2-0.15c-0.14-0.1-0.27-0.2-0.41-0.31
			c-0.08-0.07-0.16-0.14-0.24-0.21c-0.12-0.1-0.24-0.2-0.35-0.31c-0.08-0.08-0.16-0.16-0.24-0.24c-0.11-0.11-0.22-0.21-0.32-0.32
			c-0.05-0.05-0.09-0.11-0.14-0.16c-0.16-0.18-0.32-0.36-0.47-0.55c-0.07-0.08-0.13-0.16-0.19-0.25c-0.13-0.17-0.26-0.34-0.38-0.52
			c-0.06-0.09-0.12-0.17-0.18-0.26c-0.14-0.21-0.27-0.42-0.4-0.63c-0.03-0.06-0.07-0.11-0.1-0.17c-0.16-0.27-0.3-0.55-0.44-0.82
			c-0.02-0.05-0.04-0.1-0.07-0.15c-0.17-0.36-0.33-0.72-0.47-1.09c-0.02-0.04-0.03-0.08-0.05-0.12c-0.14-0.38-0.26-0.76-0.36-1.14
			c-0.02-0.07-0.04-0.14-0.06-0.22c-0.09-0.37-0.17-0.75-0.22-1.12c-0.01-0.06-0.01-0.12-0.02-0.19c-0.05-0.39-0.08-0.77-0.08-1.14
			l0.09-33.01c0-0.18,0.01-0.35,0.02-0.51c0.01-0.18,0.03-0.35,0.06-0.51c0.01-0.07,0.02-0.15,0.03-0.22
			c0.04-0.23,0.1-0.45,0.16-0.66c0-0.01,0.01-0.03,0.02-0.04c0.06-0.19,0.14-0.37,0.22-0.54c0.03-0.06,0.06-0.11,0.09-0.17
			c0.07-0.12,0.14-0.23,0.21-0.34c0.04-0.05,0.08-0.11,0.12-0.16c0.08-0.1,0.17-0.2,0.27-0.29c0.04-0.04,0.08-0.08,0.12-0.12
			c0.14-0.12,0.28-0.23,0.44-0.32c0,0,0,0,0,0l0,0c0,0,0,0,0,0l-20.44,11.88c-0.16,0.09-0.3,0.2-0.44,0.32
			c-0.04,0.04-0.08,0.08-0.12,0.12c-0.09,0.09-0.18,0.19-0.26,0.29c-0.02,0.03-0.05,0.05-0.07,0.07c-0.02,0.03-0.03,0.06-0.05,0.09
			c-0.08,0.11-0.14,0.22-0.21,0.34c-0.03,0.06-0.06,0.11-0.09,0.17c-0.08,0.17-0.16,0.35-0.22,0.54c0,0.01-0.01,0.03-0.02,0.04
			c-0.07,0.21-0.12,0.43-0.16,0.66c-0.01,0.07-0.02,0.15-0.03,0.22c-0.03,0.17-0.05,0.34-0.06,0.52c0,0.04-0.01,0.08-0.01,0.12
			c-0.01,0.13-0.01,0.26-0.01,0.39l-0.09,33.01c0,0.37,0.03,0.76,0.08,1.14c0.01,0.06,0.01,0.12,0.02,0.19
			c0.05,0.37,0.13,0.74,0.22,1.12c0.02,0.07,0.04,0.14,0.06,0.22c0.1,0.38,0.22,0.76,0.36,1.14c0.02,0.04,0.03,0.08,0.05,0.12
			c0.14,0.37,0.3,0.73,0.47,1.09c0.02,0.03,0.03,0.06,0.04,0.09c0.01,0.02,0.02,0.03,0.03,0.05c0.14,0.28,0.29,0.55,0.45,0.83
			c0.03,0.06,0.07,0.11,0.1,0.17c0.13,0.21,0.26,0.42,0.4,0.63c0.06,0.09,0.12,0.17,0.18,0.26c0.12,0.18,0.25,0.35,0.38,0.52
			c0.06,0.08,0.13,0.17,0.19,0.25c0.15,0.19,0.31,0.37,0.47,0.55c0.04,0.04,0.07,0.09,0.11,0.13c0.01,0.01,0.02,0.02,0.03,0.03
			c0.1,0.11,0.21,0.22,0.32,0.32c0.08,0.08,0.16,0.17,0.24,0.24c0.11,0.11,0.23,0.21,0.35,0.31
			C137.44,378.75,137.52,378.82,137.6,378.89z"/>
		<path class="st6" d="M235.85,412.08l-76.58-44.21l-20.44,11.88l76.58,44.21c1.68,0.97,3.21,1.06,4.31,0.42l20.44-11.88
			C239.06,413.15,237.54,413.06,235.85,412.08z"/>
		<path class="st4" d="M137.77,319.26c0.13,0.11,0.27,0.21,0.41,0.31c0.07,0.05,0.13,0.1,0.2,0.15c0.21,0.14,0.42,0.28,0.63,0.4
			l20.44-11.88c-0.21-0.12-0.42-0.26-0.63-0.4c-0.07-0.05-0.14-0.11-0.21-0.16c-0.13-0.1-0.27-0.19-0.4-0.3
			c-0.08-0.07-0.16-0.14-0.24-0.21c-0.12-0.1-0.23-0.2-0.35-0.31c-0.08-0.08-0.16-0.16-0.24-0.24c-0.11-0.11-0.21-0.21-0.32-0.32
			c-0.05-0.05-0.09-0.11-0.14-0.16c-0.16-0.18-0.32-0.36-0.47-0.54c-0.07-0.08-0.13-0.16-0.19-0.25c-0.13-0.17-0.26-0.34-0.38-0.52
			c-0.06-0.09-0.12-0.17-0.18-0.26c-0.14-0.21-0.27-0.41-0.4-0.63c-0.03-0.06-0.07-0.11-0.11-0.17c-0.16-0.27-0.3-0.55-0.44-0.82
			c-0.02-0.05-0.04-0.1-0.07-0.15c-0.17-0.36-0.33-0.72-0.47-1.09c-0.02-0.04-0.03-0.08-0.05-0.12c-0.14-0.38-0.26-0.76-0.36-1.14
			c-0.02-0.07-0.04-0.14-0.06-0.22c-0.09-0.37-0.17-0.75-0.22-1.12c-0.01-0.06-0.01-0.13-0.02-0.19c-0.05-0.39-0.08-0.77-0.08-1.14
			l0.09-33.01c0-0.18,0.01-0.35,0.02-0.51c0.01-0.18,0.03-0.35,0.06-0.52c0.01-0.07,0.02-0.15,0.03-0.22
			c0.04-0.23,0.1-0.45,0.16-0.66c0.01-0.02,0.01-0.03,0.02-0.04c0.06-0.19,0.14-0.37,0.22-0.54c0.03-0.06,0.06-0.11,0.09-0.17
			c0.07-0.12,0.14-0.23,0.21-0.34c0.04-0.05,0.08-0.11,0.12-0.16c0.08-0.1,0.17-0.2,0.27-0.29c0.04-0.04,0.08-0.08,0.12-0.12
			c0.14-0.12,0.28-0.23,0.44-0.32l-20.44,11.88c-0.16,0.09-0.3,0.2-0.44,0.32c-0.04,0.04-0.08,0.08-0.12,0.12
			c-0.09,0.09-0.18,0.19-0.27,0.29c-0.02,0.03-0.05,0.05-0.07,0.07c-0.02,0.03-0.03,0.06-0.05,0.09c-0.08,0.11-0.15,0.22-0.21,0.34
			c-0.03,0.06-0.06,0.11-0.09,0.17c-0.08,0.17-0.16,0.35-0.22,0.54c0,0.01-0.01,0.03-0.02,0.04c-0.07,0.21-0.12,0.43-0.16,0.66
			c-0.01,0.07-0.02,0.15-0.03,0.22c-0.03,0.17-0.05,0.34-0.06,0.52c0,0.04-0.01,0.08-0.01,0.12c-0.01,0.13-0.01,0.26-0.01,0.39
			l-0.09,33.01c0,0.37,0.03,0.76,0.08,1.14c0.01,0.06,0.01,0.12,0.02,0.19c0.05,0.37,0.13,0.74,0.22,1.12
			c0.02,0.07,0.04,0.14,0.06,0.22c0.1,0.38,0.22,0.76,0.36,1.14c0.02,0.04,0.03,0.08,0.05,0.12c0.14,0.37,0.3,0.73,0.47,1.09
			c0.02,0.03,0.03,0.06,0.04,0.1c0.01,0.02,0.02,0.03,0.03,0.05c0.14,0.28,0.29,0.55,0.44,0.82c0.03,0.06,0.07,0.11,0.1,0.17
			c0.13,0.21,0.26,0.42,0.4,0.63c0.06,0.09,0.12,0.17,0.18,0.26c0.12,0.18,0.25,0.35,0.38,0.52c0.06,0.08,0.13,0.17,0.19,0.25
			c0.15,0.19,0.31,0.37,0.47,0.55c0.04,0.04,0.07,0.09,0.11,0.12c0.01,0.01,0.02,0.02,0.03,0.03c0.11,0.11,0.21,0.22,0.32,0.33
			c0.08,0.08,0.16,0.16,0.24,0.24c0.11,0.11,0.23,0.21,0.35,0.31C137.61,319.12,137.69,319.19,137.77,319.26z"/>
		<g class="st0">
			<defs>
				<path id="SVGID_5_" class="st0" d="M44.23,30.96L23.8,42.84c-0.88,0.51-2.17,0.21-3.73-0.69c-2.94-1.7-4.91-4.46-4.9-8.38
					l20.44-11.88c-0.01,3.92,1.96,6.68,4.9,8.38C42.06,31.17,43.36,31.47,44.23,30.96z"/>
			</defs>
			<clipPath id="SVGID_6_">
				<use xlink:href="#SVGID_5_"  style="overflow:visible;"/>
			</clipPath>
			<g class="st8">
				<path class="st2" d="M15.17,33.77l20.44-11.88c0,1.64,0.34,3.07,0.95,4.31L16.12,38.08C15.51,36.84,15.16,35.41,15.17,33.77"/>
				<path class="st3" d="M16.12,38.08l20.44-11.88c0.38,0.78,0.88,1.48,1.46,2.11L17.58,40.19C17,39.56,16.5,38.86,16.12,38.08"/>
				<path class="st4" d="M17.58,40.19l20.44-11.88c0.71,0.76,1.55,1.42,2.49,1.96c1.56,0.9,2.85,1.2,3.73,0.69L23.8,42.84
					c-0.88,0.51-2.17,0.21-3.73-0.69C19.13,41.61,18.28,40.96,17.58,40.19"/>
			</g>
		</g>
		<g class="st0">
			<defs>
				<path id="SVGID_7_" class="st0" d="M41.51,26.82L21.07,38.7c0.26-0.15,0.41-0.53,0.41-1.19l20.44-11.88
					C41.91,26.29,41.76,26.67,41.51,26.82z"/>
			</defs>
			<clipPath id="SVGID_8_">
				<use xlink:href="#SVGID_7_"  style="overflow:visible;"/>
			</clipPath>
			<g class="st9">
				<path class="st2" d="M21.48,37.51l20.44-11.88c0,0.07,0,0.14-0.01,0.2L21.47,37.71C21.47,37.64,21.48,37.58,21.48,37.51"/>
				<path class="st3" d="M21.47,37.71l20.44-11.88c-0.02,0.39-0.1,0.67-0.23,0.84L21.24,38.54C21.37,38.37,21.45,38.1,21.47,37.71"
					/>
				<path class="st4" d="M21.24,38.54l20.44-11.88c-0.05,0.07-0.11,0.12-0.17,0.16L21.07,38.7C21.13,38.66,21.19,38.61,21.24,38.54"
					/>
			</g>
		</g>
		<g>
			<polygon class="st6" points="15.19,25.93 35.63,14.06 35.61,21.89 15.17,33.77 			"/>
		</g>
		<g>
			<polygon class="st7" points="25.29,44.91 45.73,33.03 49.53,35.22 29.09,47.1 			"/>
		</g>
		<g>
			<polygon class="st6" points="252.01,430.11 272.45,418.24 272.44,420.68 252,432.56 			"/>
		</g>
		<g>
			<polygon class="st6" points="21.5,29.58 41.94,17.7 41.92,25.63 21.48,37.51 			"/>
		</g>
		<g>
			<polygon class="st10" points="30.55,44.34 50.98,32.46 52.41,36.89 31.97,48.77 			"/>
		</g>
		<g>
			<polygon class="st11" points="28.57,40.12 49.01,28.24 45.73,33.03 25.29,44.91 			"/>
		</g>
		<g>
			<polygon class="st7" points="31.97,48.77 52.41,36.89 56.29,39.13 35.85,51.01 			"/>
		</g>
		<g>
			<polygon class="st10" points="25.47,31.87 45.91,19.99 49.01,28.24 28.57,40.12 			"/>
		</g>
		<g>
			<polygon class="st6" points="252.03,421.15 272.47,409.27 272.46,411.71 252.03,423.59 			"/>
		</g>
		<path class="st6" d="M236.02,352.45l-76.58-44.21L139,320.12l76.58,44.21c1.68,0.97,3.21,1.06,4.31,0.42l20.44-11.88
			C239.23,353.52,237.71,353.43,236.02,352.45z"/>
		<path class="st7" d="M69.68,105.2c-0.4-0.23-0.79-0.47-1.18-0.72c-0.13-0.08-0.25-0.17-0.38-0.25c-0.26-0.17-0.52-0.34-0.78-0.52
			c-0.15-0.11-0.31-0.22-0.46-0.33c-0.23-0.17-0.46-0.33-0.69-0.5c-0.16-0.12-0.32-0.25-0.48-0.38c-0.22-0.17-0.43-0.34-0.65-0.51
			c-0.16-0.13-0.32-0.27-0.48-0.41c-0.21-0.18-0.42-0.35-0.62-0.53c-0.17-0.15-0.33-0.3-0.49-0.45c-0.2-0.18-0.4-0.36-0.59-0.54
			c-0.17-0.16-0.33-0.32-0.49-0.48c-0.19-0.18-0.38-0.37-0.57-0.55c-0.16-0.17-0.33-0.34-0.49-0.51c-0.18-0.19-0.37-0.38-0.55-0.57
			c-0.12-0.13-0.24-0.26-0.35-0.39c-0.28-0.3-0.55-0.61-0.82-0.92c-0.13-0.15-0.26-0.3-0.39-0.45c-0.26-0.31-0.52-0.63-0.78-0.95
			c-0.11-0.14-0.22-0.27-0.33-0.41c-0.36-0.46-0.71-0.92-1.06-1.39c-0.01-0.01-0.01-0.02-0.02-0.03c-0.34-0.46-0.67-0.93-1-1.4
			c-0.1-0.15-0.2-0.3-0.31-0.45c-0.23-0.34-0.46-0.69-0.68-1.03c-0.11-0.17-0.22-0.34-0.32-0.51c-0.22-0.36-0.44-0.72-0.66-1.09
			c-0.09-0.15-0.17-0.29-0.26-0.44c-0.29-0.51-0.58-1.02-0.86-1.53c-0.04-0.07-0.08-0.15-0.12-0.22c-0.24-0.44-0.47-0.89-0.69-1.34
			c-0.07-0.13-0.13-0.27-0.2-0.4c-0.34-0.7-0.68-1.41-0.99-2.12c-0.01-0.02-0.02-0.04-0.03-0.07c-0.31-0.7-0.59-1.41-0.86-2.12
			c-0.04-0.11-0.09-0.23-0.13-0.34c-0.26-0.7-0.5-1.39-0.73-2.09c-0.04-0.14-0.09-0.27-0.13-0.41c-0.22-0.71-0.43-1.42-0.62-2.12
			c-0.02-0.09-0.04-0.17-0.06-0.26c-0.18-0.69-0.34-1.38-0.48-2.07c-0.02-0.08-0.03-0.15-0.05-0.23c-0.14-0.71-0.26-1.41-0.36-2.11
			c-0.02-0.13-0.04-0.27-0.06-0.4c-0.09-0.69-0.16-1.37-0.21-2.05c-0.01-0.12-0.01-0.23-0.02-0.35c-0.04-0.71-0.07-1.41-0.07-2.11
			l0.04-15.21L26.74,62.83L26.7,78.04c0,0.7,0.03,1.4,0.07,2.11c0.01,0.12,0.01,0.23,0.02,0.35c0.05,0.68,0.12,1.36,0.21,2.05
			c0.02,0.13,0.04,0.27,0.06,0.4c0.1,0.7,0.22,1.4,0.36,2.11c0.02,0.08,0.03,0.15,0.05,0.23c0.14,0.69,0.3,1.38,0.48,2.07
			c0.02,0.09,0.04,0.17,0.07,0.26c0.19,0.71,0.39,1.41,0.62,2.12c0.04,0.14,0.09,0.27,0.13,0.41c0.23,0.7,0.47,1.4,0.73,2.09
			c0.04,0.11,0.09,0.23,0.13,0.34c0.27,0.71,0.56,1.42,0.87,2.13c0.01,0.02,0.02,0.04,0.03,0.06c0.31,0.71,0.64,1.42,0.99,2.12
			c0.04,0.07,0.07,0.15,0.1,0.22c0.03,0.06,0.06,0.12,0.09,0.18c0.22,0.45,0.46,0.9,0.69,1.34c0.04,0.07,0.08,0.15,0.12,0.22
			c0.28,0.52,0.57,1.03,0.86,1.53c0.09,0.15,0.17,0.29,0.26,0.44c0.22,0.36,0.44,0.73,0.66,1.09c0.11,0.17,0.22,0.34,0.33,0.51
			c0.22,0.35,0.45,0.69,0.68,1.03c0.1,0.15,0.2,0.31,0.31,0.46c0.33,0.47,0.66,0.94,1,1.4c0.01,0.01,0.01,0.02,0.02,0.03
			c0.35,0.47,0.7,0.93,1.06,1.38c0.11,0.14,0.22,0.28,0.33,0.41c0.26,0.32,0.52,0.63,0.78,0.95c0.13,0.15,0.26,0.3,0.38,0.45
			c0.27,0.31,0.54,0.62,0.82,0.92c0.08,0.09,0.16,0.18,0.24,0.27c0.04,0.04,0.07,0.08,0.11,0.11c0.18,0.19,0.36,0.38,0.55,0.57
			c0.16,0.17,0.32,0.34,0.49,0.51c0.19,0.19,0.38,0.37,0.56,0.55c0.17,0.16,0.33,0.32,0.5,0.48c0.19,0.18,0.39,0.36,0.58,0.53
			c0.17,0.15,0.33,0.3,0.5,0.45c0.2,0.18,0.41,0.35,0.62,0.52c0.16,0.14,0.32,0.28,0.49,0.41c0.21,0.18,0.43,0.34,0.65,0.51
			c0.16,0.12,0.32,0.25,0.48,0.38c0.23,0.17,0.46,0.33,0.69,0.5c0.15,0.11,0.3,0.22,0.46,0.33c0.25,0.18,0.51,0.34,0.76,0.51
			c0.13,0.09,0.27,0.18,0.4,0.27c0.39,0.25,0.78,0.49,1.18,0.71l44.54,25.72l20.44-11.88L69.68,105.2z"/>
		<path class="st4" d="M137.94,259.63c0.13,0.11,0.27,0.21,0.41,0.31c0.07,0.05,0.13,0.1,0.2,0.15c0.21,0.14,0.42,0.28,0.63,0.4
			l20.44-11.88c-0.21-0.12-0.42-0.26-0.63-0.4c-0.07-0.05-0.13-0.1-0.2-0.15c-0.14-0.1-0.27-0.2-0.41-0.31
			c-0.08-0.07-0.16-0.14-0.24-0.21c-0.12-0.1-0.24-0.2-0.35-0.31c-0.08-0.08-0.16-0.16-0.24-0.24c-0.11-0.11-0.22-0.21-0.32-0.33
			c-0.05-0.05-0.09-0.1-0.14-0.16c-0.16-0.18-0.32-0.36-0.47-0.55c-0.07-0.08-0.13-0.16-0.19-0.25c-0.13-0.17-0.26-0.34-0.38-0.52
			c-0.06-0.08-0.12-0.17-0.18-0.26c-0.14-0.21-0.27-0.42-0.4-0.63c-0.03-0.06-0.07-0.11-0.1-0.17c-0.16-0.27-0.31-0.55-0.44-0.82
			c-0.02-0.05-0.04-0.1-0.07-0.14c-0.17-0.36-0.33-0.72-0.47-1.09c-0.02-0.04-0.03-0.08-0.05-0.12c-0.14-0.38-0.26-0.76-0.36-1.13
			c-0.02-0.07-0.04-0.14-0.06-0.22c-0.09-0.37-0.17-0.75-0.22-1.12c-0.01-0.06-0.01-0.12-0.02-0.19c-0.05-0.39-0.08-0.77-0.08-1.14
			l0.09-33.01c0-0.18,0.01-0.35,0.02-0.51c0.01-0.18,0.03-0.35,0.06-0.52c0.01-0.07,0.02-0.15,0.03-0.22
			c0.04-0.23,0.1-0.45,0.16-0.66c0.01-0.02,0.01-0.03,0.02-0.05c0.06-0.19,0.14-0.37,0.22-0.53c0.03-0.06,0.06-0.11,0.09-0.17
			c0.07-0.12,0.14-0.23,0.21-0.34c0.04-0.05,0.08-0.11,0.12-0.16c0.08-0.1,0.17-0.2,0.27-0.29c0.04-0.04,0.08-0.08,0.12-0.12
			c0.14-0.12,0.28-0.23,0.44-0.32c0,0,0,0,0,0l0,0c0,0,0,0,0,0L135,213.17c-0.16,0.09-0.3,0.2-0.44,0.32
			c-0.04,0.04-0.08,0.08-0.12,0.12c-0.09,0.09-0.18,0.19-0.26,0.29c-0.02,0.03-0.05,0.05-0.07,0.07c-0.02,0.03-0.03,0.06-0.05,0.09
			c-0.08,0.11-0.14,0.22-0.21,0.34c-0.03,0.06-0.06,0.11-0.09,0.17c-0.08,0.17-0.16,0.35-0.22,0.53c-0.01,0.02-0.01,0.03-0.02,0.04
			c-0.07,0.21-0.12,0.43-0.16,0.66c-0.01,0.07-0.02,0.15-0.03,0.22c-0.03,0.17-0.05,0.34-0.06,0.52c0,0.04-0.01,0.08-0.01,0.12
			c-0.01,0.13-0.01,0.26-0.01,0.39l-0.09,33.01c0,0.37,0.03,0.76,0.08,1.14c0.01,0.06,0.01,0.13,0.02,0.19
			c0.05,0.37,0.13,0.74,0.22,1.12c0.02,0.07,0.04,0.14,0.06,0.22c0.1,0.38,0.22,0.76,0.36,1.14c0.02,0.04,0.03,0.08,0.05,0.12
			c0.14,0.37,0.3,0.73,0.47,1.09c0.02,0.03,0.03,0.06,0.04,0.1c0.01,0.02,0.02,0.03,0.03,0.05c0.14,0.28,0.29,0.55,0.44,0.82
			c0.03,0.06,0.07,0.11,0.11,0.17c0.13,0.21,0.26,0.42,0.4,0.63c0.06,0.09,0.12,0.17,0.18,0.26c0.12,0.18,0.25,0.35,0.38,0.52
			c0.06,0.08,0.13,0.17,0.19,0.25c0.15,0.19,0.31,0.37,0.47,0.54c0.04,0.04,0.07,0.09,0.11,0.13c0.01,0.01,0.02,0.02,0.03,0.03
			c0.1,0.11,0.21,0.22,0.32,0.32c0.08,0.08,0.16,0.16,0.24,0.24c0.11,0.11,0.23,0.21,0.35,0.31
			C137.78,259.49,137.86,259.56,137.94,259.63z"/>
		<g>
			<polygon class="st12" points="31.98,35.62 52.42,23.75 51.07,26.29 30.63,38.17 			"/>
		</g>
		<g>
			<polygon class="st7" points="252,432.56 272.44,420.68 288.76,430.1 268.32,441.98 			"/>
		</g>
		<g>
			<polygon class="st6" points="252.06,412.18 272.5,400.3 272.49,402.75 252.05,414.63 			"/>
		</g>
		<path class="st2" d="M65.06,46.96c0.05-0.1,0.09-0.21,0.14-0.31c0.23-0.5,0.44-1.02,0.61-1.57c0.01-0.02,0.01-0.05,0.02-0.07
			c0.17-0.54,0.31-1.11,0.44-1.7c0.03-0.12,0.05-0.24,0.08-0.36c0.12-0.6,0.21-1.22,0.27-1.87c0.01-0.12,0.02-0.25,0.03-0.38
			c0.02-0.25,0.05-0.5,0.06-0.76c0.02-0.44,0.04-0.88,0.04-1.33c0-0.76-0.03-1.54-0.09-2.32c-0.02-0.25-0.05-0.51-0.08-0.77
			c-0.05-0.53-0.11-1.06-0.19-1.6c-0.05-0.3-0.1-0.6-0.15-0.91c-0.09-0.5-0.18-1-0.29-1.5c-0.07-0.31-0.14-0.63-0.22-0.94
			c-0.12-0.51-0.26-1.01-0.4-1.52c-0.09-0.3-0.17-0.6-0.26-0.9c-0.17-0.55-0.36-1.1-0.55-1.65c-0.09-0.25-0.17-0.5-0.26-0.75
			c-0.3-0.8-0.61-1.59-0.96-2.37c-0.03-0.06-0.06-0.12-0.08-0.18c-0.29-0.65-0.59-1.31-0.91-1.95c-0.04-0.08-0.09-0.17-0.13-0.25
			c-0.07-0.14-0.14-0.27-0.21-0.41c-0.34-0.66-0.69-1.31-1.05-1.95c-0.06-0.11-0.12-0.21-0.18-0.32c-0.41-0.7-0.83-1.39-1.27-2.07
			c-0.1-0.15-0.2-0.3-0.3-0.45c-0.45-0.69-0.92-1.37-1.41-2.02c-0.01-0.01-0.02-0.02-0.02-0.03c-0.48-0.65-0.98-1.28-1.49-1.9
			c-0.11-0.14-0.22-0.27-0.34-0.41c-0.47-0.56-0.94-1.11-1.43-1.63c-0.05-0.05-0.1-0.1-0.15-0.15c-0.06-0.07-0.12-0.13-0.18-0.19
			C53.57,8.86,53,8.29,52.41,7.74c-0.05-0.05-0.11-0.1-0.16-0.15c-0.6-0.55-1.2-1.09-1.82-1.59c-0.04-0.03-0.08-0.06-0.12-0.1
			c-0.64-0.51-1.28-1-1.94-1.46c-0.02-0.02-0.05-0.03-0.07-0.05c-0.67-0.47-1.36-0.9-2.05-1.3c-4.29-2.48-8.28-3.27-11.58-2.59
			c-1.1,0.23-2.13,0.61-3.06,1.16L11.17,13.53c3.74-2.17,8.92-1.87,14.64,1.44c0.69,0.4,1.37,0.84,2.05,1.3
			c0.02,0.02,0.05,0.03,0.07,0.05c0.65,0.46,1.3,0.94,1.93,1.46c0.04,0.03,0.08,0.06,0.12,0.1c0.62,0.5,1.23,1.04,1.82,1.59
			c0.05,0.05,0.11,0.1,0.16,0.15c0.58,0.55,1.15,1.12,1.71,1.71c0.06,0.07,0.12,0.13,0.19,0.2c0.54,0.58,1.06,1.17,1.58,1.79
			c0.11,0.14,0.23,0.27,0.34,0.41c0.51,0.62,1.01,1.26,1.49,1.91c0.01,0.01,0.01,0.01,0.02,0.02c0.49,0.66,0.95,1.34,1.41,2.03
			c0.1,0.15,0.2,0.3,0.3,0.45c0.44,0.68,0.87,1.37,1.27,2.07c0.06,0.11,0.12,0.21,0.18,0.32c0.37,0.64,0.72,1.29,1.06,1.95
			c0.07,0.14,0.14,0.27,0.21,0.41c0.36,0.73,0.71,1.46,1.03,2.2c0.03,0.06,0.06,0.12,0.08,0.18c0.34,0.79,0.66,1.58,0.96,2.37
			c0.09,0.25,0.17,0.5,0.26,0.75c0.19,0.55,0.38,1.1,0.55,1.65c0.09,0.3,0.18,0.6,0.26,0.9c0.14,0.51,0.28,1.01,0.4,1.52
			c0.08,0.31,0.15,0.63,0.22,0.94c0.11,0.5,0.21,1,0.29,1.5c0.05,0.3,0.11,0.6,0.15,0.91c0.08,0.54,0.14,1.07,0.19,1.6
			c0.03,0.26,0.06,0.51,0.08,0.77c0.06,0.78,0.1,1.55,0.09,2.32c0,0.73-0.04,1.42-0.1,2.1c-0.01,0.12-0.02,0.25-0.03,0.38
			c-0.07,0.65-0.16,1.27-0.27,1.87c-0.02,0.12-0.05,0.24-0.08,0.36c-0.12,0.59-0.27,1.16-0.44,1.7c-0.01,0.02-0.01,0.05-0.02,0.07
			c-0.18,0.55-0.39,1.07-0.61,1.57c-0.05,0.1-0.09,0.21-0.14,0.31c-0.23,0.48-0.48,0.93-0.75,1.36c-0.05,0.07-0.1,0.14-0.14,0.21
			c-0.26,0.39-0.53,0.75-0.82,1.09c-0.05,0.06-0.1,0.12-0.15,0.18c-0.32,0.36-0.67,0.69-1.03,0.99c-0.08,0.07-0.16,0.13-0.24,0.2
			c-0.38,0.3-0.76,0.58-1.17,0.82L60.75,51.8c0.41-0.24,0.8-0.52,1.18-0.82c0.08-0.07,0.16-0.13,0.24-0.2
			c0.36-0.3,0.7-0.63,1.03-0.99c0.05-0.06,0.1-0.12,0.15-0.18c0.15-0.18,0.31-0.36,0.45-0.55c0.13-0.17,0.25-0.36,0.37-0.54
			c0.05-0.07,0.1-0.14,0.14-0.21C64.58,47.89,64.83,47.44,65.06,46.96z"/>
		<path class="st4" d="M116.74,166.27l20.44-11.88c-0.28-0.16-0.55-0.35-0.81-0.56c-0.09-0.07-0.17-0.16-0.25-0.23
			c-0.17-0.15-0.34-0.3-0.5-0.47c-0.04-0.04-0.07-0.09-0.11-0.14c-0.23-0.26-0.45-0.53-0.65-0.81c-0.08-0.11-0.15-0.22-0.22-0.33
			c-0.15-0.24-0.3-0.48-0.43-0.73c-0.08-0.15-0.15-0.29-0.22-0.44c-0.05-0.12-0.11-0.24-0.16-0.36c-0.08-0.19-0.15-0.38-0.21-0.58
			c-0.04-0.12-0.08-0.23-0.11-0.35c-0.06-0.21-0.1-0.42-0.14-0.62c-0.02-0.1-0.05-0.2-0.06-0.3c-0.05-0.31-0.07-0.61-0.07-0.9
			l0.01-4.75c0-0.3,0.03-0.58,0.08-0.84c0.01-0.03,0.02-0.06,0.02-0.1c0.05-0.21,0.11-0.41,0.19-0.58c0.01-0.03,0.02-0.06,0.04-0.09
			c0.09-0.18,0.2-0.34,0.32-0.49c0.03-0.03,0.06-0.06,0.08-0.09c0.13-0.14,0.27-0.26,0.43-0.35l-20.44,11.88
			c-0.16,0.09-0.3,0.22-0.43,0.35c-0.03,0.03-0.06,0.06-0.08,0.09c-0.02,0.03-0.05,0.05-0.07,0.08c-0.09,0.12-0.17,0.26-0.24,0.41
			c-0.01,0.03-0.03,0.06-0.04,0.09c-0.08,0.18-0.14,0.37-0.19,0.59c-0.01,0.03-0.02,0.06-0.02,0.1c-0.04,0.18-0.06,0.37-0.07,0.58
			c0,0.08-0.01,0.17-0.01,0.26l-0.01,4.75c0,0.29,0.03,0.6,0.07,0.9c0.01,0.1,0.04,0.2,0.06,0.3c0.04,0.21,0.08,0.42,0.14,0.62
			c0.03,0.12,0.07,0.23,0.11,0.35c0.06,0.19,0.13,0.38,0.21,0.58c0.05,0.12,0.1,0.24,0.16,0.36c0.04,0.08,0.06,0.16,0.1,0.24
			c0.04,0.07,0.08,0.13,0.12,0.2c0.13,0.25,0.28,0.49,0.43,0.73c0.07,0.11,0.14,0.23,0.22,0.33c0.2,0.29,0.42,0.56,0.65,0.81
			c0.03,0.04,0.06,0.08,0.09,0.12c0.01,0.01,0.01,0.01,0.02,0.02c0.16,0.17,0.33,0.32,0.5,0.47c0.08,0.08,0.16,0.16,0.25,0.23
			C116.2,165.92,116.47,166.11,116.74,166.27z"/>
		<g>
			<polygon class="st6" points="252.18,369.79 272.62,357.92 272.61,360.36 252.17,372.24 			"/>
		</g>
		<path class="st6" d="M162.6,169.06l-25.42-14.67l-20.44,11.88l25.42,14.67c0.55,0.32,1.08,0.49,1.55,0.53
			c0.48,0.04,0.91-0.05,1.27-0.26l20.44-11.88C164.7,169.76,163.7,169.7,162.6,169.06z"/>
		<g>
			<polygon class="st6" points="252.2,360.82 272.64,348.94 272.64,351.39 252.2,363.27 			"/>
		</g>
		<path class="st6" d="M236.19,292.82l-76.58-44.21l-20.44,11.88l76.58,44.21c1.68,0.97,3.21,1.06,4.31,0.42l20.44-11.88
			C239.4,293.89,237.88,293.8,236.19,292.82z"/>
		<g>
			<polygon class="st6" points="252.23,351.86 272.67,339.98 272.66,342.42 252.22,354.3 			"/>
		</g>
		<path class="st4" d="M169.57,196.76L190,184.88c-0.25-0.14-0.49-0.32-0.73-0.51c-0.08-0.06-0.15-0.14-0.23-0.21
			c-0.15-0.14-0.31-0.27-0.45-0.42c-0.04-0.04-0.07-0.08-0.1-0.12c-0.21-0.23-0.4-0.48-0.58-0.73c-0.07-0.1-0.13-0.2-0.2-0.3
			c-0.14-0.22-0.27-0.44-0.39-0.66c-0.07-0.13-0.14-0.26-0.2-0.4c-0.05-0.11-0.1-0.21-0.14-0.32c-0.07-0.17-0.13-0.35-0.19-0.52
			c-0.04-0.11-0.07-0.21-0.1-0.32c-0.05-0.19-0.09-0.38-0.13-0.56c-0.02-0.09-0.04-0.18-0.05-0.27c-0.04-0.28-0.07-0.55-0.07-0.81
			l0.02-5.64c0-0.15,0.03-0.28,0.04-0.42c0.02-0.2,0.05-0.39,0.1-0.56c0.02-0.09,0.05-0.18,0.08-0.26c0.06-0.16,0.14-0.3,0.22-0.43
			c0.05-0.07,0.09-0.15,0.14-0.22c0.02-0.03,0.05-0.06,0.08-0.08c0.12-0.12,0.24-0.24,0.39-0.32l-20.44,11.88
			c-0.14,0.08-0.27,0.19-0.39,0.32c-0.03,0.03-0.05,0.05-0.08,0.08c-0.02,0.03-0.05,0.05-0.07,0.07c-0.03,0.04-0.04,0.1-0.07,0.14
			c-0.08,0.13-0.16,0.27-0.22,0.43c-0.03,0.08-0.06,0.17-0.08,0.26c-0.05,0.17-0.08,0.36-0.1,0.56c-0.01,0.07-0.03,0.12-0.03,0.19
			c0,0.08-0.01,0.15-0.01,0.23l-0.02,5.64c0,0.27,0.02,0.54,0.07,0.81c0.01,0.09,0.04,0.18,0.05,0.27c0.04,0.19,0.08,0.37,0.13,0.56
			c0.03,0.11,0.07,0.21,0.1,0.32c0.06,0.17,0.12,0.35,0.19,0.52c0.04,0.11,0.09,0.21,0.14,0.32c0.03,0.07,0.06,0.14,0.09,0.21
			c0.03,0.06,0.07,0.12,0.11,0.18c0.12,0.23,0.25,0.45,0.39,0.66c0.07,0.1,0.13,0.2,0.2,0.3c0.18,0.26,0.38,0.5,0.58,0.74
			c0.03,0.03,0.05,0.07,0.08,0.11c0.01,0.01,0.01,0.01,0.02,0.02c0.14,0.16,0.3,0.29,0.45,0.43c0.08,0.07,0.15,0.15,0.22,0.21
			C169.07,196.44,169.32,196.62,169.57,196.76z"/>
		<g>
			<polygon class="st7" points="252.03,423.59 272.46,411.71 359.02,461.68 338.58,473.56 			"/>
		</g>
		<g>
			<polygon class="st7" points="252.05,414.63 272.49,402.75 352.66,449.03 332.22,460.91 			"/>
		</g>
		<g>
			<polygon class="st6" points="252.35,307.84 272.79,295.96 272.79,298.4 252.35,310.28 			"/>
		</g>
		<g>
			<polygon class="st7" points="252.17,372.24 272.61,360.36 342.13,400.5 321.69,412.38 			"/>
		</g>
		<g>
			<polygon class="st7" points="252.2,363.27 272.64,351.39 355.64,399.31 335.2,411.19 			"/>
		</g>
		<g>
			<polygon class="st7" points="252.22,354.3 272.66,342.42 317.35,368.22 296.91,380.1 			"/>
		</g>
		<g>
			<polygon class="st6" points="252.38,298.87 272.82,286.99 272.81,289.44 252.37,301.32 			"/>
		</g>
		<g>
			<polygon class="st6" points="252.4,289.91 272.84,278.03 272.84,280.47 252.4,292.35 			"/>
		</g>
		<g>
			<polygon class="st7" points="252.35,310.28 272.79,298.4 328.83,330.76 308.39,342.64 			"/>
		</g>
		<g>
			<polygon class="st7" points="252.37,301.32 272.81,289.44 355.81,337.36 335.37,349.24 			"/>
		</g>
		<path class="st6" d="M401.16,454.99l-0.24,85.87c0,0.56-0.03,1.09-0.08,1.6c-0.01,0.1-0.01,0.19-0.02,0.29
			c-0.05,0.49-0.12,0.97-0.21,1.43c-0.02,0.09-0.04,0.18-0.06,0.28c-0.1,0.45-0.2,0.89-0.34,1.3c-0.01,0.02-0.01,0.03-0.01,0.05
			c-0.14,0.42-0.3,0.82-0.47,1.2c-0.04,0.08-0.07,0.16-0.11,0.24c-0.18,0.37-0.37,0.71-0.57,1.04c-0.04,0.05-0.07,0.11-0.11,0.16
			c-0.2,0.29-0.41,0.57-0.63,0.83c-0.04,0.04-0.07,0.09-0.11,0.14c-0.25,0.28-0.51,0.53-0.78,0.76c-0.06,0.05-0.12,0.1-0.19,0.15
			c-0.29,0.23-0.58,0.44-0.9,0.62c0,0,0,0,0,0l0,0c0,0,0,0,0,0l20.44-11.88c0.31-0.18,0.61-0.4,0.9-0.63
			c0.06-0.05,0.13-0.1,0.19-0.15c0.28-0.23,0.54-0.48,0.78-0.76c0.04-0.04,0.07-0.09,0.11-0.13c0.12-0.14,0.24-0.27,0.35-0.42
			c0.1-0.13,0.19-0.27,0.28-0.41c0.04-0.05,0.07-0.11,0.11-0.16c0.21-0.33,0.4-0.67,0.57-1.04c0.04-0.08,0.07-0.16,0.11-0.24
			c0.17-0.38,0.33-0.78,0.47-1.2c0.01-0.02,0.01-0.03,0.01-0.05c0.13-0.41,0.24-0.85,0.34-1.3c0.02-0.09,0.04-0.18,0.06-0.28
			c0.09-0.46,0.16-0.93,0.21-1.43c0.01-0.09,0.02-0.19,0.02-0.29c0.02-0.2,0.04-0.39,0.05-0.59c0.02-0.33,0.03-0.67,0.03-1.02
			l0.24-85.87L401.16,454.99z"/>
		<g>
			<polygon class="st7" points="252.4,292.35 272.84,280.47 365.77,334.13 345.33,346.01 			"/>
		</g>
		<path class="st2" d="M472.74,543.67c-0.39-0.23-0.79-0.47-1.18-0.71c-0.13-0.08-0.26-0.18-0.39-0.26
			c-0.26-0.17-0.51-0.34-0.77-0.51c-0.15-0.11-0.31-0.22-0.46-0.33c-0.23-0.16-0.46-0.33-0.69-0.5c-0.16-0.12-0.32-0.25-0.48-0.37
			c-0.22-0.17-0.44-0.34-0.65-0.51c-0.16-0.13-0.32-0.27-0.48-0.4c-0.21-0.18-0.42-0.35-0.63-0.53c-0.16-0.14-0.32-0.29-0.48-0.44
			c-0.2-0.18-0.4-0.36-0.6-0.55c-0.16-0.15-0.32-0.31-0.48-0.47c-0.19-0.19-0.39-0.37-0.58-0.57c-0.16-0.16-0.32-0.33-0.48-0.5
			c-0.19-0.19-0.37-0.38-0.56-0.58c-0.12-0.13-0.23-0.26-0.35-0.38c-0.28-0.3-0.55-0.61-0.82-0.92c-0.13-0.15-0.26-0.3-0.38-0.45
			c-0.26-0.31-0.52-0.63-0.78-0.95c-0.11-0.14-0.22-0.27-0.33-0.41c-0.36-0.46-0.71-0.92-1.06-1.39c-0.01-0.01-0.01-0.01-0.01-0.02
			c-0.34-0.46-0.67-0.93-1-1.41c-0.1-0.15-0.2-0.3-0.3-0.45c-0.23-0.34-0.46-0.69-0.68-1.04c-0.11-0.17-0.22-0.34-0.32-0.51
			c-0.22-0.36-0.45-0.72-0.66-1.09c-0.09-0.15-0.17-0.29-0.26-0.44c-0.29-0.51-0.58-1.02-0.86-1.53c-0.04-0.08-0.08-0.15-0.12-0.23
			c-0.24-0.44-0.47-0.89-0.69-1.34c-0.07-0.13-0.13-0.27-0.2-0.41c-0.34-0.7-0.68-1.41-0.99-2.12c-0.01-0.02-0.02-0.04-0.03-0.07
			c-0.31-0.7-0.59-1.41-0.86-2.12c-0.04-0.11-0.09-0.23-0.13-0.34c-0.26-0.7-0.5-1.39-0.73-2.09c-0.04-0.14-0.09-0.27-0.13-0.41
			c-0.22-0.71-0.43-1.42-0.62-2.12c-0.02-0.09-0.04-0.17-0.06-0.26c-0.18-0.69-0.34-1.38-0.48-2.07c-0.02-0.08-0.03-0.15-0.05-0.23
			c-0.14-0.71-0.26-1.41-0.36-2.11c-0.02-0.13-0.04-0.27-0.06-0.4c-0.09-0.69-0.16-1.37-0.21-2.05c-0.01-0.12-0.01-0.23-0.02-0.35
			c-0.04-0.71-0.07-1.41-0.07-2.11l0.05-18.94c0-0.8-0.03-1.62-0.08-2.44c-0.01-0.13-0.01-0.27-0.02-0.4
			c-0.06-0.79-0.14-1.58-0.25-2.37c-0.02-0.15-0.04-0.31-0.07-0.46c-0.12-0.81-0.25-1.62-0.41-2.44c-0.02-0.09-0.04-0.18-0.06-0.27
			c-0.16-0.79-0.35-1.59-0.55-2.39c-0.03-0.1-0.05-0.2-0.08-0.3c-0.22-0.82-0.46-1.64-0.71-2.45c-0.05-0.16-0.1-0.32-0.15-0.47
			c-0.26-0.81-0.54-1.62-0.85-2.42c-0.05-0.13-0.1-0.27-0.15-0.4c-0.32-0.82-0.65-1.64-1-2.46c-0.01-0.02-0.02-0.05-0.03-0.07
			c-0.36-0.83-0.75-1.64-1.14-2.46c-0.04-0.08-0.08-0.17-0.12-0.26c-0.03-0.07-0.07-0.14-0.11-0.21c-0.26-0.52-0.53-1.04-0.81-1.56
			c-0.04-0.08-0.09-0.17-0.13-0.25c-0.32-0.6-0.66-1.19-1-1.78c-0.1-0.17-0.2-0.33-0.3-0.5c-0.25-0.42-0.51-0.85-0.77-1.26
			c-0.12-0.2-0.25-0.39-0.37-0.59c-0.26-0.4-0.52-0.8-0.79-1.2c-0.12-0.18-0.23-0.35-0.35-0.53c-0.38-0.55-0.76-1.09-1.16-1.63
			c-0.01-0.01-0.01-0.02-0.02-0.02c-0.4-0.54-0.81-1.07-1.22-1.6c-0.13-0.16-0.26-0.32-0.39-0.48c-0.3-0.37-0.59-0.73-0.9-1.09
			c-0.15-0.17-0.3-0.35-0.44-0.52c-0.31-0.36-0.63-0.72-0.95-1.07c-0.09-0.1-0.19-0.21-0.28-0.31c-0.04-0.04-0.08-0.09-0.13-0.13
			c-0.21-0.23-0.43-0.45-0.64-0.67c-0.19-0.19-0.37-0.39-0.56-0.58c-0.22-0.22-0.44-0.43-0.66-0.65c-0.19-0.18-0.38-0.37-0.57-0.55
			c-0.23-0.21-0.46-0.42-0.68-0.63c-0.19-0.17-0.38-0.35-0.57-0.52c-0.24-0.21-0.48-0.41-0.72-0.61c-0.19-0.16-0.37-0.32-0.56-0.47
			c-0.25-0.2-0.5-0.4-0.75-0.59c-0.18-0.14-0.37-0.29-0.55-0.43c-0.26-0.2-0.53-0.39-0.8-0.58c-0.18-0.13-0.35-0.26-0.52-0.38
			c-0.3-0.21-0.61-0.41-0.92-0.61c-0.14-0.09-0.28-0.19-0.42-0.28c-0.45-0.29-0.91-0.56-1.36-0.83l-2.57-1.48l-20.44,11.88
			l2.57,1.48c0.46,0.26,0.91,0.54,1.36,0.83c0.14,0.09,0.28,0.19,0.42,0.28c0.31,0.2,0.62,0.4,0.92,0.61
			c0.18,0.12,0.35,0.25,0.52,0.38c0.27,0.19,0.54,0.38,0.8,0.58c0.19,0.14,0.37,0.29,0.55,0.43c0.25,0.2,0.5,0.39,0.75,0.59
			c0.19,0.15,0.37,0.32,0.56,0.47c0.24,0.2,0.48,0.4,0.72,0.61c0.19,0.17,0.38,0.34,0.57,0.52c0.23,0.21,0.46,0.41,0.68,0.63
			c0.19,0.18,0.38,0.37,0.57,0.55c0.22,0.21,0.44,0.43,0.66,0.65c0.19,0.19,0.37,0.39,0.56,0.58c0.21,0.22,0.43,0.44,0.64,0.67
			c0.14,0.15,0.27,0.3,0.41,0.45c0.32,0.35,0.64,0.71,0.95,1.07c0.15,0.17,0.3,0.35,0.44,0.52c0.3,0.36,0.6,0.72,0.9,1.09
			c0.13,0.16,0.26,0.32,0.39,0.48c0.42,0.53,0.82,1.06,1.22,1.6c0.01,0.01,0.01,0.02,0.02,0.02c0.39,0.53,0.78,1.08,1.16,1.63
			c0.12,0.17,0.24,0.35,0.36,0.53c0.27,0.4,0.53,0.79,0.79,1.19c0.13,0.2,0.25,0.39,0.37,0.59c0.26,0.42,0.52,0.84,0.77,1.26
			c0.1,0.17,0.2,0.33,0.3,0.5c0.34,0.59,0.67,1.18,1,1.77c0.05,0.08,0.09,0.17,0.13,0.25c0.28,0.52,0.54,1.03,0.8,1.56
			c0.08,0.15,0.15,0.31,0.23,0.47c0.4,0.81,0.78,1.63,1.14,2.46c0.01,0.02,0.02,0.05,0.03,0.07c0.35,0.81,0.68,1.63,1,2.45
			c0.05,0.13,0.11,0.27,0.16,0.4c0.3,0.8,0.58,1.61,0.85,2.42c0.05,0.16,0.1,0.32,0.15,0.48c0.26,0.82,0.5,1.64,0.71,2.45
			c0.03,0.1,0.05,0.2,0.08,0.3c0.21,0.8,0.39,1.59,0.55,2.39c0.02,0.09,0.04,0.18,0.06,0.27c0.16,0.82,0.3,1.63,0.41,2.44
			c0.02,0.16,0.04,0.31,0.07,0.47c0.11,0.8,0.19,1.59,0.25,2.37c0.01,0.13,0.02,0.27,0.02,0.4c0.05,0.82,0.09,1.64,0.08,2.44
			l-0.05,18.94c0,0.7,0.03,1.4,0.07,2.11c0.01,0.12,0.01,0.23,0.02,0.35c0.05,0.68,0.12,1.36,0.21,2.05
			c0.02,0.13,0.04,0.27,0.06,0.4c0.1,0.7,0.22,1.4,0.36,2.11c0.02,0.08,0.03,0.15,0.05,0.23c0.14,0.69,0.3,1.37,0.48,2.06
			c0.02,0.09,0.04,0.17,0.06,0.26c0.19,0.71,0.39,1.41,0.62,2.12c0.04,0.14,0.09,0.27,0.13,0.41c0.23,0.7,0.47,1.4,0.73,2.09
			c0.04,0.11,0.09,0.23,0.13,0.34c0.27,0.71,0.56,1.42,0.86,2.12c0.01,0.02,0.02,0.04,0.03,0.07c0.31,0.71,0.64,1.42,0.99,2.12
			c0.04,0.07,0.07,0.15,0.1,0.22c0.03,0.06,0.06,0.12,0.09,0.18c0.22,0.45,0.45,0.89,0.69,1.34c0.04,0.08,0.08,0.15,0.12,0.23
			c0.28,0.52,0.57,1.03,0.86,1.53c0.09,0.15,0.17,0.29,0.26,0.44c0.22,0.36,0.44,0.73,0.66,1.09c0.11,0.17,0.21,0.34,0.32,0.51
			c0.22,0.35,0.45,0.69,0.68,1.04c0.1,0.15,0.2,0.3,0.3,0.45c0.33,0.48,0.66,0.95,1,1.41c0.01,0.01,0.01,0.01,0.01,0.02
			c0.35,0.47,0.7,0.93,1.06,1.38c0.11,0.14,0.22,0.28,0.33,0.41c0.26,0.32,0.52,0.63,0.78,0.94c0.13,0.15,0.26,0.3,0.39,0.45
			c0.27,0.31,0.54,0.62,0.82,0.92c0.08,0.09,0.16,0.19,0.24,0.27c0.04,0.04,0.07,0.08,0.11,0.11c0.18,0.19,0.37,0.38,0.55,0.58
			c0.16,0.17,0.32,0.34,0.49,0.5c0.19,0.19,0.38,0.37,0.57,0.56c0.16,0.16,0.32,0.32,0.49,0.47c0.2,0.18,0.39,0.36,0.59,0.54
			c0.16,0.15,0.33,0.3,0.49,0.45c0.2,0.18,0.41,0.35,0.62,0.53c0.16,0.14,0.32,0.28,0.49,0.41c0.21,0.17,0.43,0.34,0.65,0.51
			c0.16,0.13,0.32,0.26,0.48,0.38c0.22,0.17,0.45,0.33,0.68,0.49c0.16,0.11,0.31,0.23,0.47,0.34c0.25,0.18,0.51,0.34,0.76,0.51
			c0.13,0.09,0.27,0.18,0.4,0.27c0.39,0.25,0.78,0.49,1.18,0.71l43.79,25.28l20.44-11.88L472.74,543.67z"/>
		<g>
			<polygon class="st13" points="505.28,589.57 525.72,577.69 532.82,589.98 512.38,601.86 			"/>
		</g>
		<g class="st0">
			<defs>
				<path id="SVGID_9_" class="st0" d="M512.38,601.86l20.44-11.88c0.27,0.46,0.62,0.82,0.97,1.02c0.35,0.2,0.71,0.25,0.98,0.1
					l-20.44,11.88c-0.27,0.15-0.63,0.1-0.98-0.1S512.64,602.32,512.38,601.86z"/>
			</defs>
			<clipPath id="SVGID_10_">
				<use xlink:href="#SVGID_9_"  style="overflow:visible;"/>
			</clipPath>
			<g class="st14">
				<path class="st3" d="M512.38,601.86l20.44-11.88c0.12,0.22,0.27,0.41,0.42,0.57l-20.44,11.88
					C512.64,602.27,512.5,602.08,512.38,601.86"/>
				<path class="st4" d="M512.8,602.43l20.44-11.88c0.17,0.19,0.36,0.34,0.55,0.45c0.35,0.2,0.71,0.25,0.98,0.1l-20.44,11.88
					c-0.27,0.15-0.63,0.1-0.98-0.1C513.16,602.77,512.97,602.62,512.8,602.43"/>
			</g>
		</g>
		<g class="st0">
			<defs>
				<path id="SVGID_11_" class="st0" d="M505.29,587.33l20.44-11.88c-0.55,0.3-0.55,1.31-0.01,2.24l-20.44,11.88
					C504.74,588.64,504.74,587.63,505.29,587.33z"/>
			</defs>
			<clipPath id="SVGID_12_">
				<use xlink:href="#SVGID_11_"  style="overflow:visible;"/>
			</clipPath>
			<g class="st15">
				<path class="st4" d="M505.29,587.33l20.44-11.88c-0.08,0.05-0.16,0.11-0.21,0.19l-20.44,11.88
					C505.13,587.44,505.2,587.38,505.29,587.33"/>
				<path class="st3" d="M505.07,587.52l20.44-11.88c-0.12,0.15-0.18,0.36-0.19,0.61l-20.44,11.88
					C504.89,587.89,504.96,587.68,505.07,587.52"/>
				<path class="st2" d="M504.88,588.13l20.44-11.88c-0.02,0.37,0.08,0.8,0.29,1.24l-20.44,11.88
					C504.96,588.93,504.86,588.49,504.88,588.13"/>
				<path class="st3" d="M505.17,589.37l20.44-11.88c0.03,0.07,0.07,0.14,0.11,0.2l-20.44,11.88
					C505.24,589.5,505.21,589.44,505.17,589.37"/>
			</g>
		</g>
		<g class="st0">
			<defs>
				<path id="SVGID_13_" class="st0" d="M519.15,603.53l20.44-11.88c-0.54,0.31-0.54,1.31-0.01,2.24c0.27,0.47,0.62,0.82,0.98,1.03
					c0.35,0.2,0.71,0.25,0.98,0.1L521.1,606.9c-0.27,0.15-0.63,0.1-0.98-0.1c-0.35-0.2-0.7-0.56-0.98-1.03
					C518.61,604.84,518.61,603.84,519.15,603.53z"/>
			</defs>
			<clipPath id="SVGID_14_">
				<use xlink:href="#SVGID_13_"  style="overflow:visible;"/>
			</clipPath>
			<g class="st16">
				<path class="st4" d="M519.15,603.53l20.44-11.88c-0.08,0.05-0.15,0.11-0.21,0.18l-20.44,11.88
					C519,603.64,519.07,603.58,519.15,603.53"/>
				<path class="st3" d="M518.94,603.71l20.44-11.88c-0.12,0.16-0.18,0.37-0.2,0.61l-20.44,11.88
					C518.76,604.08,518.83,603.87,518.94,603.71"/>
				<path class="st2" d="M518.75,604.33l20.44-11.88c-0.02,0.37,0.08,0.81,0.3,1.25l-20.44,11.88
					C518.83,605.14,518.73,604.7,518.75,604.33"/>
				<path class="st3" d="M519.04,605.58l20.44-11.88c0.03,0.06,0.07,0.13,0.1,0.19c0.13,0.22,0.27,0.41,0.42,0.57l-20.44,11.88
					c-0.15-0.16-0.3-0.36-0.42-0.57C519.11,605.7,519.07,605.64,519.04,605.58"/>
				<path class="st4" d="M519.57,606.34l20.44-11.88c0.18,0.19,0.36,0.34,0.55,0.45c0.35,0.2,0.71,0.25,0.98,0.1L521.1,606.9
					c-0.27,0.15-0.63,0.1-0.98-0.1C519.93,606.69,519.74,606.53,519.57,606.34"/>
			</g>
		</g>
		<g>
			<polygon class="st17" points="508.2,590.14 528.64,578.26 534.93,574.68 514.49,586.56 			"/>
		</g>
		<g>
			<polygon class="st13" points="519.08,589.21 539.52,577.33 545.76,588.14 525.32,600.02 			"/>
		</g>
		<g>
			<polygon class="st17" points="521.1,606.9 541.54,595.02 548.68,590.95 528.24,602.83 			"/>
		</g>
		<g class="st0">
			<defs>
				<path id="SVGID_15_" class="st0" d="M519.09,586.97l20.44-11.88c-0.55,0.3-0.55,1.31-0.01,2.24l-20.44,11.88
					C518.54,588.28,518.54,587.28,519.09,586.97z"/>
			</defs>
			<clipPath id="SVGID_16_">
				<use xlink:href="#SVGID_15_"  style="overflow:visible;"/>
			</clipPath>
			<g class="st18">
				<path class="st4" d="M519.09,586.97l20.44-11.88c-0.08,0.05-0.16,0.11-0.21,0.19l-20.44,11.88
					C518.93,587.09,519.01,587.02,519.09,586.97"/>
				<path class="st3" d="M518.88,587.16l20.44-11.88c-0.12,0.15-0.18,0.36-0.19,0.61l-20.44,11.88
					C518.69,587.53,518.76,587.32,518.88,587.16"/>
				<path class="st2" d="M518.68,587.77l20.44-11.88c-0.02,0.37,0.08,0.8,0.29,1.24l-20.44,11.88
					C518.76,588.57,518.66,588.14,518.68,587.77"/>
				<path class="st3" d="M518.98,589.01l20.44-11.88c0.03,0.07,0.07,0.14,0.11,0.2l-20.44,11.88
					C519.05,589.14,519.01,589.08,518.98,589.01"/>
			</g>
		</g>
		<path class="st2" d="M555.9,603.06c0.05-0.1,0.09-0.21,0.14-0.31c0.23-0.5,0.44-1.02,0.61-1.57c0.01-0.02,0.01-0.04,0.02-0.07
			c0.17-0.54,0.31-1.11,0.44-1.7c0.03-0.12,0.05-0.24,0.08-0.36c0.12-0.6,0.21-1.22,0.27-1.87c0.01-0.12,0.02-0.25,0.03-0.37
			c0.02-0.26,0.05-0.51,0.06-0.77c0.02-0.43,0.04-0.88,0.04-1.33c0-0.76-0.03-1.54-0.09-2.32c-0.02-0.25-0.05-0.51-0.08-0.77
			c-0.05-0.53-0.11-1.06-0.19-1.6c-0.04-0.3-0.1-0.6-0.15-0.9c-0.09-0.5-0.18-1-0.29-1.51c-0.07-0.31-0.14-0.62-0.22-0.94
			c-0.12-0.51-0.26-1.01-0.41-1.52c-0.09-0.3-0.17-0.6-0.26-0.9c-0.17-0.55-0.36-1.1-0.55-1.65c-0.09-0.25-0.17-0.5-0.26-0.75
			c-0.3-0.8-0.61-1.59-0.96-2.37c-0.03-0.06-0.06-0.12-0.09-0.19c-0.29-0.65-0.59-1.3-0.9-1.94c-0.04-0.08-0.09-0.17-0.13-0.25
			c-0.07-0.14-0.14-0.27-0.21-0.41c-0.34-0.66-0.69-1.31-1.05-1.95c-0.06-0.11-0.12-0.21-0.18-0.32c-0.41-0.7-0.83-1.39-1.27-2.07
			c-0.1-0.15-0.2-0.3-0.3-0.45c-0.46-0.69-0.92-1.37-1.41-2.03c-0.01-0.01-0.01-0.02-0.02-0.03c-0.48-0.65-0.98-1.29-1.49-1.91
			c-0.11-0.14-0.22-0.27-0.34-0.41c-0.47-0.56-0.94-1.11-1.43-1.63c-0.05-0.05-0.1-0.1-0.15-0.15c-0.06-0.07-0.12-0.13-0.19-0.2
			c-0.56-0.59-1.13-1.16-1.71-1.71c-0.05-0.05-0.11-0.1-0.16-0.15c-0.6-0.55-1.2-1.09-1.82-1.59c-0.04-0.03-0.08-0.06-0.12-0.1
			c-0.64-0.51-1.28-1-1.94-1.46c-0.02-0.02-0.05-0.03-0.07-0.05c-0.67-0.47-1.36-0.9-2.05-1.3c-5.72-3.3-10.9-3.61-14.64-1.43
			l-20.44,11.88c3.74-2.17,8.92-1.87,14.64,1.43c0.69,0.4,1.37,0.84,2.05,1.3c0.02,0.02,0.05,0.03,0.07,0.05
			c0.65,0.46,1.3,0.94,1.93,1.46c0.04,0.03,0.08,0.06,0.12,0.1c0.62,0.5,1.23,1.04,1.82,1.59c0.05,0.05,0.11,0.1,0.16,0.15
			c0.58,0.55,1.15,1.12,1.71,1.71c0.06,0.07,0.12,0.13,0.19,0.2c0.54,0.58,1.06,1.17,1.58,1.79c0.11,0.14,0.23,0.27,0.34,0.41
			c0.51,0.62,1.01,1.25,1.49,1.9c0.01,0.01,0.01,0.02,0.02,0.03c0.49,0.66,0.95,1.34,1.41,2.03c0.1,0.15,0.2,0.3,0.3,0.45
			c0.44,0.68,0.87,1.37,1.27,2.07c0.06,0.11,0.12,0.22,0.18,0.32c0.37,0.64,0.72,1.29,1.05,1.95c0.07,0.14,0.14,0.27,0.21,0.41
			c0.36,0.73,0.71,1.46,1.03,2.2c0.03,0.06,0.06,0.12,0.08,0.18c0.34,0.79,0.66,1.58,0.96,2.37c0.09,0.25,0.17,0.5,0.26,0.75
			c0.19,0.55,0.38,1.1,0.55,1.65c0.09,0.3,0.18,0.6,0.26,0.9c0.14,0.51,0.28,1.01,0.41,1.52c0.08,0.31,0.15,0.62,0.22,0.94
			c0.11,0.5,0.21,1.01,0.29,1.51c0.05,0.3,0.11,0.6,0.15,0.9c0.08,0.54,0.14,1.07,0.19,1.6c0.03,0.26,0.06,0.51,0.08,0.77
			c0.06,0.78,0.1,1.55,0.09,2.32c0,0.73-0.04,1.42-0.1,2.1c-0.01,0.12-0.02,0.25-0.03,0.37c-0.07,0.65-0.16,1.27-0.27,1.87
			c-0.02,0.12-0.05,0.24-0.08,0.36c-0.12,0.59-0.27,1.16-0.44,1.7c-0.01,0.02-0.01,0.05-0.02,0.07c-0.18,0.55-0.39,1.07-0.61,1.57
			c-0.05,0.1-0.09,0.21-0.14,0.31c-0.23,0.48-0.48,0.93-0.75,1.36c-0.05,0.07-0.1,0.14-0.14,0.21c-0.26,0.39-0.53,0.75-0.82,1.09
			c-0.05,0.06-0.1,0.12-0.15,0.18c-0.32,0.36-0.67,0.69-1.03,0.99c-0.08,0.07-0.16,0.13-0.24,0.2c-0.38,0.3-0.76,0.58-1.17,0.82
			l20.44-11.88c0.41-0.24,0.8-0.52,1.17-0.82c0.08-0.07,0.16-0.13,0.24-0.2c0.36-0.3,0.7-0.63,1.03-0.99
			c0.05-0.06,0.1-0.12,0.15-0.18c0.15-0.18,0.31-0.35,0.45-0.55c0.13-0.17,0.25-0.36,0.37-0.54c0.05-0.07,0.1-0.14,0.14-0.21
			C555.43,603.99,555.67,603.54,555.9,603.06z"/>
		<path class="st6" d="M129.87,124.04c-4.37-2.52-8.32-2.75-11.18-1.09l-20.44,11.88c2.86-1.66,6.81-1.43,11.18,1.09l245.34,141.65
			l20.44-11.88L129.87,124.04z"/>
		<path class="st6" d="M402.06,307.31L190,184.88l-20.44,11.88l212.05,122.43c0.99,0.57,1.89,0.63,2.54,0.25l20.44-11.88
			C403.95,307.94,403.05,307.89,402.06,307.31z"/>
		<path class="st4" d="M378.84,259.38c0.02-0.37,0.05-0.73,0.09-1.08c0.02-0.16,0.04-0.31,0.06-0.47c0.04-0.31,0.08-0.61,0.13-0.9
			c0.03-0.16,0.05-0.31,0.08-0.47c0.06-0.31,0.12-0.6,0.19-0.9c0.03-0.12,0.05-0.25,0.09-0.37c0.1-0.41,0.21-0.81,0.34-1.19
			c0.01-0.04,0.03-0.08,0.05-0.13c0.11-0.34,0.23-0.67,0.36-0.99c0.05-0.12,0.1-0.23,0.15-0.35c0.1-0.24,0.21-0.48,0.33-0.71
			c0.06-0.12,0.12-0.24,0.18-0.36c0.12-0.22,0.24-0.44,0.37-0.66c0.06-0.1,0.12-0.21,0.19-0.31c0.17-0.26,0.34-0.52,0.52-0.76
			c0.03-0.04,0.06-0.08,0.09-0.12c0.22-0.29,0.44-0.56,0.68-0.82c0.07-0.08,0.14-0.15,0.21-0.22c0.17-0.18,0.35-0.36,0.53-0.53
			c0.09-0.08,0.17-0.16,0.26-0.23c0.18-0.16,0.37-0.31,0.56-0.45c0.08-0.06,0.17-0.13,0.25-0.19c0.28-0.2,0.56-0.38,0.85-0.55
			l-20.44,11.88c-0.29,0.17-0.57,0.36-0.85,0.55c-0.09,0.06-0.17,0.13-0.25,0.19c-0.19,0.14-0.38,0.3-0.56,0.45
			c-0.09,0.08-0.18,0.16-0.26,0.24c-0.18,0.17-0.36,0.34-0.53,0.52c-0.07,0.07-0.14,0.14-0.21,0.22c-0.23,0.26-0.46,0.53-0.68,0.82
			c0,0.01-0.01,0.01-0.01,0.01c-0.03,0.03-0.05,0.07-0.07,0.11c-0.18,0.24-0.35,0.5-0.52,0.76c-0.06,0.1-0.12,0.21-0.19,0.31
			c-0.13,0.21-0.25,0.43-0.37,0.66c-0.06,0.12-0.12,0.24-0.18,0.36c-0.11,0.23-0.22,0.47-0.33,0.71c-0.05,0.12-0.1,0.23-0.15,0.35
			c-0.13,0.32-0.25,0.65-0.36,1c-0.01,0.04-0.03,0.08-0.04,0.12c-0.12,0.38-0.24,0.78-0.34,1.19c-0.03,0.12-0.06,0.25-0.09,0.38
			c-0.07,0.29-0.13,0.59-0.19,0.89c-0.03,0.15-0.06,0.31-0.08,0.47c-0.05,0.29-0.09,0.59-0.13,0.9c-0.02,0.16-0.04,0.31-0.06,0.47
			c-0.04,0.35-0.07,0.71-0.09,1.08c-0.01,0.09-0.02,0.18-0.02,0.28c0,0.02,0,0.05,0,0.07c-0.02,0.45-0.04,0.91-0.04,1.39l-0.02,6.62
			l20.44-11.88l0.02-6.62c0-0.47,0.02-0.93,0.04-1.39C378.82,259.61,378.83,259.5,378.84,259.38z"/>
		<path class="st2" d="M421.9,309.01c-0.01-0.19-0.04-0.39-0.06-0.58c-0.04-0.41-0.09-0.81-0.15-1.23
			c-0.03-0.23-0.08-0.46-0.12-0.69c-0.07-0.38-0.14-0.77-0.23-1.15c-0.05-0.24-0.11-0.48-0.17-0.72c-0.09-0.39-0.2-0.77-0.31-1.16
			c-0.07-0.23-0.13-0.46-0.2-0.69c-0.13-0.42-0.27-0.84-0.42-1.26c-0.07-0.19-0.13-0.38-0.2-0.57c-0.23-0.61-0.47-1.21-0.73-1.82
			c-0.02-0.04-0.04-0.08-0.06-0.12c-0.22-0.5-0.45-1.01-0.7-1.5c-0.02-0.04-0.05-0.08-0.07-0.13c-0.36-0.73-0.75-1.44-1.16-2.15
			c-0.09-0.15-0.18-0.29-0.27-0.44c-0.33-0.55-0.67-1.1-1.03-1.63c-0.15-0.23-0.31-0.45-0.46-0.67c-0.32-0.46-0.65-0.91-0.99-1.35
			c-0.17-0.22-0.33-0.43-0.5-0.64c-0.39-0.49-0.8-0.96-1.21-1.41c-0.1-0.11-0.19-0.23-0.28-0.33c-0.03-0.03-0.05-0.05-0.08-0.08
			c-0.27-0.29-0.55-0.56-0.83-0.84c-0.21-0.21-0.41-0.43-0.63-0.63c-0.3-0.28-0.61-0.54-0.91-0.8c-0.21-0.18-0.41-0.37-0.62-0.54
			c-0.34-0.28-0.69-0.53-1.05-0.79c-0.18-0.13-0.36-0.28-0.54-0.4c-0.54-0.37-1.08-0.72-1.63-1.04l-27.54-15.9l-20.44,11.88
			l27.54,15.9c0.55,0.32,1.1,0.67,1.63,1.04c0.18,0.13,0.36,0.27,0.54,0.41c0.35,0.26,0.7,0.51,1.04,0.79
			c0.21,0.17,0.41,0.36,0.62,0.54c0.3,0.26,0.61,0.52,0.91,0.8c0.21,0.2,0.42,0.42,0.63,0.63c0.28,0.28,0.56,0.55,0.83,0.84
			c0.12,0.13,0.24,0.28,0.36,0.41c0.41,0.46,0.82,0.93,1.21,1.42c0.17,0.21,0.34,0.43,0.5,0.64c0.34,0.44,0.67,0.89,0.99,1.35
			c0.16,0.22,0.31,0.44,0.46,0.67c0.36,0.54,0.7,1.08,1.04,1.64c0.09,0.15,0.18,0.29,0.27,0.44c0.41,0.7,0.79,1.42,1.16,2.15
			c0.27,0.54,0.53,1.08,0.77,1.63c0.02,0.04,0.04,0.08,0.06,0.12c0.26,0.6,0.5,1.21,0.73,1.82c0.07,0.19,0.13,0.38,0.2,0.58
			c0.15,0.42,0.29,0.84,0.42,1.26c0.07,0.23,0.14,0.46,0.2,0.69c0.11,0.39,0.21,0.77,0.31,1.16c0.06,0.24,0.11,0.48,0.17,0.72
			c0.08,0.38,0.16,0.77,0.22,1.15c0.04,0.23,0.08,0.46,0.12,0.69c0.06,0.41,0.11,0.82,0.15,1.22c0.02,0.19,0.05,0.39,0.06,0.58
			c0.05,0.6,0.07,1.19,0.07,1.77l-0.36,128.25l20.44-11.88l0.36-128.25C421.98,310.2,421.95,309.61,421.9,309.01z"/>
		<path class="st6" d="M401.48,244.1c-7.26-4.19-13.84-4.57-18.6-1.81l-20.44,11.88c4.76-2.77,11.34-2.38,18.6,1.81l64.69,37.35
			l20.44-11.88L401.48,244.1z"/>
		<g class="st0">
			<defs>
				<path id="SVGID_17_" class="st0" d="M455.58,301.06l20.44-11.88c-1.3,0.76-2.11,2.36-2.11,4.64c-0.01,4.59,3.23,10.2,7.22,12.51
					c2.01,1.16,3.83,1.26,5.15,0.5l-20.44,11.88c-1.32,0.77-3.14,0.66-5.15-0.5c-4-2.31-7.24-7.92-7.22-12.51
					C453.47,303.42,454.28,301.82,455.58,301.06z"/>
			</defs>
			<clipPath id="SVGID_18_">
				<use xlink:href="#SVGID_17_"  style="overflow:visible;"/>
			</clipPath>
			<g class="st19">
				<path class="st4" d="M455.58,301.06l20.44-11.88c-0.41,0.24-0.77,0.56-1.07,0.96l-20.44,11.88
					C454.81,301.62,455.17,301.3,455.58,301.06"/>
				<path class="st3" d="M454.51,302.03l20.44-11.88c-0.59,0.78-0.96,1.87-1.03,3.21l-20.44,11.88
					C453.55,303.89,453.92,302.81,454.51,302.03"/>
				<path class="st2" d="M453.48,305.23l20.44-11.88c-0.01,0.15-0.01,0.31-0.01,0.47c-0.01,1.96,0.58,4.11,1.57,6.11l-20.44,11.88
					c-0.99-2-1.58-4.15-1.57-6.11C453.47,305.54,453.47,305.39,453.48,305.23"/>
				<path class="st3" d="M455.04,311.81l20.44-11.88c0.73,1.47,1.68,2.87,2.76,4.04l-20.44,11.88
					C456.72,314.68,455.77,313.29,455.04,311.81"/>
				<path class="st4" d="M457.8,315.85l20.44-11.88c0.88,0.96,1.86,1.77,2.89,2.36c2.01,1.16,3.83,1.26,5.15,0.5l-20.44,11.88
					c-1.32,0.77-3.14,0.66-5.15-0.5C459.66,317.62,458.69,316.81,457.8,315.85"/>
			</g>
		</g>
		<g class="st0">
			<defs>
				<path id="SVGID_19_" class="st0" d="M484.99,304.62l-20.44,11.88c0.98-0.57,1.58-1.77,1.59-3.48c0-1.07-0.23-2.26-0.68-3.45
					l20.44-11.88c0.45,1.19,0.68,2.38,0.68,3.45C486.57,302.85,485.97,304.06,484.99,304.62z"/>
			</defs>
			<clipPath id="SVGID_20_">
				<use xlink:href="#SVGID_19_"  style="overflow:visible;"/>
			</clipPath>
			<g class="st20">
				<path class="st2" d="M465.46,309.57l20.44-11.88c0.45,1.19,0.68,2.38,0.68,3.45c0,0.12,0,0.24-0.01,0.35l-20.44,11.88
					c0.01-0.11,0.01-0.23,0.01-0.35C466.14,311.94,465.91,310.75,465.46,309.57"/>
				<path class="st3" d="M466.13,313.37l20.44-11.88c-0.05,1.01-0.33,1.82-0.77,2.41l-20.44,11.88
					C465.8,315.19,466.08,314.37,466.13,313.37"/>
				<path class="st4" d="M465.36,315.78l20.44-11.88c-0.23,0.3-0.5,0.54-0.81,0.72l-20.44,11.88
					C464.86,316.32,465.13,316.08,465.36,315.78"/>
			</g>
		</g>
		<g class="st0">
			<defs>
				<path id="SVGID_21_" class="st0" d="M456.87,303.27l20.44-11.88c0.99-0.57,2.36-0.5,3.86,0.37c1.14,0.66,2.23,1.69,3.15,2.99
					l-20.44,11.88c-0.92-1.3-2.01-2.33-3.15-2.99C459.23,302.77,457.86,302.69,456.87,303.27z"/>
			</defs>
			<clipPath id="SVGID_22_">
				<use xlink:href="#SVGID_21_"  style="overflow:visible;"/>
			</clipPath>
			<g class="st21">
				<path class="st4" d="M456.87,303.27l20.44-11.88c0.99-0.57,2.36-0.5,3.86,0.37c0.75,0.43,1.48,1.03,2.16,1.76l-20.44,11.88
					c-0.68-0.73-1.41-1.33-2.16-1.76C459.23,302.77,457.86,302.69,456.87,303.27"/>
				<path class="st3" d="M462.89,305.4l20.44-11.88c0.35,0.38,0.68,0.79,0.99,1.23l-20.44,11.88
					C463.57,306.19,463.24,305.78,462.89,305.4"/>
			</g>
		</g>
		<g>
			<polygon class="st6" points="466.07,307.91 486.51,296.03 486.88,296.68 466.44,308.55 			"/>
		</g>
		<g>
			<polygon class="st13" points="465.38,306.72 485.82,294.84 486.19,295.49 465.75,307.37 			"/>
		</g>
		<g>
			<polygon class="st17" points="465.75,307.37 486.19,295.49 488.73,294.05 468.29,305.92 			"/>
		</g>
		<g class="st0">
			<defs>
				<path id="SVGID_23_" class="st0" d="M468.4,305.5l20.44-11.88c0.09-0.05,0.2-0.03,0.31,0.03c0.11,0.07,0.23,0.18,0.31,0.33
					c0.16,0.29,0.16,0.61,0,0.72l-20.44,11.88c0.17-0.1,0.17-0.43,0-0.72c-0.09-0.15-0.2-0.26-0.31-0.33
					C468.6,305.47,468.49,305.45,468.4,305.5z"/>
			</defs>
			<clipPath id="SVGID_24_">
				<use xlink:href="#SVGID_23_"  style="overflow:visible;"/>
			</clipPath>
			<g class="st22">
				<path class="st4" d="M468.4,305.5l20.44-11.88c0.09-0.05,0.2-0.03,0.31,0.03c0.06,0.04,0.12,0.08,0.18,0.15l-20.44,11.88
					c-0.06-0.06-0.12-0.11-0.18-0.15C468.6,305.47,468.49,305.45,468.4,305.5"/>
				<path class="st3" d="M468.89,305.68l20.44-11.88c0.05,0.05,0.09,0.11,0.13,0.18c0.01,0.02,0.02,0.03,0.03,0.05l-20.44,11.88
					c-0.01-0.02-0.02-0.03-0.03-0.05C468.99,305.79,468.94,305.73,468.89,305.68"/>
				<path class="st2" d="M469.05,305.91l20.44-11.88c0.07,0.14,0.1,0.29,0.1,0.41l-20.44,11.88
					C469.16,306.2,469.12,306.06,469.05,305.91"/>
				<path class="st3" d="M469.15,306.32l20.44-11.88c0,0.08-0.03,0.15-0.06,0.2l-20.44,11.88
					C469.12,306.48,469.14,306.41,469.15,306.32"/>
				<path class="st4" d="M469.08,306.53l20.44-11.88c-0.02,0.02-0.04,0.04-0.06,0.06l-20.44,11.88
					C469.05,306.57,469.07,306.55,469.08,306.53"/>
			</g>
		</g>
		<g>
			<polygon class="st23" points="466.44,308.55 486.88,296.68 496.42,298.65 475.98,310.53 			"/>
		</g>
		<g>
			<polygon class="st2" points="468.64,297.45 489.08,285.57 485.82,294.84 465.38,306.72 			"/>
		</g>
		<g>
			<polygon class="st13" points="472.31,298.65 492.75,286.78 497.39,294.81 476.95,306.69 			"/>
		</g>
		<g>
			<polygon class="st17" points="476.95,306.69 497.39,294.81 500.03,293.3 479.59,305.18 			"/>
		</g>
		<g>
			<path class="st24" d="M516.65,571.07c11.36,6.56,20.54,22.46,20.5,35.51c-0.04,13.06-9.28,18.32-20.64,11.76
				c-10.76-6.21-19.57-20.81-20.43-33.43l-43.79-25.28c-14.43-8.33-26.13-28.6-26.08-45.17l0.05-18.94
				c0.04-14.34-10.07-31.85-22.54-39.05l-2.57-1.48l-0.24,85.87c-0.03,9.98-7.09,14-15.78,8.99l-246.4-142.26
				c-0.19,16.35-11.9,22.93-26.24,14.65l-71.46-41.26c-0.93,11.58-9.79,15.98-20.56,9.77c-11.36-6.56-20.54-22.46-20.5-35.51
				s9.28-18.32,20.64-11.76c10.77,6.22,19.57,20.81,20.43,33.43l71.46,41.26c12.38,7.15,22.5,1.48,22.69-12.62l-26.48-15.29
				c-8.68-5.01-15.7-17.17-15.67-27.15l0.61-216.29l-44.42-25.65c-14.43-8.33-26.13-28.6-26.08-45.17l0.04-15.36
				C13,53.34,5.13,38.82,5.17,26.73c0.04-13.06,9.27-18.32,20.64-11.76c11.36,6.56,20.54,22.46,20.5,35.51
				c-0.04,12.64-8.7,17.98-19.57,12.35L26.7,78.04c-0.04,14.33,10.07,31.84,22.54,39.04l44.54,25.72
				c0.96-8.41,7.61-11.53,15.66-6.88l245.34,141.65l0.02-6.62c0.05-16.57,11.82-23.29,26.24-14.96l64.69,37.35
				c0.76-11.87,9.7-16.45,20.58-10.16c11.36,6.56,20.54,22.46,20.5,35.52c-0.04,13.05-9.28,18.32-20.64,11.76
				c-10.64-6.15-19.37-20.49-20.4-33.01l-64.75-37.38c-12.47-7.2-22.65-1.4-22.69,12.93l-0.02,6.62l27.54,15.9
				c8.69,5.02,15.71,17.17,15.68,27.16l-0.36,128.25l2.57,1.48c14.43,8.33,26.13,28.59,26.08,45.17l-0.05,18.94
				c-0.04,14.33,10.07,31.84,22.54,39.04l43.79,25.28C497.03,569.26,505.89,564.86,516.65,571.07z M221.82,301.25l0.09-33.01
				c0.01-3.84-2.69-8.51-6.03-10.44l-76.58-44.21c-3.34-1.93-6.06-0.38-6.07,3.46l-0.09,33.01c-0.01,3.84,2.69,8.51,6.03,10.44
				l76.58,44.21C219.1,306.63,221.81,305.09,221.82,301.25 M221.49,420.51l0.09-33.01c0.01-3.84-2.69-8.51-6.03-10.44l-76.58-44.21
				c-3.34-1.93-6.06-0.38-6.07,3.46l-0.09,33.01c-0.01,3.84,2.69,8.51,6.03,10.44l76.58,44.21
				C218.76,425.89,221.48,424.35,221.49,420.51 M221.66,360.88l0.09-33.01c0.01-3.84-2.69-8.51-6.03-10.44l-76.58-44.21
				c-3.34-1.93-6.06-0.38-6.07,3.46l-0.09,33.01c-0.01,3.84,2.69,8.51,6.03,10.44l76.58,44.21
				C218.93,366.26,221.64,364.72,221.66,360.88 M385.21,317.15l0.02-5.64c0.01-2.27-1.59-5.03-3.56-6.17L169.6,182.9
				c-1.97-1.14-3.58-0.22-3.59,2.04l-0.02,5.64c-0.01,2.27,1.59,5.03,3.56,6.17l212.05,122.43
				C383.59,320.33,385.2,319.41,385.21,317.15 M112.8,159.42c-0.01,2.52,1.76,5.58,3.95,6.84l25.42,14.67
				c2.19,1.26,3.97,0.25,3.98-2.27l0.01-4.75c0.01-2.52-1.76-5.58-3.95-6.85l-25.42-14.67c-2.18-1.26-3.96-0.25-3.97,2.27
				L112.8,159.42 M460.74,301.56c-4-2.31-7.26-0.45-7.27,4.14c-0.01,4.59,3.23,10.2,7.22,12.51c3.99,2.3,7.25,0.44,7.26-4.15
				c0-1.42-0.31-3.02-0.91-4.61l-1.58,0.11c0.45,1.19,0.68,2.38,0.68,3.45c-0.01,3.44-2.45,4.84-5.44,3.11
				c-3-1.73-5.43-5.94-5.42-9.38c0.01-3.44,2.46-4.84,5.45-3.11c1.14,0.66,2.23,1.69,3.15,2.99l1.06-1.09
				C463.71,303.82,462.26,302.44,460.74,301.56 M345.33,346.01l0.01-2.44l-92.94-53.66l-0.01,2.44L345.33,346.01 M338.58,473.56
				l0.01-2.44l-86.55-49.97l-0.01,2.44L338.58,473.56 M335.2,408.74l-83-47.92l-0.01,2.45l83,47.92L335.2,408.74 M252.37,301.32
				l83,47.92l0.01-2.44l-83-47.92L252.37,301.32 M514.33,600.75l-6.13-10.61l6.28-3.58c0.54-0.31,0.54-1.31,0.01-2.24
				c-0.27-0.46-0.62-0.82-0.97-1.02c-0.35-0.2-0.71-0.25-0.98-0.1l-7.26,4.14c-0.55,0.3-0.55,1.31-0.01,2.24l7.09,12.29
				c0.27,0.46,0.62,0.82,0.97,1.02s0.71,0.25,0.98,0.1C514.86,602.68,514.87,601.67,514.33,600.75 M528.24,602.83
				c0.54-0.31,0.54-1.31,0.01-2.24l-7.21-12.49c-0.27-0.47-0.62-0.82-0.98-1.03c-0.35-0.2-0.7-0.25-0.97-0.1
				c-0.55,0.3-0.55,1.31-0.01,2.24l6.24,10.81l-6.17,3.51c-0.54,0.31-0.54,1.31-0.01,2.24c0.27,0.47,0.62,0.82,0.98,1.03
				c0.35,0.2,0.71,0.25,0.98,0.1L528.24,602.83 M332.22,458.46l-80.17-46.28l-0.01,2.45l80.17,46.28L332.22,458.46 M321.7,409.93
				l-69.52-40.14l-0.01,2.44l69.52,40.14L321.7,409.93 M468.64,297.45l-3.26,9.27l0.37,0.65l2.54-1.45
				c-0.04-0.18-0.01-0.36,0.11-0.42c0.09-0.05,0.2-0.03,0.31,0.03c0.11,0.07,0.23,0.18,0.31,0.33c0.16,0.29,0.16,0.61,0,0.72
				c-0.08,0.05-0.2,0.03-0.31-0.03c-0.04-0.02-0.08-0.05-0.12-0.09l-2.53,1.45l0.38,0.64l9.53,1.98l0.71-3.58l-4.73-8.19
				L468.64,297.45 M25.47,31.87l3.1,8.25l-3.28,4.79l3.8,2.19l1.46-2.76l1.43,4.43l3.88,2.24l-3.22-8.61l3.13-4.59l-3.79-2.19
				l-1.34,2.55l-1.28-4.06L25.47,31.87 M308.4,340.19l-56.04-32.36l-0.01,2.44l56.04,32.36L308.4,340.19 M22.89,370.3l0.02-7.76
				l-3.56-2.05l-0.02,7.93c0,1.3-0.58,1.51-1.38,1.05c-0.8-0.46-1.37-1.38-1.37-2.69l0.02-7.88l-3.57-2.06l-0.02,7.84
				c-0.01,3.91,1.96,6.68,4.9,8.38C20.86,374.76,22.88,374.31,22.89,370.3 M25.03,39.39l0.02-7.76l-3.56-2.05l-0.02,7.93
				c0,1.29-0.57,1.51-1.37,1.05c-0.8-0.46-1.37-1.37-1.37-2.69l0.02-7.87l-3.57-2.06l-0.02,7.84c-0.01,3.92,1.96,6.68,4.9,8.38
				C23.01,43.85,25.02,43.4,25.03,39.39 M296.92,377.66l-44.69-25.8l-0.01,2.44l44.69,25.8L296.92,377.66 M474.95,297.15l-2.65,1.51
				l4.64,8.04l2.65-1.51L474.95,297.15 M27.52,378.34l0.04-13.12l-3.52-2.03L24,376.31L27.52,378.34 M268.32,441.98l0.01-2.44
				l-16.32-9.42l-0.01,2.44L268.32,441.98"/>
		</g>
		<path class="st6" d="M505.56,315.16c0.05-0.1,0.09-0.21,0.14-0.31c0.23-0.5,0.44-1.02,0.61-1.57c0.01-0.02,0.01-0.04,0.02-0.07
			c0.17-0.54,0.31-1.11,0.44-1.7c0.03-0.12,0.05-0.24,0.08-0.36c0.12-0.6,0.21-1.22,0.27-1.87c0.01-0.12,0.02-0.25,0.03-0.37
			c0.02-0.26,0.05-0.51,0.06-0.77c0.02-0.43,0.04-0.88,0.04-1.33c0-0.76-0.03-1.54-0.09-2.32c-0.02-0.25-0.05-0.51-0.08-0.77
			c-0.05-0.53-0.11-1.06-0.19-1.6c-0.05-0.3-0.1-0.6-0.15-0.91c-0.09-0.5-0.18-1-0.29-1.5c-0.07-0.31-0.14-0.63-0.22-0.94
			c-0.12-0.51-0.26-1.01-0.4-1.52c-0.09-0.3-0.17-0.6-0.26-0.91c-0.17-0.55-0.36-1.1-0.55-1.65c-0.09-0.25-0.17-0.5-0.26-0.75
			c-0.3-0.8-0.61-1.59-0.96-2.38c-0.02-0.05-0.05-0.1-0.07-0.15c-0.29-0.66-0.6-1.33-0.92-1.98c-0.04-0.08-0.09-0.16-0.13-0.25
			c-0.07-0.14-0.14-0.27-0.21-0.41c-0.34-0.66-0.69-1.31-1.05-1.95c-0.06-0.11-0.12-0.22-0.18-0.33c-0.41-0.7-0.83-1.39-1.27-2.07
			c-0.1-0.15-0.2-0.3-0.3-0.45c-0.46-0.69-0.92-1.37-1.41-2.03c0,0-0.01-0.01-0.01-0.01c-0.48-0.66-0.99-1.29-1.5-1.92
			c-0.11-0.14-0.22-0.27-0.34-0.41c-0.47-0.56-0.95-1.11-1.44-1.64c-0.05-0.05-0.1-0.1-0.15-0.15c-0.06-0.06-0.12-0.13-0.18-0.19
			c-0.56-0.59-1.13-1.17-1.72-1.72c-0.05-0.05-0.11-0.1-0.16-0.15c-0.6-0.56-1.21-1.09-1.83-1.6c-0.04-0.03-0.08-0.06-0.12-0.1
			c-0.64-0.51-1.28-1-1.94-1.46c-0.02-0.02-0.05-0.03-0.07-0.05c-0.67-0.47-1.36-0.9-2.05-1.3c-5.72-3.3-10.9-3.61-14.63-1.43
			l-20.44,11.88c3.74-2.17,8.92-1.87,14.63,1.43c0.69,0.4,1.38,0.84,2.05,1.3c0.02,0.02,0.05,0.03,0.07,0.05
			c0.65,0.46,1.3,0.94,1.93,1.46c0.04,0.03,0.08,0.06,0.12,0.1c0.62,0.51,1.23,1.04,1.83,1.59c0.05,0.05,0.11,0.1,0.16,0.15
			c0.58,0.55,1.16,1.12,1.72,1.72c0.06,0.06,0.12,0.13,0.18,0.19c0.54,0.58,1.06,1.17,1.58,1.79c0.11,0.14,0.23,0.27,0.34,0.41
			c0.51,0.62,1.01,1.26,1.5,1.91c0,0.01,0.01,0.01,0.01,0.02c0.49,0.66,0.95,1.34,1.41,2.03c0.1,0.15,0.2,0.3,0.3,0.45
			c0.44,0.68,0.87,1.37,1.27,2.07c0.06,0.11,0.12,0.22,0.18,0.32c0.37,0.64,0.72,1.29,1.05,1.95c0.07,0.14,0.14,0.27,0.21,0.41
			c0.37,0.73,0.72,1.48,1.05,2.22c0.02,0.05,0.05,0.1,0.07,0.15c0.34,0.79,0.66,1.58,0.96,2.38c0.09,0.25,0.17,0.5,0.26,0.75
			c0.19,0.55,0.38,1.1,0.55,1.65c0.09,0.3,0.18,0.6,0.26,0.91c0.14,0.51,0.28,1.01,0.4,1.52c0.08,0.31,0.15,0.63,0.22,0.94
			c0.11,0.5,0.21,1,0.29,1.5c0.05,0.3,0.11,0.61,0.15,0.91c0.08,0.54,0.14,1.07,0.19,1.6c0.03,0.26,0.06,0.51,0.08,0.77
			c0.06,0.78,0.1,1.55,0.09,2.32c0,0.73-0.04,1.42-0.1,2.1c-0.01,0.12-0.02,0.25-0.03,0.37c-0.07,0.65-0.16,1.27-0.27,1.87
			c-0.02,0.12-0.05,0.24-0.08,0.36c-0.13,0.59-0.27,1.16-0.44,1.7c-0.01,0.02-0.01,0.04-0.02,0.06c-0.18,0.55-0.39,1.07-0.61,1.57
			c-0.05,0.1-0.09,0.21-0.14,0.31c-0.23,0.48-0.48,0.93-0.75,1.36c-0.05,0.07-0.1,0.14-0.14,0.21c-0.26,0.39-0.53,0.75-0.82,1.09
			c-0.05,0.06-0.1,0.12-0.15,0.18c-0.32,0.36-0.67,0.69-1.03,0.99c-0.08,0.07-0.16,0.13-0.24,0.2c-0.38,0.3-0.76,0.58-1.17,0.82
			l20.44-11.88c0.41-0.24,0.8-0.52,1.17-0.82c0.08-0.07,0.16-0.13,0.24-0.2c0.36-0.3,0.7-0.63,1.03-0.99
			c0.05-0.06,0.1-0.12,0.15-0.18c0.15-0.18,0.31-0.35,0.45-0.55c0.13-0.17,0.25-0.36,0.37-0.54c0.05-0.07,0.1-0.14,0.14-0.21
			C505.08,316.1,505.33,315.64,505.56,315.16z"/>
	</g>
</g>
<g id="Spaces">
	<g>
		<g class="st0">
			<g>
				<path class="st25" d="M90.84,203.03c2.11,1.22,3.82,4.17,3.81,6.6l-0.01,5.07c-0.01,2.43-1.72,3.41-3.84,2.19l-25.69-14.83
					c-2.11-1.22-3.82-4.17-3.81-6.6l0.01-5.07c0.01-2.43,1.72-3.41,3.84-2.19L90.84,203.03z"/>
			</g>
			<path class="st26" d="M101.63,204.68c-0.01-0.09-0.04-0.19-0.05-0.28c-0.03-0.14-0.04-0.27-0.08-0.41
				c-0.01-0.06-0.04-0.11-0.05-0.17c-0.04-0.16-0.1-0.31-0.15-0.47c-0.04-0.1-0.06-0.21-0.1-0.31c-0.03-0.07-0.06-0.13-0.09-0.2
				c-0.04-0.11-0.09-0.21-0.14-0.31c-0.04-0.09-0.07-0.18-0.12-0.26c-0.05-0.11-0.12-0.21-0.18-0.32c-0.05-0.09-0.09-0.17-0.14-0.26
				c-0.03-0.04-0.05-0.09-0.07-0.13c-0.11-0.18-0.24-0.36-0.36-0.53c-0.03-0.04-0.06-0.09-0.09-0.13c-0.01-0.01-0.01-0.02-0.02-0.03
				c-0.19-0.25-0.39-0.5-0.6-0.72c0,0,0,0-0.01-0.01c-0.15-0.16-0.32-0.3-0.48-0.45c-0.08-0.07-0.16-0.16-0.24-0.23
				c-0.25-0.2-0.51-0.38-0.77-0.54l-25.69-14.83c-1.06-0.61-2.03-0.67-2.72-0.27l-7.05,4.1c0.7-0.4,1.66-0.35,2.72,0.27l25.69,14.83
				c0.27,0.15,0.52,0.33,0.77,0.54c0.09,0.07,0.16,0.16,0.25,0.23c0.16,0.14,0.32,0.28,0.47,0.44c0.22,0.24,0.43,0.49,0.63,0.75
				c0.03,0.04,0.06,0.09,0.09,0.13c0.15,0.21,0.3,0.43,0.43,0.66c0.05,0.08,0.1,0.17,0.14,0.26c0.1,0.19,0.2,0.38,0.29,0.58
				c0.05,0.1,0.1,0.21,0.14,0.31c0.07,0.17,0.13,0.34,0.19,0.5c0.05,0.16,0.11,0.31,0.15,0.47c0.05,0.19,0.1,0.39,0.13,0.58
				c0.02,0.09,0.04,0.19,0.05,0.28c0.04,0.29,0.07,0.58,0.07,0.86l-0.01,5.07c0,0.28-0.03,0.55-0.07,0.79
				c-0.02,0.08-0.04,0.15-0.06,0.22c-0.04,0.15-0.08,0.3-0.14,0.43c-0.05,0.11-0.11,0.2-0.16,0.3c-0.06,0.09-0.11,0.19-0.18,0.28
				c-0.04,0.05-0.09,0.09-0.14,0.14c-0.11,0.11-0.23,0.22-0.36,0.3l7.05-4.1c0.07-0.04,0.14-0.09,0.2-0.14
				c0.06-0.05,0.1-0.11,0.16-0.16c0.05-0.05,0.09-0.09,0.14-0.14c0.02-0.02,0.04-0.04,0.06-0.06c0.05-0.06,0.08-0.15,0.12-0.21
				c0.06-0.1,0.12-0.19,0.16-0.3c0.01-0.03,0.03-0.05,0.04-0.07c0.04-0.11,0.07-0.24,0.1-0.36c0.02-0.08,0.05-0.14,0.06-0.22
				c0.05-0.24,0.07-0.5,0.07-0.79l0.01-5.07C101.7,205.26,101.67,204.97,101.63,204.68z"/>
		</g>
	</g>
	<g>
		<g class="st0">
			<g class="st0">
				<defs>
					<path id="SVGID_25_" class="st0" d="M116.5,218.28l7.05-4.1c0.7-0.4,1.66-0.35,2.72,0.27l-7.05,4.1
						C118.16,217.93,117.19,217.88,116.5,218.28z"/>
				</defs>
				<clipPath id="SVGID_26_">
					<use xlink:href="#SVGID_25_"  style="overflow:visible;"/>
				</clipPath>
				<g class="st27">
					<path class="st28" d="M116.5,218.28l7.05-4.1c0.7-0.4,1.66-0.35,2.72,0.27l-7.05,4.1C118.16,217.93,117.19,217.88,116.5,218.28
						"/>
				</g>
			</g>
			<g>
				<path class="st25" d="M330.78,340.69c2.11,1.22,3.82,4.17,3.81,6.6l-0.01,5.07c-0.01,2.43-1.72,3.41-3.84,2.19L119.18,232.41
					c-2.11-1.22-3.82-4.17-3.81-6.6l0.01-5.07c0.01-2.43,1.72-3.41,3.84-2.19L330.78,340.69z"/>
			</g>
			<path class="st26" d="M341.62,348.27l0.01-5.07c0-0.28-0.03-0.57-0.07-0.86c-0.01-0.09-0.04-0.19-0.05-0.28
				c-0.03-0.14-0.04-0.27-0.08-0.41c-0.01-0.06-0.04-0.11-0.05-0.17c-0.04-0.16-0.1-0.31-0.15-0.47c-0.04-0.1-0.06-0.21-0.1-0.31
				c-0.03-0.07-0.06-0.13-0.09-0.2c-0.04-0.11-0.09-0.21-0.14-0.31c-0.04-0.09-0.07-0.18-0.12-0.26c-0.05-0.11-0.12-0.21-0.18-0.32
				c-0.05-0.09-0.09-0.17-0.14-0.26c-0.03-0.04-0.05-0.09-0.07-0.13c-0.11-0.18-0.24-0.36-0.36-0.53c-0.03-0.04-0.06-0.09-0.09-0.13
				c-0.01-0.01-0.01-0.02-0.02-0.03c-0.19-0.25-0.39-0.5-0.6-0.72c0,0,0,0-0.01-0.01c-0.15-0.16-0.31-0.3-0.47-0.44
				c-0.08-0.08-0.16-0.16-0.25-0.23c-0.25-0.2-0.51-0.38-0.77-0.54L126.27,214.45l-7.05,4.1l211.56,122.14
				c0.27,0.15,0.52,0.33,0.77,0.54c0.09,0.07,0.17,0.16,0.25,0.24c0.16,0.14,0.32,0.28,0.47,0.44c0.22,0.24,0.43,0.49,0.63,0.75
				c0.03,0.04,0.06,0.09,0.09,0.13c0.15,0.21,0.3,0.43,0.43,0.66c0.05,0.08,0.1,0.17,0.14,0.26c0.1,0.19,0.2,0.38,0.29,0.58
				c0.05,0.1,0.1,0.21,0.14,0.31c0.07,0.17,0.13,0.34,0.19,0.5c0.05,0.16,0.11,0.31,0.15,0.47c0.05,0.19,0.1,0.39,0.13,0.58
				c0.02,0.09,0.04,0.19,0.05,0.28c0.04,0.29,0.07,0.58,0.07,0.86l-0.01,5.07c0,0.28-0.03,0.55-0.07,0.79
				c-0.01,0.08-0.04,0.15-0.06,0.22c-0.04,0.15-0.08,0.3-0.14,0.43c-0.05,0.11-0.11,0.2-0.16,0.3c-0.06,0.09-0.11,0.19-0.18,0.28
				c-0.04,0.05-0.09,0.09-0.14,0.14c-0.11,0.11-0.23,0.22-0.36,0.3l7.05-4.1c0.07-0.04,0.14-0.09,0.2-0.14
				c0.06-0.05,0.1-0.11,0.16-0.16c0.05-0.05,0.1-0.09,0.14-0.14c0.02-0.02,0.04-0.04,0.06-0.06c0.05-0.06,0.08-0.15,0.12-0.21
				c0.06-0.1,0.12-0.19,0.16-0.3c0.01-0.03,0.03-0.05,0.04-0.07c0.04-0.11,0.07-0.24,0.1-0.36c0.02-0.08,0.05-0.14,0.06-0.22
				C341.59,348.81,341.62,348.55,341.62,348.27z"/>
		</g>
	</g>
	<g>
		<g class="st0">
			<g>
				<path class="st25" d="M164.9,294.56c3.5,2.02,6.32,6.91,6.31,10.93l-0.09,32.72c-0.01,4.02-2.86,5.64-6.35,3.62l-76.71-44.29
					c-3.5-2.02-6.33-6.92-6.32-10.94l0.09-32.72c0.01-4.02,2.86-5.64,6.36-3.62L164.9,294.56z"/>
			</g>
			<path class="st26" d="M178.07,335.24c0.06-0.35,0.09-0.72,0.09-1.12l0.09-32.72c0-0.37-0.03-0.76-0.08-1.14
				c-0.01-0.07-0.02-0.15-0.03-0.22c-0.05-0.37-0.13-0.75-0.22-1.13c-0.01-0.03-0.01-0.05-0.02-0.08c-0.01-0.04-0.02-0.07-0.03-0.11
				c-0.12-0.47-0.27-0.93-0.45-1.4c-0.01-0.02-0.01-0.04-0.02-0.07c-0.02-0.04-0.04-0.09-0.06-0.13c-0.15-0.37-0.31-0.73-0.48-1.09
				c-0.01-0.02-0.02-0.04-0.03-0.06c0-0.01-0.01-0.01-0.01-0.02c-0.18-0.35-0.37-0.69-0.57-1.03c-0.02-0.04-0.04-0.08-0.07-0.12
				c-0.02-0.04-0.05-0.07-0.07-0.11c-0.21-0.34-0.44-0.68-0.68-1c-0.01-0.01-0.01-0.02-0.02-0.03c-0.01-0.02-0.03-0.04-0.05-0.06
				c-0.29-0.39-0.6-0.76-0.93-1.11c-0.01-0.01-0.01-0.02-0.02-0.03c0,0-0.01-0.01-0.01-0.01c-0.11-0.12-0.22-0.23-0.34-0.34
				c-0.08-0.08-0.16-0.17-0.25-0.25c-0.12-0.11-0.24-0.22-0.37-0.32c-0.08-0.07-0.16-0.14-0.24-0.21c-0.14-0.12-0.29-0.22-0.43-0.33
				c-0.07-0.05-0.13-0.1-0.2-0.15c-0.21-0.15-0.43-0.29-0.65-0.41l-76.71-44.29c-1.76-1.02-3.36-1.11-4.51-0.44l-7.05,4.1
				c1.15-0.67,2.75-0.58,4.51,0.44l76.71,44.29c0.22,0.13,0.44,0.27,0.65,0.41c0.08,0.05,0.15,0.11,0.23,0.17
				c0.14,0.1,0.27,0.2,0.4,0.31c0.09,0.07,0.17,0.15,0.26,0.23c0.12,0.1,0.24,0.2,0.35,0.31c0.09,0.08,0.17,0.17,0.26,0.26
				c0.11,0.11,0.22,0.22,0.33,0.33c0.01,0.01,0.02,0.02,0.03,0.04c0.33,0.35,0.64,0.72,0.93,1.11c0.02,0.03,0.05,0.06,0.07,0.09
				c0.24,0.32,0.46,0.66,0.68,1c0.05,0.08,0.09,0.15,0.14,0.23c0.2,0.34,0.4,0.68,0.57,1.03c0.01,0.03,0.03,0.05,0.04,0.08
				c0.18,0.36,0.34,0.72,0.48,1.09c0.03,0.07,0.05,0.13,0.08,0.2c0.18,0.46,0.33,0.93,0.45,1.4c0.02,0.06,0.03,0.12,0.05,0.19
				c0.09,0.38,0.17,0.75,0.22,1.13c0.01,0.07,0.02,0.15,0.03,0.22c0.05,0.39,0.08,0.77,0.08,1.14l-0.09,32.72
				c0,0.4-0.04,0.77-0.09,1.12c-0.01,0.05-0.01,0.1-0.02,0.15c-0.06,0.33-0.14,0.63-0.25,0.91c-0.03,0.07-0.05,0.14-0.08,0.21
				c-0.04,0.09-0.08,0.18-0.12,0.26c-0.04,0.08-0.09,0.16-0.13,0.24c-0.05,0.08-0.1,0.15-0.15,0.23c-0.04,0.06-0.08,0.11-0.13,0.17
				c-0.16,0.2-0.33,0.37-0.51,0.52c-0.12,0.09-0.23,0.18-0.36,0.25l7.05-4.1c0.12-0.07,0.23-0.15,0.34-0.23
				c0.01-0.01,0.01-0.02,0.02-0.02c0.19-0.15,0.36-0.33,0.51-0.52c0.02-0.02,0.04-0.03,0.05-0.05c0.03-0.04,0.05-0.08,0.07-0.11
				c0.05-0.07,0.1-0.15,0.15-0.23c0.05-0.08,0.09-0.16,0.13-0.24c0.04-0.08,0.08-0.17,0.12-0.26c0.02-0.04,0.04-0.08,0.06-0.13
				c0.01-0.03,0.01-0.06,0.02-0.08c0.1-0.28,0.19-0.58,0.25-0.91C178.06,335.34,178.07,335.29,178.07,335.24z"/>
		</g>
	</g>
	<g>
		<g class="st0">
			<g>
				<path class="st25" d="M164.9,353.56c3.5,2.02,6.32,6.91,6.31,10.93l-0.09,32.72c-0.01,4.02-2.86,5.64-6.35,3.62l-76.71-44.29
					c-3.5-2.02-6.33-6.92-6.32-10.94l0.09-32.72c0.01-4.02,2.86-5.64,6.36-3.62L164.9,353.56z"/>
			</g>
			<path class="st26" d="M178.07,394.24c0.06-0.35,0.09-0.72,0.09-1.12l0.09-32.72c0-0.37-0.03-0.76-0.08-1.14
				c-0.01-0.07-0.02-0.15-0.03-0.22c-0.05-0.37-0.13-0.75-0.22-1.13c-0.01-0.03-0.01-0.05-0.02-0.08c-0.01-0.04-0.02-0.07-0.03-0.11
				c-0.12-0.47-0.27-0.93-0.45-1.4c-0.01-0.02-0.01-0.04-0.02-0.07c-0.02-0.04-0.04-0.09-0.06-0.13c-0.15-0.37-0.31-0.73-0.48-1.09
				c-0.01-0.02-0.02-0.04-0.03-0.06c0-0.01-0.01-0.01-0.01-0.02c-0.18-0.35-0.37-0.69-0.57-1.03c-0.02-0.04-0.04-0.08-0.07-0.12
				c-0.02-0.04-0.05-0.07-0.08-0.11c-0.21-0.34-0.44-0.68-0.68-1c-0.01-0.01-0.01-0.02-0.02-0.03c-0.01-0.02-0.03-0.04-0.05-0.06
				c-0.29-0.39-0.6-0.76-0.93-1.11c-0.01-0.01-0.01-0.02-0.02-0.03c0,0-0.01-0.01-0.01-0.01c-0.11-0.11-0.22-0.22-0.33-0.33
				c-0.08-0.08-0.17-0.17-0.25-0.25c-0.12-0.11-0.24-0.22-0.37-0.32c-0.08-0.07-0.16-0.14-0.24-0.21c-0.14-0.12-0.29-0.22-0.43-0.33
				c-0.07-0.05-0.13-0.1-0.2-0.15c-0.21-0.15-0.43-0.29-0.65-0.41l-76.71-44.29c-1.76-1.02-3.36-1.11-4.51-0.44l-7.05,4.1
				c1.15-0.67,2.75-0.58,4.51,0.44l76.71,44.29c0.22,0.13,0.44,0.27,0.65,0.41c0.07,0.05,0.13,0.1,0.2,0.15
				c0.15,0.11,0.29,0.21,0.43,0.33c0.08,0.07,0.16,0.14,0.24,0.21c0.12,0.11,0.25,0.21,0.37,0.32c0.09,0.08,0.17,0.17,0.25,0.25
				c0.11,0.11,0.22,0.22,0.33,0.33c0.01,0.01,0.02,0.03,0.03,0.04c0.33,0.35,0.63,0.72,0.93,1.11c0.02,0.03,0.04,0.06,0.07,0.08
				c0.24,0.32,0.46,0.66,0.68,1c0.05,0.08,0.09,0.15,0.14,0.23c0.2,0.34,0.4,0.68,0.57,1.03c0.01,0.03,0.03,0.05,0.04,0.08
				c0.18,0.36,0.34,0.72,0.48,1.09c0.03,0.07,0.05,0.13,0.08,0.2c0.18,0.46,0.33,0.93,0.45,1.4c0.02,0.06,0.03,0.12,0.05,0.19
				c0.09,0.38,0.17,0.75,0.22,1.13c0.01,0.07,0.02,0.15,0.03,0.22c0.05,0.39,0.08,0.77,0.08,1.14l-0.09,32.72
				c0,0.4-0.04,0.77-0.09,1.12c-0.01,0.05-0.01,0.1-0.02,0.15c-0.06,0.33-0.14,0.63-0.25,0.91c-0.03,0.07-0.05,0.14-0.08,0.21
				c-0.04,0.09-0.08,0.18-0.12,0.26c-0.04,0.08-0.09,0.16-0.13,0.24c-0.05,0.08-0.1,0.15-0.15,0.23c-0.04,0.06-0.08,0.11-0.13,0.17
				c-0.16,0.2-0.33,0.37-0.51,0.52c-0.12,0.09-0.23,0.18-0.36,0.25l7.05-4.1c0.12-0.07,0.23-0.15,0.34-0.23
				c0.01-0.01,0.01-0.02,0.02-0.02c0.19-0.15,0.36-0.33,0.51-0.52c0.02-0.02,0.04-0.03,0.05-0.05c0.03-0.03,0.05-0.08,0.07-0.11
				c0.05-0.07,0.1-0.15,0.15-0.23c0.05-0.08,0.09-0.16,0.13-0.24c0.04-0.08,0.08-0.17,0.12-0.26c0.02-0.04,0.04-0.08,0.06-0.13
				c0.01-0.03,0.01-0.06,0.02-0.08c0.1-0.28,0.19-0.58,0.25-0.91C178.06,394.34,178.07,394.29,178.07,394.24z"/>
		</g>
	</g>
	<g>
		<g class="st0">
			<g>
				<path class="st25" d="M164.9,413.55c3.5,2.02,6.32,6.91,6.31,10.93l-0.09,32.72c-0.01,4.02-2.86,5.64-6.35,3.62l-76.71-44.29
					c-3.5-2.02-6.33-6.92-6.32-10.94l0.09-32.72c0.01-4.02,2.86-5.64,6.36-3.62L164.9,413.55z"/>
			</g>
			<path class="st26" d="M178.07,454.23c0.06-0.35,0.09-0.72,0.09-1.12l0.09-32.72c0-0.37-0.03-0.76-0.08-1.14
				c-0.01-0.07-0.02-0.15-0.03-0.22c-0.05-0.37-0.13-0.75-0.22-1.13c-0.01-0.03-0.01-0.05-0.02-0.08c-0.01-0.04-0.02-0.07-0.03-0.11
				c-0.12-0.47-0.27-0.93-0.45-1.4c-0.01-0.02-0.01-0.04-0.02-0.07c-0.02-0.04-0.04-0.09-0.06-0.13c-0.15-0.37-0.31-0.73-0.48-1.09
				c-0.01-0.02-0.02-0.04-0.03-0.06c0-0.01-0.01-0.01-0.01-0.02c-0.18-0.35-0.37-0.69-0.57-1.03c-0.02-0.04-0.04-0.08-0.07-0.12
				c-0.02-0.04-0.05-0.07-0.08-0.11c-0.21-0.34-0.44-0.68-0.68-1c-0.01-0.01-0.01-0.02-0.02-0.03c-0.01-0.02-0.03-0.04-0.05-0.06
				c-0.29-0.39-0.6-0.76-0.93-1.11c-0.01-0.01-0.01-0.02-0.02-0.03c0,0-0.01-0.01-0.01-0.01c-0.11-0.11-0.22-0.22-0.33-0.33
				c-0.08-0.08-0.17-0.17-0.25-0.25c-0.12-0.11-0.24-0.22-0.37-0.32c-0.08-0.07-0.16-0.14-0.24-0.21c-0.14-0.12-0.29-0.22-0.43-0.33
				c-0.07-0.05-0.13-0.1-0.2-0.15c-0.21-0.15-0.43-0.29-0.65-0.41l-76.71-44.29c-1.76-1.02-3.36-1.11-4.51-0.44l-7.05,4.1
				c1.15-0.67,2.75-0.58,4.51,0.44l76.71,44.29c0.22,0.13,0.44,0.27,0.65,0.41c0.07,0.05,0.13,0.1,0.2,0.15
				c0.15,0.11,0.29,0.21,0.43,0.33c0.08,0.07,0.16,0.14,0.24,0.21c0.12,0.11,0.25,0.21,0.37,0.32c0.09,0.08,0.17,0.17,0.25,0.25
				c0.11,0.11,0.22,0.22,0.33,0.33c0.01,0.01,0.02,0.03,0.03,0.04c0.33,0.35,0.63,0.72,0.93,1.11c0.02,0.03,0.04,0.06,0.07,0.08
				c0.24,0.32,0.46,0.66,0.68,1c0.05,0.08,0.09,0.15,0.14,0.23c0.2,0.34,0.4,0.68,0.57,1.03c0.01,0.03,0.03,0.06,0.04,0.08
				c0.18,0.36,0.34,0.72,0.48,1.08c0.03,0.07,0.05,0.13,0.08,0.2c0.18,0.46,0.33,0.93,0.45,1.39c0.02,0.06,0.03,0.12,0.05,0.19
				c0.09,0.38,0.17,0.75,0.22,1.13c0.01,0.07,0.02,0.15,0.03,0.22c0.05,0.39,0.08,0.77,0.08,1.14l-0.09,32.72
				c0,0.4-0.04,0.77-0.09,1.12c-0.01,0.05-0.01,0.1-0.02,0.15c-0.06,0.33-0.14,0.63-0.25,0.91c-0.03,0.07-0.05,0.14-0.08,0.21
				c-0.04,0.09-0.08,0.18-0.12,0.26c-0.04,0.08-0.09,0.16-0.13,0.24c-0.05,0.08-0.1,0.15-0.15,0.23c-0.04,0.06-0.08,0.11-0.13,0.17
				c-0.16,0.2-0.33,0.37-0.51,0.52c-0.12,0.09-0.23,0.18-0.36,0.25l7.05-4.1c0.12-0.07,0.23-0.15,0.34-0.23
				c0.01-0.01,0.01-0.02,0.02-0.02c0.19-0.15,0.36-0.33,0.51-0.52c0.02-0.02,0.04-0.03,0.05-0.05c0.03-0.03,0.05-0.08,0.07-0.11
				c0.05-0.07,0.1-0.15,0.15-0.23c0.05-0.08,0.09-0.16,0.13-0.24c0.04-0.08,0.08-0.17,0.12-0.26c0.02-0.04,0.04-0.08,0.06-0.13
				c0.01-0.03,0.01-0.06,0.02-0.08c0.1-0.28,0.19-0.58,0.25-0.91C178.06,454.34,178.07,454.29,178.07,454.23z"/>
		</g>
	</g>
</g>
</svg>
