<svg id="Groupe_2" data-name="Groupe 2" xmlns="http://www.w3.org/2000/svg" width="26.996" height="26.996" viewBox="0 0 26.996 26.996">
  <path id="Tracé_9" data-name="Tracé 9" d="M198.539,180.055h.007v-9.9c0-4.844-1.043-8.575-6.705-8.575a5.878,5.878,0,0,0-5.295,2.91h-.079v-2.458H181.1v18.023h5.59V171.13c0-2.35.445-4.622,3.355-4.622,2.867,0,2.91,2.682,2.91,4.773v8.775Z" transform="translate(-171.55 -153.06)" fill="#fff"/>
  <path id="Tracé_10" data-name="Tracé 10" d="M8.448,170.176h5.6V188.2h-5.6Z" transform="translate(-8.003 -161.203)" fill="#fff"/>
  <path id="Tracé_11" data-name="Tracé 11" d="M3.242,0A3.257,3.257,0,1,0,6.483,3.242,3.243,3.243,0,0,0,3.242,0Z" fill="#fff"/>
</svg>
