<svg xmlns="http://www.w3.org/2000/svg" width="138.5" height="192.259" viewBox="0 0 138.5 192.259">
  <g id="Groupe_113" data-name="Groupe 113" transform="translate(-1059.275 -390.148)">
    <path id="Tracé_166" data-name="Tracé 166" d="M1128.443,422.252s53.817.532,62.748,44.973l-8.589,5.964s12.489,36.666,2.736,43.048-10.063,4.844-10.063,4.615-16.4,40.649-23.565,39.623-22.64,16.675-22.64,16.675-3.1-8.068-18.344-16.941c-.293-.171-13.949-.817-21.412-17.624s-8.826-22.943-8.826-22.943-16.294-23.778-7.129-44.9c0,0-9.724-7.266-5.181-15.167S1084.26,422.707,1128.443,422.252Z" transform="translate(-0.06 -0.252)" fill="#41bca0"/>
    <g id="Groupe_111" data-name="Groupe 111" transform="translate(1089.857 420.481)">
      <path id="Tracé_167" data-name="Tracé 167" d="M1090.107,452.969s-.353-24.842,25.734-32.248l2.232,13.56S1099.273,443.511,1090.107,452.969Z" transform="translate(-1090.099 -420.721)" fill="#6a7ff4"/>
      <path id="Tracé_168" data-name="Tracé 168" d="M1167.684,452.969s.352-24.842-25.734-32.248l-2.233,13.56S1158.519,443.511,1167.684,452.969Z" transform="translate(-1090.487 -420.721)" fill="#6a7ff4"/>
      <path id="Tracé_169" data-name="Tracé 169" d="M1128.985,458.167c.844-.894,13.252-14.195,13.706-24.983.452-10.75-12.712-11.783-13.7-11.845v-.006l-.048,0-.048,0v.006c-.987.062-14.151,1.1-13.7,11.845.454,10.788,12.862,24.089,13.706,24.983v.086l.041-.043.041.043Z" transform="translate(-1090.295 -420.726)" fill="#6a7ff4"/>
      <path id="Tracé_170" data-name="Tracé 170" d="M1094.631,466.869s-4.759,3.394-4.524,23.434c0,0,15.687-1.328,23.031-7.025l-3.76-19.2Z" transform="translate(-1090.099 -421.061)" fill="#6a7ff4"/>
      <path id="Tracé_171" data-name="Tracé 171" d="M1162.214,467.533s4.76,3.394,4.524,23.433c0,0-15.687-1.327-23.031-7.025l3.76-19.2Z" transform="translate(-1090.519 -421.066)" fill="#6a7ff4"/>
      <path id="Tracé_172" data-name="Tracé 172" d="M1148.083,499.954l-9.479-6.762-9.7,12.274-9.7-12.274-9.478,6.762c3.167,13.522,18.379,23.889,19.148,24.415v.026l.019-.013.019.013v-.026C1129.689,523.843,1144.159,513.476,1148.083,499.954Z" transform="translate(-1090.253 -421.289)" fill="#6a7ff4"/>
      <path id="Tracé_173" data-name="Tracé 173" d="M1104.435,534.244a8.865,8.865,0,0,0,4.309-6.229c1.018-4.711-9.948-16.561-9.948-16.561l-4.544,2.659S1097.777,527.1,1104.435,534.244Z" transform="translate(-1090.131 -421.432)" fill="#6a7ff4"/>
      <path id="Tracé_174" data-name="Tracé 174" d="M1154.5,532.937a8.869,8.869,0,0,1-4.308-6.23c-1.019-4.71,9.948-16.561,9.948-16.561l4.543,2.659S1161.154,525.8,1154.5,532.937Z" transform="translate(-1090.569 -421.422)" fill="#6a7ff4"/>
      <path id="Tracé_175" data-name="Tracé 175" d="M1137.753,548.972h-17.524c.991,7.063,8.355,10.983,8.744,11.186v.02l.018-.01.019.01v-.02C1129.4,559.955,1136.762,556.035,1137.753,548.972Z" transform="translate(-1090.335 -421.726)" fill="#6a7ff4"/>
    </g>
    <path id="Tracé_176" data-name="Tracé 176" d="M1197.775,466.67c-10.907-44.421-46.351-51.707-61.859-52.73h.067c.914-9.355,22.065-8.985,22.065-8.985l.283-14.785c-37.386-.855-37.64,23.8-37.64,23.8h.085c-15.687,1.111-50.677,8.616-61.5,52.7a16.8,16.8,0,0,0,8.46,5.166s-13.161,37.224,6.267,52.873c0,0,3.447.3,5.405-1.215,0,0,4.23,25.981,22.092,38.06a12.038,12.038,0,0,0,4.935-1.481s9.636,18.46,22.092,22.335c12.456-3.874,22.09-22.335,22.09-22.335a12.038,12.038,0,0,0,4.935,1.481c17.861-12.079,22.092-38.06,22.092-38.06,1.959,1.519,5.406,1.215,5.406,1.215,19.427-15.649,6.266-52.873,6.266-52.873A16.8,16.8,0,0,0,1197.775,466.67Zm-69.25,26.589S1116.3,486.117,1115.6,463.5s12.926-35.044,12.926-35.044,13.63,12.429,12.925,35.044S1128.525,493.259,1128.525,493.259Zm21.151,15.365s-4.113,18.859-21.151,28.659c-17.038-9.8-21.151-28.659-21.151-28.659,7.873-9.288,11.437-9.174,11.437-9.174,1.567,3.59,9.714,8.831,9.714,8.831s8.146-5.242,9.713-8.831C1138.238,499.45,1141.8,499.336,1149.676,508.623Zm-77.71-45.6c12.69-34.946,43.634-37.225,43.634-37.225-8.382,9.192-9.518,31.033-9.518,31.033C1097.268,466.062,1071.966,463.023,1071.966,463.023Zm5.914,48.505c-8.226-15.725.744-37.87.744-37.87,15.824-.835,24.872-5.773,24.872-5.773.666,11.4,8.343,21.822,8.343,21.822C1089.865,513.352,1077.88,511.529,1077.88,511.529Zm29.141,38.231c-6.815,3.361-17.2-21.4-17.626-31.394l7.638-4.444s8.721,17.777,18.54,25.982A16.908,16.908,0,0,1,1107.021,549.76Zm21.5,19.6c-6.052-3.419-12.809-9.344-10.576-13.96a17,17,0,0,1,6.4-6.894l4.172,4.159,4.171-4.159a17,17,0,0,1,6.4,6.894C1141.333,560.016,1134.576,565.941,1128.525,569.36Zm21.5-19.6a16.906,16.906,0,0,1-8.552-9.856c9.818-8.205,18.539-25.982,18.539-25.982l7.638,4.444C1167.225,528.364,1156.844,553.121,1150.028,549.76Zm29.182-38.231s-11.985,1.824-33.958-21.822c0,0,7.677-10.427,8.343-21.822,0,0,9.047,4.938,24.871,5.773C1178.467,473.658,1187.437,495.8,1179.211,511.529Zm-27.542-54.7s-1.135-21.84-9.518-31.033c0,0,30.944,2.279,43.635,37.225C1185.785,463.023,1160.482,466.062,1151.669,456.831Z" fill="#45539f"/>
  </g>
</svg>
