<svg xmlns="http://www.w3.org/2000/svg" xmlns:xlink="http://www.w3.org/1999/xlink" viewBox="0 0 286.5 306.85"><defs><style>.cls-1{fill:none;}.cls-2{fill:#329680;}.cls-3{clip-path:url(#clip-path);}.cls-4{fill:#858585;}.cls-5{fill:#41bca0;}.cls-6{fill:#f5f5f5;}</style><clipPath id="clip-path"><path class="cls-1" d="M139.92,106.73l-26.8,15.58.46-.28,26.8-15.58Z"/></clipPath></defs><title>media</title><g id="Calque_2" data-name="Calque 2"><g id="Calque_1-2" data-name="Calque 1"><g id="Groupe_219" data-name="Groupe 219"><g id="Groupe_109" data-name="Groupe 109"><g id="Groupe_108" data-name="Groupe 108"><path id="Tracé_154" data-name="Tracé 154" class="cls-2" d="M101.91,114.2a14.3,14.3,0,0,0,1.58-.33l.27-.06a15.67,15.67,0,0,0,1.63-.56l.35-.15a15.13,15.13,0,0,0,1.56-.78l26.8-15.57a16.21,16.21,0,0,1-1.56.78l-.35.14a13.63,13.63,0,0,1-1.63.56l-.27.07q-.78.2-1.59.33l-.31.05c-.6.08-1.21.13-1.82.15h-.4c-.61,0-1.22,0-1.85,0h-.12c-.66-.06-1.33-.16-2-.28l-.45-.08c-.68-.13-1.37-.29-2.06-.49l-.28-.08q-1-.28-2-.66L117,97c-.73-.29-1.48-.61-2.23-1l-.45-.22c-.78-.38-1.57-.79-2.36-1.25s-1.6-1-2.39-1.52c-.5-.33-1-.67-1.49-1s-1.06-.78-1.58-1.19-1-.76-1.44-1.16-1-.83-1.43-1.25-1.13-1-1.69-1.58-.88-.87-1.32-1.32S99.57,84.41,99,83.83s-.92-1-1.36-1.55l-1-1.15c-.51-.63-1-1.28-1.5-1.93L94.34,78c-.52-.72-1-1.46-1.53-2.21-.23-.34-.47-.67-.69-1-.71-1.1-1.4-2.21-2.05-3.34l-.11-.2c-.61-1.07-1.19-2.15-1.75-3.24l-.56-1.14c-.39-.79-.76-1.58-1.12-2.38-.2-.44-.39-.89-.58-1.33-.32-.76-.62-1.52-.92-2.29-.17-.45-.34-.9-.5-1.36-.29-.8-.56-1.62-.82-2.43-.12-.39-.26-.78-.37-1.17-.34-1.13-.64-2.25-.9-3.38l-.06-.21c-.27-1.19-.5-2.38-.7-3.56-.06-.37-.1-.73-.15-1.1-.12-.86-.23-1.72-.31-2.57,0-.27,0-.55-.07-.83C81.07,43.16,81,42,81,41s.06-2.12.15-3.13c0-.54.12-1.06.19-1.59s.14-1.13.24-1.67.22-1,.33-1.45.27-1.15.44-1.69c0-.14.09-.29.14-.43a21.06,21.06,0,0,1,.91-2.32c0-.12.11-.22.16-.33a19,19,0,0,1,1.17-2.12l.18-.25a15.83,15.83,0,0,1,1.22-1.61c.15-.18.31-.35.47-.52a13.85,13.85,0,0,1,1.17-1.13l.5-.44A16,16,0,0,1,90.09,21h0L63.29,36.6a14.82,14.82,0,0,0-1.8,1.25l-.5.43c-.41.36-.8.74-1.17,1.13-.16.17-.32.34-.47.52a18.91,18.91,0,0,0-1.22,1.61l-.18.25,0,.05a20.76,20.76,0,0,0-1.13,2.07l-.16.33a21.87,21.87,0,0,0-.91,2.32c-.05.14-.09.29-.14.43l-.18.55c-.1.36-.17.76-.26,1.14s-.24,1-.33,1.46-.17,1.1-.24,1.66-.15,1.05-.2,1.6c0,.14,0,.26,0,.4-.06.88-.1,1.79-.1,2.72,0,1.1.06,2.21.14,3.33,0,.28,0,.56.07.84s0,.55.06.83c.07.57.16,1.15.25,1.73.05.37.09.73.15,1.1.2,1.18.42,2.37.7,3.56a1.94,1.94,0,0,1,.05.2q.4,1.69.9,3.39c.12.39.25.78.37,1.17.18.55.34,1.1.53,1.64.09.27.2.53.29.79.16.45.33.91.51,1.36.29.76.6,1.52.92,2.28.19.45.37.89.57,1.33.36.8.74,1.59,1.13,2.39.18.38.36.76.55,1.14.56,1.09,1.14,2.16,1.75,3.23l.11.2,0,0c.65,1.13,1.33,2.23,2,3.32.22.35.46.68.68,1,.5.74,1,1.48,1.54,2.2.28.4.58.78.87,1.17.49.65,1,1.3,1.51,1.93.31.39.63.77,1,1.15s.41.51.62.75.5.53.75.8c.53.59,1.06,1.16,1.6,1.72s.88.9,1.33,1.33,1.11,1.06,1.68,1.57c.26.23.5.49.76.71s.46.36.68.55c.47.4.95.78,1.44,1.16s1,.8,1.58,1.19l1.48,1c.28.18.55.4.83.57.52.33,1,.65,1.57,1,.79.46,1.57.86,2.35,1.25l.46.22c.75.35,1.49.68,2.22,1l.15.07c.09,0,.18,0,.27.09.66.24,1.31.46,2,.65l.28.09c.7.2,1.38.35,2.06.49l.46.08c.68.12,1.35.22,2,.28h.13c.62.05,1.24.07,1.84.06h.41c.61,0,1.21-.07,1.82-.15Z"/><g id="Groupe_104" data-name="Groupe 104"><g class="cls-3"><g id="Groupe_103" data-name="Groupe 103"><g id="Groupe_102" data-name="Groupe 102"><path id="Tracé_155" data-name="Tracé 155" class="cls-4" d="M113.58,122l26.8-15.58c-.15.1-.31.19-.47.28l-26.8,15.58.47-.28"/></g></g></g></g><g id="Groupe_105" data-name="Groupe 105"><path id="Tracé_157" data-name="Tracé 157" class="cls-5" d="M118.72,117.38l26.8-15.58L212,178l-26.8,15.58Z"/></g><path id="Tracé_158" data-name="Tracé 158" class="cls-2" d="M150.9,88.11l.09-.64c.1-.8.2-1.62.26-2.46v-.14c.07-1.07.12-2.16.12-3.29,0-1.3-.06-2.62-.15-4,0-.36-.05-.72-.09-1.09s0-.8-.1-1.2c-.08-.79-.2-1.58-.3-2.37l-.06-.41c-.2-1.33-.46-2.67-.74-4l-.21-1c-.31-1.36-.64-2.72-1-4.08l-26.8,15.57c.39,1.37.72,2.73,1,4.09l.21,1c.28,1.34.54,2.68.74,4l.06.41c.17,1.2.3,2.38.4,3.56,0,.37.07.74.09,1.1.09,1.32.15,2.64.15,3.94,0,1.13,0,2.23-.12,3.3-.06.89-.15,1.76-.26,2.6,0,.22-.07.43-.1.65-.1.68-.21,1.34-.34,2l-.12.61c-.18.8-.37,1.57-.59,2.32-.05.18-.11.34-.17.52-.18.59-.37,1.17-.59,1.73-.09.25-.19.49-.29.73-.2.48-.4,1-.62,1.41l-.33.69c-.26.5-.53,1-.81,1.44l-.26.45c-.4.63-.81,1.23-1.25,1.8h0l26.8-15.58c.41-.53.8-1.09,1.18-1.67a.75.75,0,0,1,.07-.12c.09-.14.17-.3.26-.45.28-.47.55-.95.8-1.45.12-.22.23-.45.34-.68.21-.46.42-.93.62-1.41.1-.24.2-.48.29-.73.21-.56.41-1.14.59-1.73.06-.18.12-.34.17-.52s0-.09,0-.14c.2-.7.38-1.43.55-2.18l.12-.61C150.68,89.46,150.8,88.79,150.9,88.11Z"/><path id="Tracé_159" data-name="Tracé 159" class="cls-5" d="M144.92,52.93c-.65-1.52-1.37-3-2.11-4.52l-.41-.84c-.73-1.43-1.49-2.85-2.3-4.25-.06-.11-.11-.22-.17-.32s-.26-.42-.38-.63c-.52-.88-1.05-1.75-1.6-2.62-.2-.33-.41-.65-.62-1-.74-1.13-1.49-2.26-2.27-3.35l-.18-.25c-.73-1-1.48-2-2.24-3l-.74-.93c-.64-.8-1.28-1.57-1.93-2.34-.16-.18-.31-.38-.47-.56s-.22-.23-.32-.35l-.75-.83c-.43-.48-.87-1-1.32-1.43-.26-.28-.53-.55-.8-.83-.45-.46-.9-.9-1.35-1.35l-.8-.77c-.5-.47-1-.93-1.51-1.38l-.69-.62-.17-.16-2-1.65-.47-.36c-.58-.46-1.17-.91-1.76-1.35l-.73-.52c-.54-.39-1.09-.76-1.64-1.13l-.68-.45-.32-.21c-.66-.42-1.33-.83-2-1.21-1-.58-2-1.09-3-1.58l-.58-.28c-1-.45-1.89-.85-2.81-1.22l-.19-.08-.34-.11c-.83-.31-1.65-.59-2.47-.83l-.35-.11c-.88-.25-1.74-.45-2.6-.62l-.57-.1c-.86-.16-1.71-.28-2.54-.35h-.15c-.8-.06-1.57-.08-2.34-.07h-.51a22.06,22.06,0,0,0-2.3.19l-.4.07c-.68.11-1.34.24-2,.41-.11,0-.23,0-.34.09a18.49,18.49,0,0,0-2.06.7l-.44.19a20.23,20.23,0,0,0-2,1L57.47,26.61a17.2,17.2,0,0,1,2-1l.45-.19A18.55,18.55,0,0,1,62,24.73l.34-.08c.66-.17,1.33-.31,2-.42l.4-.06A22.07,22.07,0,0,1,67,24h.51a23,23,0,0,1,2.34.06H70c.83.07,1.68.2,2.54.35l.57.11a25.1,25.1,0,0,1,2.6.62l.36.1c.81.24,1.63.52,2.46.83l.53.2c.93.36,1.86.77,2.81,1.22l.58.28c1,.48,2,1,3,1.58.78.45,1.55.92,2.31,1.42l.69.45c.54.36,1.09.74,1.63,1.12l.73.53c.59.44,1.18.88,1.76,1.34l.47.37c.72.58,1.44,1.18,2.15,1.81l.69.61c.51.46,1,.91,1.51,1.38l.8.78,1.35,1.34.8.84c.45.47.89.94,1.32,1.42l.75.83c.27.3.52.61.78.92.66.76,1.3,1.54,1.94,2.33l.74.93c.77,1,1.51,2,2.24,3l.18.24c.78,1.1,1.54,2.22,2.27,3.36l.62,1c.55.87,1.08,1.74,1.6,2.62.19.32.38.64.56,1,.8,1.4,1.56,2.81,2.29,4.25L116,64c.74,1.49,1.45,3,2.1,4.51h0Z"/><path id="Tracé_160" data-name="Tracé 160" class="cls-2" d="M236.54,274.28a15.77,15.77,0,0,0,1.58-.32l.27-.07a15.84,15.84,0,0,0,1.64-.56l.34-.15a12.55,12.55,0,0,0,1.56-.77l26.8-15.58a14.18,14.18,0,0,1-1.56.78l-.34.15c-.54.21-1.08.4-1.64.56l-.27.06a13.4,13.4,0,0,1-1.58.33l-.31.05a16,16,0,0,1-1.82.16h-.4c-.61,0-1.22,0-1.85-.05h-.12c-.66-.06-1.33-.16-2-.28l-.45-.08c-.68-.13-1.36-.29-2.06-.49l-.28-.09c-.64-.19-1.29-.41-1.95-.65l-.42-.16q-1.09-.42-2.22-1l-.46-.22c-.78-.38-1.56-.79-2.36-1.25s-1.6-1-2.4-1.52c-.49-.33-1-.68-1.48-1s-1.06-.78-1.58-1.19-1-.76-1.44-1.16-1-.83-1.44-1.26-1.13-1-1.68-1.57-.89-.88-1.33-1.33-1.08-1.13-1.61-1.72-.92-1-1.36-1.55-.64-.76-.95-1.15c-.52-.63-1-1.27-1.52-1.93l-.87-1.17c-.52-.72-1-1.46-1.53-2.2-.23-.34-.47-.67-.69-1-.71-1.09-1.4-2.2-2.05-3.34a1.62,1.62,0,0,1-.1-.18c-.62-1.07-1.2-2.15-1.76-3.25l-.56-1.14c-.39-.79-.76-1.59-1.12-2.38-.2-.45-.39-.89-.58-1.34-.32-.75-.62-1.52-.92-2.28-.17-.45-.34-.9-.5-1.36-.3-.81-.56-1.62-.82-2.43-.12-.39-.26-.78-.37-1.17-.33-1.12-.64-2.24-.9-3.36l-.06-.23c-.28-1.19-.5-2.38-.7-3.56-.06-.37-.1-.73-.15-1.1-.13-.86-.24-1.72-.32-2.57l-.06-.84c-.09-1.12-.14-2.23-.14-3.33s.07-2.11.15-3.12c.05-.55.13-1.07.19-1.6s.15-1.13.25-1.66.21-1,.33-1.46.27-1.15.44-1.69c0-.14.09-.29.14-.43a23.2,23.2,0,0,1,.9-2.32l.17-.33a17.52,17.52,0,0,1,1.17-2.12c.05-.09.12-.16.17-.25.38-.56.79-1.09,1.22-1.61l.48-.52a15.6,15.6,0,0,1,1.17-1.13c.17-.14.33-.3.5-.43a14.82,14.82,0,0,1,1.8-1.25l-26.8,15.57a14.82,14.82,0,0,0-1.8,1.25l-.5.44a13.85,13.85,0,0,0-1.17,1.13L194,200a19.43,19.43,0,0,0-1.22,1.61c-.05.09-.12.16-.17.25a.1.1,0,0,0,0,.05A19.63,19.63,0,0,0,191.4,204c-.05.11-.1.22-.16.33a24.18,24.18,0,0,0-.9,2.32c-.05.15-.1.29-.14.44s-.13.36-.18.55c-.1.36-.17.76-.26,1.13s-.24,1-.33,1.46-.17,1.1-.25,1.67-.14,1-.19,1.59c0,.14,0,.26-.05.4-.07.88-.1,1.79-.1,2.72,0,1.1,0,2.21.13,3.33,0,.28.05.55.07.84s0,.55.07.83c.06.57.16,1.16.24,1.73.06.37.1.73.16,1.1.2,1.18.42,2.37.7,3.56,0,.07,0,.14,0,.21.27,1.13.57,2.26.9,3.38.12.39.25.78.37,1.17.18.55.34,1.1.53,1.64.09.27.2.53.3.79.16.46.33.91.5,1.36.3.76.6,1.53.92,2.28.19.45.38.89.58,1.33.36.8.73,1.6,1.12,2.39.19.38.36.76.56,1.14q.84,1.65,1.77,3.27l.09.16v0c.65,1.13,1.34,2.23,2,3.32.22.35.46.68.69,1,.5.75,1,1.48,1.53,2.21l.87,1.16c.5.66,1,1.3,1.52,1.94l.95,1.14c.2.25.4.51.62.75s.5.53.74.8c.53.59,1.07,1.16,1.61,1.72l1.33,1.33c.55.54,1.11,1.06,1.68,1.57.26.23.5.49.76.71s.46.36.68.55c.47.4.95.78,1.44,1.16s1,.81,1.58,1.19,1,.7,1.49,1c.27.18.54.4.82.57.52.33,1,.65,1.57.95.8.46,1.58.87,2.36,1.25l.45.22c.75.36,1.49.68,2.23,1l.15.06.27.09q1,.38,2,.66l.28.08c.7.2,1.38.36,2,.49l.46.08c.68.13,1.35.22,2,.28h.12c.63.05,1.24.06,1.85.05h.4c.6,0,1.21-.07,1.81-.15Z"/><path id="Tracé_161" data-name="Tracé 161" class="cls-5" d="M285.1,250.68c.07-.31.13-.63.19-1s.12-.68.18-1,.1-.66.14-1,.09-.71.13-1.07.07-.69.1-1c0-.17,0-.34.05-.51s0-.26,0-.38c.06-1,.11-2,.11-3.06s0-1.88-.07-2.83l-.06-.85c0-.7-.1-1.41-.17-2.12,0-.18,0-.35,0-.53s0-.18,0-.27c-.13-1.15-.29-2.31-.49-3.48,0-.22-.08-.45-.12-.67-.21-1.18-.44-2.37-.71-3.56l0-.1c-.28-1.21-.6-2.42-.95-3.63-.07-.24-.13-.48-.2-.71-.35-1.18-.72-2.35-1.12-3.52,0-.08,0-.17-.08-.24s-.1-.27-.14-.4c-.43-1.21-.88-2.42-1.36-3.63a.36.36,0,0,1,0-.11c-.5-1.22-1-2.44-1.57-3.65l-.3-.66c-.54-1.17-1.11-2.33-1.7-3.47l-.34-.66c-.62-1.18-1.26-2.36-1.93-3.51v0l0-.06c-.67-1.16-1.37-2.3-2.09-3.43-.12-.19-.23-.38-.36-.57-.71-1.09-1.44-2.17-2.19-3.23-.14-.21-.29-.42-.44-.62-.77-1.07-1.55-2.13-2.36-3.16-.09-.11-.18-.21-.26-.32-.79-1-1.59-2-2.41-2.9l-.23-.28-.15-.17L262.89,187l-.66-.72c-.48-.51-1-1-1.46-1.51l-.39-.4c-.63-.62-1.26-1.24-1.89-1.83l-.54-.49c-.46-.42-.93-.85-1.4-1.26l-.11-.1c-.31-.27-.62-.52-.93-.78s-.55-.47-.83-.69l-1.11-.88-.79-.61-1.2-.87-.74-.53c-.46-.32-.92-.62-1.38-.92-.2-.13-.39-.27-.59-.39h0q-1-.63-2-1.2c-1-.58-2-1.09-3-1.58l-.58-.28c-.95-.45-1.88-.85-2.8-1.21l-.19-.08a3.4,3.4,0,0,0-.34-.12c-.82-.31-1.64-.58-2.45-.82l-.37-.12c-.88-.25-1.75-.45-2.6-.62l-.57-.1c-.86-.15-1.71-.28-2.54-.35h-.14c-.8-.06-1.58-.07-2.35-.06h-.51a22.07,22.07,0,0,0-2.3.2l-.4.06c-.67.11-1.34.25-2,.42l-.34.08a20.85,20.85,0,0,0-2.06.71l-.45.19a19,19,0,0,0-2,1h0l-26.8,15.57a20.23,20.23,0,0,1,2-1l.44-.19a18.49,18.49,0,0,1,2.06-.7,3.58,3.58,0,0,1,.35-.09,18.15,18.15,0,0,1,2-.41l.4-.07a22.06,22.06,0,0,1,2.3-.19h.51a23.31,23.31,0,0,1,2.35.07h.13c.84.07,1.69.2,2.55.34l.57.11c.85.17,1.72.37,2.6.62l.36.11c.81.24,1.63.52,2.46.83l.52.19c.93.36,1.86.76,2.8,1.21l.59.29c1,.48,2,1,3,1.57.66.38,1.33.79,2,1.21l.61.41,1.35.9.77.56c.39.28.79.55,1.17.84l.82.63,1.09.86.84.7c.34.29.69.57,1,.87l1.42,1.28.51.47c.64.6,1.27,1.21,1.9,1.83l.41.42c.48.49,1,1,1.44,1.5.22.23.43.48.65.72.39.42.77.84,1.15,1.27.13.14.25.3.38.44.82.95,1.62,1.92,2.41,2.91a3.92,3.92,0,0,1,.25.32c.81,1,1.6,2.09,2.37,3.16.15.2.3.41.44.62.75,1.06,1.48,2.14,2.19,3.23l.36.57c.72,1.13,1.42,2.27,2.09,3.43l.05.08c.67,1.16,1.31,2.34,1.93,3.53l.34.64c.59,1.15,1.16,2.31,1.7,3.48l.3.66c.55,1.21,1.08,2.43,1.57,3.65l0,.1c.49,1.21.93,2.42,1.36,3.63.08.22.15.43.23.64.4,1.18.77,2.35,1.12,3.53.06.23.13.47.2.7.34,1.21.66,2.43.94,3.64l0,.09c.28,1.19.51,2.38.72,3.56l.12.67c.19,1.17.36,2.33.49,3.48,0,.27.05.53.08.8.07.71.13,1.42.17,2.13,0,.28,0,.56.05.84,0,.95.08,1.9.08,2.83s-.05,2.06-.12,3.06c0,.3,0,.6-.06.89s-.06.7-.1,1-.08.72-.13,1.07-.09.66-.14,1l-.18,1c-.06.31-.12.63-.19.94s-.15.66-.22,1l-.24.9c-.08.3-.16.58-.25.87s-.23.74-.36,1.1-.18.52-.27.77-.28.71-.42,1.05l-.3.71c-.16.35-.33.69-.5,1s-.21.42-.32.62c-.2.37-.41.72-.62,1.07-.1.15-.18.31-.28.46a20.58,20.58,0,0,1-1.28,1.78l-.33.4a19.22,19.22,0,0,1-1.36,1.49l-.09.1a20.25,20.25,0,0,1-1.58,1.36l-.4.3c-.57.42-1.15.81-1.75,1.17l26.8-15.58a17.76,17.76,0,0,0,1.72-1.15l.4-.3a18.68,18.68,0,0,0,1.58-1.37l.1-.1a19.57,19.57,0,0,0,1.36-1.49l.33-.4c.44-.56.87-1.15,1.28-1.77l0-.05.24-.4c.21-.35.43-.71.63-1.08.11-.2.21-.41.31-.62a10.91,10.91,0,0,0,.5-1c.11-.23.2-.47.31-.71s.29-.69.42-1.05.19-.51.28-.77.24-.73.35-1.1c.05-.15.1-.29.14-.43s.07-.3.11-.44c.09-.3.16-.6.24-.91S285,251,285.1,250.68Z"/><g id="Groupe_106" data-name="Groupe 106"><path id="Tracé_162" data-name="Tracé 162" class="cls-5" d="M118.12,68.51l26.8-15.58,65.6-7.29-26.8,15.57Z"/></g><path id="Tracé_163" data-name="Tracé 163" class="cls-2" d="M237,105.82a15.77,15.77,0,0,0,1.58-.32l.27-.07a15.67,15.67,0,0,0,1.63-.56l.35-.15a15.05,15.05,0,0,0,1.56-.77l26.8-15.58a15.13,15.13,0,0,1-1.56.78l-.35.15c-.53.21-1.08.4-1.63.56l-.27.06c-.52.14-1,.24-1.58.33l-.32,0c-.6.08-1.21.13-1.81.15h-.4c-.61,0-1.23,0-1.86,0h-.11c-.66-.06-1.33-.16-2-.28l-.46-.08c-.67-.14-1.36-.3-2.06-.49l-.27-.09c-.65-.19-1.3-.41-2-.65l-.41-.16c-.74-.28-1.48-.61-2.23-1l-.45-.22c-.78-.39-1.57-.79-2.36-1.25s-1.6-1-2.4-1.52l-1.49-1c-.53-.38-1.06-.78-1.58-1.19s-1-.77-1.43-1.17-1-.82-1.44-1.25-1.13-1-1.69-1.58-.88-.87-1.32-1.32-1.08-1.14-1.61-1.72-.92-1-1.37-1.55-.63-.76-.94-1.15c-.52-.63-1-1.28-1.52-1.93l-.87-1.17c-.52-.72-1-1.46-1.53-2.2-.23-.34-.47-.68-.69-1-.71-1.1-1.4-2.21-2-3.34l-.11-.19c-.61-1.07-1.2-2.15-1.75-3.24-.2-.38-.38-.77-.56-1.15-.39-.79-.77-1.58-1.12-2.37-.2-.45-.39-.89-.58-1.34-.32-.76-.63-1.52-.92-2.28l-.51-1.36q-.44-1.21-.81-2.43c-.13-.39-.26-.78-.37-1.17-.34-1.12-.64-2.25-.9-3.37l-.06-.22c-.28-1.19-.5-2.38-.7-3.56-.06-.37-.1-.74-.16-1.1-.12-.86-.23-1.72-.31-2.57,0-.28,0-.56-.07-.84-.08-1.12-.13-2.23-.13-3.33s.06-2.11.15-3.12c0-.55.12-1.07.19-1.6s.14-1.12.25-1.66.21-1,.33-1.46.27-1.15.43-1.68c.05-.15.1-.29.14-.44a24.25,24.25,0,0,1,.91-2.32l.16-.33a19.08,19.08,0,0,1,1.18-2.12c0-.09.12-.16.18-.25A15.83,15.83,0,0,1,221.26,16c.15-.18.31-.35.47-.52a13.85,13.85,0,0,1,1.17-1.13l.5-.44a16,16,0,0,1,1.8-1.25L198.4,28.22a14.82,14.82,0,0,0-1.8,1.25l-.5.43c-.41.36-.8.74-1.17,1.13-.16.18-.32.34-.47.52a17.16,17.16,0,0,0-1.22,1.62l-.18.24,0,.06a19.7,19.7,0,0,0-1.13,2.07c0,.11-.11.21-.16.33a23.26,23.26,0,0,0-.91,2.32c0,.14-.1.29-.14.43l-.18.55c-.1.36-.16.76-.25,1.13s-.24,1-.34,1.47-.17,1.1-.24,1.66-.15,1-.19,1.59c0,.14,0,.27,0,.4-.07.88-.1,1.79-.1,2.72,0,1.1,0,2.21.13,3.33,0,.28,0,.56.07.84s0,.55.07.83c.06.58.16,1.16.24,1.74,0,.36.1.72.16,1.1.19,1.18.42,2.37.7,3.56a1.6,1.6,0,0,0,.05.21c.27,1.12.57,2.25.9,3.38.12.39.25.78.37,1.17.18.55.33,1.09.52,1.64.09.26.2.53.3.79.16.45.34.9.51,1.36.29.76.6,1.52.92,2.28.19.45.38.89.58,1.33.35.8.73,1.59,1.12,2.38.19.38.36.77.56,1.15.55,1.09,1.14,2.17,1.75,3.24a1.74,1.74,0,0,1,.1.19v0c.65,1.12,1.34,2.23,2,3.32l.69,1c.5.74,1,1.48,1.54,2.2.28.4.57.78.87,1.17.49.65,1,1.3,1.51,1.94l1,1.14.62.75c.24.28.5.53.75.8.53.58,1.06,1.16,1.6,1.72s.88.89,1.33,1.32,1.12,1.07,1.68,1.58c.26.23.5.48.76.71l.68.54q.72.6,1.44,1.17c.52.41,1.05.8,1.58,1.19s1,.7,1.49,1c.27.18.54.4.82.57.52.33,1,.65,1.57,1,.79.46,1.58.86,2.36,1.24.15.08.3.16.46.23.75.35,1.49.68,2.22,1l.15.07c.09,0,.18,0,.27.09.65.24,1.3.46,1.95.65l.28.09c.7.2,1.38.35,2.05.49l.46.08c.68.12,1.35.22,2,.27h.12c.62,0,1.24.06,1.85.06h.4c.6,0,1.21-.07,1.81-.15Z"/><path id="Tracé_164" data-name="Tracé 164" class="cls-5" d="M285.58,82.22c.07-.31.13-.63.19-1s.12-.67.18-1l.15-1c0-.36.09-.71.13-1.07s.07-.69.1-1c0-.17,0-.34.05-.52s0-.25,0-.37c.06-1,.11-2,.11-3.06s0-1.88-.07-2.83c0-.28,0-.56-.05-.85-.05-.7-.11-1.41-.18-2.12,0-.18,0-.35,0-.53s0-.18,0-.27c-.13-1.15-.29-2.31-.49-3.48,0-.22-.07-.45-.11-.67-.21-1.18-.45-2.37-.72-3.56l0-.1c-.28-1.21-.6-2.42-.95-3.63-.07-.23-.13-.47-.2-.71-.34-1.17-.72-2.35-1.12-3.52,0-.08-.05-.16-.07-.24l-.15-.4c-.43-1.21-.87-2.41-1.35-3.61,0,0,0-.09-.05-.13-.49-1.22-1-2.43-1.57-3.64l-.3-.67c-.54-1.16-1.11-2.32-1.69-3.47-.12-.21-.23-.43-.35-.65-.62-1.18-1.25-2.36-1.92-3.52h0l0-.06c-.67-1.16-1.37-2.3-2.1-3.44-.12-.19-.23-.38-.36-.56-.7-1.1-1.43-2.18-2.18-3.24l-.45-.62c-.77-1.07-1.56-2.13-2.36-3.16-.09-.1-.17-.21-.25-.31-.79-1-1.6-2-2.42-2.91-.08-.09-.15-.19-.23-.29l-.15-.16-1.13-1.26c-.23-.24-.45-.49-.68-.74-.46-.5-.93-1-1.41-1.46l-.43-.45c-.63-.62-1.26-1.23-1.9-1.83l-.52-.47c-.47-.43-.93-.86-1.41-1.28l-.11-.1c-.31-.27-.63-.52-.94-.78l-.82-.69-1.1-.87-.8-.62c-.4-.3-.81-.59-1.22-.88-.24-.18-.48-.36-.72-.52-.46-.32-.93-.63-1.39-.93l-.58-.38,0,0c-.65-.41-1.32-.81-2-1.2-1-.58-2-1.09-3-1.57l-.58-.29c-.95-.45-1.88-.85-2.81-1.21l-.19-.08c-.11,0-.23-.08-.34-.12-.83-.31-1.65-.59-2.46-.83l-.36-.11C236.75.9,235.89.7,235,.53l-.57-.1c-.86-.15-1.71-.28-2.54-.35h-.15C231,0,230.2,0,229.43,0h-.51c-.77,0-1.53.09-2.3.19l-.4.07a19.7,19.7,0,0,0-2,.41l-.34.09a18.49,18.49,0,0,0-2.06.7l-.44.19a20.23,20.23,0,0,0-2,1L192.6,18.22a16.55,16.55,0,0,1,2-1l.44-.19a20.85,20.85,0,0,1,2.06-.71l.34-.08c.65-.17,1.32-.31,2-.42l.4-.06a22.07,22.07,0,0,1,2.3-.2h.51a23,23,0,0,1,2.34.07h.15c.83.08,1.68.2,2.54.35l.57.11c.86.17,1.73.37,2.61.62l.35.1c.81.24,1.63.52,2.47.83l.52.2c.93.36,1.87.77,2.82,1.22l.58.28c1,.49,2,1,3,1.58.67.39,1.34.79,2,1.21l.59.39c.46.3.93.6,1.38.92.25.17.49.35.73.53.4.29.81.57,1.21.87l.81.63,1.1.86.84.7,1,.88c.47.41.94.84,1.41,1.26l.53.48c.63.6,1.27,1.21,1.89,1.83l.44.45,1.41,1.47c.22.24.44.49.67.73.38.42.76.83,1.13,1.26l.39.45c.82,1,1.62,1.92,2.41,2.91.08.11.17.21.25.31.81,1,1.59,2.09,2.36,3.16l.45.62c.75,1.06,1.47,2.14,2.18,3.23.13.19.25.39.37.58.72,1.13,1.42,2.27,2.09,3.43l.05.08c.67,1.15,1.3,2.33,1.92,3.52.12.21.23.43.34.65.59,1.14,1.16,2.3,1.7,3.47l.3.66c.55,1.21,1.08,2.43,1.57,3.65a.49.49,0,0,1,0,.11c.49,1.2.93,2.41,1.36,3.62l.22.64c.4,1.18.78,2.35,1.12,3.53.07.23.14.47.2.7.35,1.21.67,2.42.95,3.63l0,.1c.27,1.19.51,2.37.72,3.56l.12.67c.19,1.17.35,2.32.48,3.48,0,.26.06.53.08.8.08.71.13,1.42.18,2.12,0,.28,0,.57.05.84.05,1,.08,1.9.07,2.83s0,2.07-.11,3.06l-.06.9c0,.35-.07.7-.1,1s-.08.71-.13,1.06l-.15,1c-.05.35-.11.69-.18,1s-.12.63-.19,1-.14.65-.22,1-.15.6-.23.9-.17.58-.25.86-.23.74-.36,1.1-.18.52-.28.78-.27.7-.42,1l-.3.72c-.16.35-.33.69-.5,1s-.21.43-.32.63c-.2.37-.41.72-.63,1.07l-.27.46a21,21,0,0,1-1.28,1.77l-.33.41A19.22,19.22,0,0,1,252,111l-.1.1a20.56,20.56,0,0,1-1.58,1.36l-.4.3a19.8,19.8,0,0,1-1.72,1.15L275,98.36a19.91,19.91,0,0,0,1.72-1.16l.4-.3a20.56,20.56,0,0,0,1.58-1.36l.1-.1c.47-.47.92-1,1.36-1.5l.33-.4c.44-.56.87-1.15,1.27-1.77l0,0,.24-.41c.21-.35.43-.7.62-1.07.12-.21.22-.42.33-.63s.33-.67.5-1l.3-.71q.23-.52.42-1c.1-.26.19-.52.28-.78s.24-.73.35-1.1c.05-.14.1-.28.14-.43l.12-.43c.08-.3.15-.6.23-.91S285.51,82.55,285.58,82.22Z"/><g id="Groupe_107" data-name="Groupe 107"><path id="Tracé_165" data-name="Tracé 165" class="cls-6" d="M220.06,189.39c21.66,12.51,39.23,42.94,39.16,67.84s-17.76,35-39.42,22.46-39.23-42.93-39.16-67.82a41.78,41.78,0,0,1,1.47-11.23L113.58,122c-7.19,4.46-17.28,4-28.42-2.42C63.5,107.11,45.93,76.67,46,51.79s17.75-35,39.41-22.47c13.67,7.9,25.7,22.92,32.71,39.19l65.6-7.3a65.72,65.72,0,0,1-2.6-17.8c.07-24.9,17.75-35,39.42-22.46s39.23,42.92,39.16,67.82-17.76,35-39.42,22.46c-13.74-7.93-25.83-23.07-32.81-39.44L121.9,79.08a66.58,66.58,0,0,1,2.68,18.07c0,8.62-2.17,15.48-5.86,20.23l66.44,76.2C191.78,183,205,180.67,220.06,189.39Zm.45-159c-17.14-9.9-31.13-1.93-31.19,17.77s13.85,43.76,31,53.66,31.12,1.92,31.17-17.77-13.83-43.76-31-53.66m-.68,239.89C237,280.16,251,272.18,251,252.49s-13.84-43.76-31-53.66-31.13-1.93-31.19,17.77,13.85,43.76,31,53.66M85.19,110.18c17.14,9.9,31.13,1.92,31.18-17.76s-13.84-43.77-31-53.67S54.27,36.83,54.21,56.53s13.85,43.75,31,53.65"/></g></g></g><g id="Groupe_218" data-name="Groupe 218"><g id="Groupe_215" data-name="Groupe 215"><g id="Groupe_214" data-name="Groupe 214"><g id="Groupe_213" data-name="Groupe 213"><path id="Tracé_321" data-name="Tracé 321" class="cls-5" d="M30.79,71.12c16.91,9.77,30.64,33.54,30.59,53s-13.87,27.33-30.79,17.55S0,108.12,0,88.67,13.88,61.36,30.79,71.12Z"/></g><path id="Tracé_322" data-name="Tracé 322" class="cls-2" d="M68.76,126.29l.1-.58c.15-.76.26-1.55.34-2.35,0-.24,0-.49.09-.73s0-.31,0-.49c.06-.88.1-1.78.1-2.71,0-1.23,0-2.47-.15-3.71,0-.42-.12-.85-.15-1.27-.1-.83-.18-1.67-.31-2.51v0c-.18-1.11-.41-2.23-.65-3.36-.05-.25-.12-.47-.16-.72-.27-1.11-.56-2.22-.9-3.35-.05-.18-.12-.35-.18-.53-.31-1-.67-2.06-1-3.09-.07-.18-.13-.36-.2-.52-.41-1.11-.87-2.2-1.34-3.32-.1-.24-.21-.47-.31-.71-.49-1.11-1-2.22-1.57-3.32,0,0-.05-.1-.08-.14-.54-1.07-1.11-2.11-1.7-3.14-.13-.21-.25-.44-.38-.65-.6-1-1.24-2.06-1.89-3.07-.13-.2-.24-.38-.37-.56-.62-.94-1.26-1.86-1.93-2.77a4.06,4.06,0,0,0-.26-.36c-.72-1-1.45-1.91-2.22-2.82-.16-.2-.33-.41-.51-.6-.73-.87-1.47-1.73-2.23-2.55a.35.35,0,0,1-.1-.11,1.91,1.91,0,0,0-.33-.36c-.72-.75-1.44-1.49-2.19-2.19-.24-.23-.47-.46-.72-.67-.76-.7-1.53-1.39-2.33-2l-.31-.26c-.73-.59-1.47-1.18-2.22-1.72-.16-.11-.32-.23-.5-.34l-.59-.4c-.93-.63-1.86-1.24-2.81-1.77-.68-.39-1.35-.75-2-1.08-.18-.1-.36-.18-.54-.26-.57-.28-1.13-.52-1.68-.77l-.25-.11s0,0-.06,0c-.74-.3-1.47-.56-2.19-.79l-.46-.14c-.72-.22-1.42-.4-2.1-.55l-.28,0a19.23,19.23,0,0,0-1.91-.29,1.63,1.63,0,0,0-.31,0,18.65,18.65,0,0,0-2-.1h-.41a17.14,17.14,0,0,0-1.89.13l-.15,0a14,14,0,0,0-1.71.34l-.33.08a15.41,15.41,0,0,0-1.66.56l-.33.13a12.43,12.43,0,0,0-1.6.78L9,69a12.43,12.43,0,0,1,1.6-.78,2.26,2.26,0,0,1,.33-.13,12.38,12.38,0,0,1,1.65-.57c.1,0,.21,0,.32-.09a14.52,14.52,0,0,1,1.72-.34l.15,0c.62-.07,1.26-.12,1.89-.13H17c.63,0,1.29,0,1.94.09l.31,0a17.61,17.61,0,0,1,1.91.29l.28.05c.68.15,1.4.33,2.1.54l.46.15q1.08.34,2.19.78a1.2,1.2,0,0,0,.33.13c.55.23,1.12.49,1.68.77l.54.26c.66.34,1.33.69,2,1.08.95.54,1.88,1.14,2.81,1.78l.59.39c.91.65,1.82,1.32,2.72,2.06a2,2,0,0,1,.31.27c.79.66,1.57,1.33,2.32,2l.72.67c.73.7,1.47,1.44,2.19,2.19l.34.34c.8.87,1.58,1.75,2.35,2.67.16.2.34.4.51.6.75.91,1.5,1.86,2.2,2.82.08.11.16.24.26.36.67.91,1.3,1.83,1.92,2.77.13.18.25.38.38.56.65,1,1.29,2,1.89,3.07.13.21.25.44.38.65.58,1,1.16,2.07,1.7,3.13l.08.15c.55,1.1,1.06,2.2,1.57,3.32.1.24.21.47.31.71.47,1.1.91,2.2,1.33,3.32a3.56,3.56,0,0,1,.18.52c.38,1,.72,2.06,1,3.08q.08.27.18.54c.33,1.11.62,2.22.9,3.33.06.25.11.48.16.72.26,1.13.49,2.27.67,3.38.13.85.21,1.68.31,2.51.05.43.12.85.15,1.28.1,1.25.15,2.48.15,3.7s-.07,2.17-.15,3.2c0,.25-.05.49-.08.74-.09.81-.2,1.6-.35,2.37,0,.2-.06.39-.1.57a23.28,23.28,0,0,1-.67,2.58l-.2.53a17.72,17.72,0,0,1-.83,2.13c0,.06-.06.14-.1.21a20.85,20.85,0,0,1-1.14,2.07l-.2.33a15.92,15.92,0,0,1-1.32,1.74l-.26.3a16.54,16.54,0,0,1-1.54,1.48,1.3,1.3,0,0,1-.23.18,13.3,13.3,0,0,1-1.81,1.26l8.05-4.68a16.24,16.24,0,0,0,1.81-1.26l.23-.18a16.54,16.54,0,0,0,1.54-1.48l.26-.29a17.16,17.16,0,0,0,1.33-1.75l.2-.33A19.78,19.78,0,0,0,67,131.69c0-.07.06-.15.1-.23.16-.36.33-.7.47-1.08s.25-.68.36-1c.07-.18.13-.36.2-.56C68.35,128,68.57,127.18,68.76,126.29Z"/></g></g><g id="Groupe_216" data-name="Groupe 216"><g id="Groupe_214-2" data-name="Groupe 214-2"><g id="Groupe_213-2" data-name="Groupe 213-2"><path id="Tracé_321-2" data-name="Tracé 321-2" class="cls-5" d="M166.79,63.12c16.91,9.77,30.64,33.54,30.59,53s-13.87,27.33-30.79,17.55S136,100.12,136,80.67,149.88,53.36,166.79,63.12Z"/></g><path id="Tracé_322-2" data-name="Tracé 322-2" class="cls-2" d="M204.76,118.29l.1-.58c.15-.76.26-1.55.34-2.35,0-.24.05-.49.09-.73s0-.31.05-.49c.06-.88.1-1.78.1-2.71,0-1.23-.05-2.47-.15-3.71,0-.42-.12-.85-.15-1.27-.1-.83-.18-1.67-.31-2.51v0c-.18-1.11-.41-2.23-.65-3.36-.05-.25-.12-.47-.16-.72-.27-1.11-.56-2.22-.9-3.35-.05-.18-.12-.35-.18-.53-.31-1-.67-2.06-1-3.09-.07-.18-.13-.36-.2-.52-.41-1.11-.87-2.2-1.34-3.32-.1-.24-.21-.47-.31-.71-.49-1.11-1-2.22-1.57-3.32,0,0-.05-.1-.08-.14-.54-1.07-1.11-2.11-1.7-3.14-.13-.21-.25-.44-.38-.65-.6-1-1.24-2.06-1.89-3.07-.13-.2-.24-.38-.37-.56-.62-.94-1.26-1.86-1.93-2.77a4.06,4.06,0,0,0-.26-.36c-.72-1-1.45-1.91-2.22-2.82-.16-.2-.33-.41-.51-.6-.73-.87-1.47-1.73-2.23-2.55a.35.35,0,0,1-.1-.11,1.91,1.91,0,0,0-.33-.36c-.72-.75-1.44-1.49-2.19-2.19-.24-.23-.47-.46-.72-.67-.76-.7-1.53-1.39-2.33-2l-.31-.26c-.73-.59-1.47-1.18-2.22-1.72-.16-.11-.32-.23-.5-.34l-.59-.4c-.93-.63-1.86-1.24-2.81-1.77-.68-.39-1.35-.75-2-1.08-.18-.1-.36-.18-.54-.26-.57-.28-1.13-.52-1.68-.77l-.25-.11s-.05,0-.06,0c-.74-.3-1.47-.56-2.19-.79l-.46-.14c-.72-.22-1.42-.4-2.1-.55l-.28,0a19.23,19.23,0,0,0-1.91-.29,1.63,1.63,0,0,0-.31,0,18.65,18.65,0,0,0-2-.1h-.41a17.14,17.14,0,0,0-1.89.13l-.15,0a14,14,0,0,0-1.71.34l-.33.08a15.41,15.41,0,0,0-1.66.56l-.33.13a12.43,12.43,0,0,0-1.6.78L145,61a12.43,12.43,0,0,1,1.6-.78,2.26,2.26,0,0,1,.33-.13,12.38,12.38,0,0,1,1.65-.57c.1,0,.21-.05.32-.09a14.52,14.52,0,0,1,1.72-.34l.15,0c.62-.07,1.26-.12,1.89-.13H153c.63,0,1.29,0,1.94.09l.31,0a17.61,17.61,0,0,1,1.91.29l.28,0c.68.15,1.4.33,2.1.54l.46.15q1.08.34,2.19.78a1.2,1.2,0,0,0,.33.13c.55.23,1.12.49,1.68.77l.54.26c.66.34,1.33.69,2,1.08,1,.54,1.88,1.14,2.81,1.78l.59.39c.91.65,1.82,1.32,2.72,2.06a2,2,0,0,1,.31.27c.79.66,1.57,1.33,2.32,2l.72.67c.73.7,1.47,1.44,2.19,2.19l.34.34c.8.87,1.58,1.75,2.35,2.67.16.2.34.4.51.6.75.91,1.5,1.86,2.2,2.82.08.11.16.24.26.36.67.91,1.3,1.83,1.92,2.77.13.18.25.38.38.56.65,1,1.29,2,1.89,3.07.13.21.25.44.38.65.58,1,1.16,2.07,1.7,3.13l.08.15c.55,1.1,1.06,2.2,1.57,3.32.1.24.21.47.31.71.47,1.1.91,2.2,1.33,3.32a3.56,3.56,0,0,1,.18.52c.38,1,.72,2.06,1.05,3.08q.07.27.18.54c.33,1.11.62,2.22.9,3.33.06.25.11.48.16.72.26,1.13.49,2.27.67,3.38.13.85.21,1.68.31,2.51,0,.43.12.85.15,1.28.1,1.25.15,2.48.15,3.7s-.07,2.17-.15,3.2c0,.25-.05.49-.08.74-.09.81-.2,1.6-.35,2.37,0,.2-.06.39-.1.57a23.28,23.28,0,0,1-.67,2.58l-.2.53a17.72,17.72,0,0,1-.83,2.13c0,.06-.06.14-.1.21a20.85,20.85,0,0,1-1.14,2.07l-.2.33a15.92,15.92,0,0,1-1.32,1.74l-.26.3a16.54,16.54,0,0,1-1.54,1.48,1.3,1.3,0,0,1-.23.18,13.3,13.3,0,0,1-1.81,1.26l8.05-4.68a16.24,16.24,0,0,0,1.81-1.26l.23-.18a16.54,16.54,0,0,0,1.54-1.48l.26-.29a17.16,17.16,0,0,0,1.33-1.75l.2-.33a19.78,19.78,0,0,0,1.14-2.07c0-.07.06-.15.1-.23.16-.36.33-.7.47-1.08s.25-.68.36-1c.07-.18.13-.36.2-.56C204.35,120,204.57,119.18,204.76,118.29Z"/></g></g><g id="Groupe_217" data-name="Groupe 217"><g id="Groupe_214-3" data-name="Groupe 214-3"><g id="Groupe_213-3" data-name="Groupe 213-3"><path id="Tracé_321-3" data-name="Tracé 321-3" class="cls-5" d="M166.79,232.12c16.91,9.77,30.64,33.54,30.59,53s-13.87,27.33-30.79,17.55S136,269.12,136,249.67,149.88,222.36,166.79,232.12Z"/></g><path id="Tracé_322-3" data-name="Tracé 322-3" class="cls-2" d="M204.76,287.29l.1-.58c.15-.76.26-1.55.34-2.35,0-.24.05-.49.09-.73s0-.31.05-.49c.06-.88.1-1.78.1-2.71,0-1.23-.05-2.47-.15-3.71,0-.42-.12-.85-.15-1.27-.1-.83-.18-1.67-.31-2.51v0c-.18-1.11-.41-2.23-.65-3.36-.05-.25-.12-.47-.16-.72-.27-1.11-.56-2.22-.9-3.35-.05-.18-.12-.35-.18-.53-.31-1-.67-2.06-1-3.09-.07-.18-.13-.36-.2-.52-.41-1.11-.87-2.2-1.34-3.32-.1-.24-.21-.47-.31-.71-.49-1.11-1-2.22-1.57-3.32,0,0-.05-.1-.08-.14-.54-1.07-1.11-2.11-1.7-3.14-.13-.21-.25-.44-.38-.65-.6-1.05-1.24-2.06-1.89-3.07-.13-.2-.24-.38-.37-.56-.62-.94-1.26-1.86-1.93-2.77a4.06,4.06,0,0,0-.26-.36c-.72-1-1.45-1.91-2.22-2.82-.16-.2-.33-.41-.51-.6-.73-.87-1.47-1.73-2.23-2.55a.35.35,0,0,1-.1-.11,1.91,1.91,0,0,0-.33-.36c-.72-.75-1.44-1.49-2.19-2.19-.24-.23-.47-.46-.72-.67-.76-.7-1.53-1.39-2.33-2l-.31-.26c-.73-.59-1.47-1.18-2.22-1.72-.16-.11-.32-.23-.5-.34l-.59-.4c-.93-.63-1.86-1.24-2.81-1.77-.68-.39-1.35-.75-2-1.08-.18-.1-.36-.18-.54-.26-.57-.28-1.13-.52-1.68-.77l-.25-.11s-.05,0-.06,0c-.74-.3-1.47-.56-2.19-.79l-.46-.14c-.72-.22-1.42-.4-2.1-.55l-.28,0a19.23,19.23,0,0,0-1.91-.29,1.63,1.63,0,0,0-.31,0,18.65,18.65,0,0,0-2-.1h-.41a17.14,17.14,0,0,0-1.89.13l-.15,0a14,14,0,0,0-1.71.34l-.33.08a15.41,15.41,0,0,0-1.66.56l-.33.13a12.43,12.43,0,0,0-1.6.78l-8,4.7a12.43,12.43,0,0,1,1.6-.78,2.26,2.26,0,0,1,.33-.13,12.38,12.38,0,0,1,1.65-.57c.1,0,.21-.05.32-.09a14.52,14.52,0,0,1,1.72-.34l.15,0c.62-.07,1.26-.12,1.89-.13H153c.63,0,1.29,0,1.94.09l.31,0a17.61,17.61,0,0,1,1.91.29l.28.05c.68.15,1.4.33,2.1.54l.46.15q1.08.34,2.19.78a1.2,1.2,0,0,0,.33.13c.55.23,1.12.49,1.68.77l.54.26c.66.34,1.33.69,2,1.08,1,.54,1.88,1.14,2.81,1.78l.59.39c.91.65,1.82,1.32,2.72,2.06a2,2,0,0,1,.31.27c.79.66,1.57,1.33,2.32,2l.72.67c.73.7,1.47,1.44,2.19,2.19l.34.34c.8.87,1.58,1.75,2.35,2.67.16.2.34.4.51.6.75.91,1.5,1.86,2.2,2.82.08.11.16.24.26.36.67.91,1.3,1.83,1.92,2.77.13.18.25.38.38.56.65,1,1.29,2,1.89,3.07.13.21.25.44.38.65.58,1,1.16,2.07,1.7,3.13l.08.15c.55,1.1,1.06,2.2,1.57,3.32.1.24.21.47.31.71.47,1.1.91,2.2,1.33,3.32a3.56,3.56,0,0,1,.18.52c.38,1,.72,2.06,1.05,3.08q.07.27.18.54c.33,1.11.62,2.22.9,3.33.06.25.11.48.16.72.26,1.13.49,2.27.67,3.38.13.85.21,1.68.31,2.51,0,.43.12.85.15,1.28.1,1.25.15,2.48.15,3.7s-.07,2.17-.15,3.2c0,.25-.05.49-.08.74-.09.81-.2,1.6-.35,2.37,0,.2-.06.39-.1.57a23.28,23.28,0,0,1-.67,2.58l-.2.53a17.72,17.72,0,0,1-.83,2.13c0,.06-.06.14-.1.21a20.85,20.85,0,0,1-1.14,2.07l-.2.33a15.92,15.92,0,0,1-1.32,1.74l-.26.3a16.54,16.54,0,0,1-1.54,1.48,1.3,1.3,0,0,1-.23.18,13.3,13.3,0,0,1-1.81,1.26l8.05-4.68a16.24,16.24,0,0,0,1.81-1.26l.23-.18a16.54,16.54,0,0,0,1.54-1.48l.26-.29a17.16,17.16,0,0,0,1.33-1.75l.2-.33a19.78,19.78,0,0,0,1.14-2.07c0-.07.06-.15.1-.23.16-.36.33-.7.47-1.08s.25-.68.36-1c.07-.18.13-.36.2-.56C204.35,289,204.57,288.18,204.76,287.29Z"/></g></g></g></g></g></g></svg>