<?xml version="1.0" encoding="utf-8"?>
<!-- Generator: Adobe Illustrator 23.1.1, SVG Export Plug-In . SVG Version: 6.00 Build 0)  -->
<svg version="1.1" id="Calque_1" xmlns="http://www.w3.org/2000/svg" xmlns:xlink="http://www.w3.org/1999/xlink" x="0px" y="0px"
	 viewBox="0 0 22.83 29.05" style="enable-background:new 0 0 22.83 29.05;" xml:space="preserve">
<style type="text/css">
	.st0{fill:#FFFFFF;}
</style>
<g id="Groupe_4" transform="translate(-33.181)">
	<path id="Tracé_13" class="st0" d="M53.05,2.98C50.94,1.01,48.14-0.05,45.26,0c-3.36-0.13-6.63,1.13-9.03,3.48
		c-1.91,1.89-3,4.45-3.04,7.13c0,3.23,1.35,5.72,3.62,6.64c0.14,0.06,0.3,0.09,0.46,0.09c0.48,0,0.89-0.34,0.99-0.81
		c0.08-0.29,0.25-1,0.33-1.31c0.17-0.47,0.04-0.99-0.33-1.32c-0.67-0.81-1.01-1.84-0.96-2.89c-0.03-4.01,3.2-7.28,7.21-7.31
		c0.11,0,0.21,0,0.32,0c3.88,0,6.29,2.2,6.29,5.76c0.05,2.03-0.42,4.04-1.36,5.84c-0.61,1.32-1.88,2.21-3.32,2.33
		c-0.68,0.02-1.32-0.28-1.75-0.8c-0.38-0.5-0.51-1.14-0.35-1.75c0.17-0.73,0.41-1.5,0.64-2.23c0.43-1.17,0.71-2.39,0.81-3.64
		c0.15-1.45-0.91-2.75-2.36-2.9C43.3,6.3,43.2,6.3,43.1,6.3c-2.02,0-3.6,2.05-3.6,4.67c0,0.9,0.17,1.78,0.5,2.61
		c-0.26,1.08-1.77,7.49-2.05,8.7c-0.17,0.71-1.17,6.28,0.49,6.73c1.86,0.5,3.52-4.93,3.69-5.54c0.14-0.5,0.62-2.39,0.91-3.55
		c1.03,0.93,2.36,1.44,3.75,1.45c2.64,0,5.13-1.24,6.71-3.36c1.72-2.4,2.61-5.29,2.52-8.24C55.99,7.2,54.92,4.75,53.05,2.98z"/>
</g>
</svg>
